<?xml version="1.0" encoding="utf-8" standalone="no"?>
<!DOCTYPE svg PUBLIC "-//W3C//DTD SVG 1.1//EN"
  "http://www.w3.org/Graphics/SVG/1.1/DTD/svg11.dtd">
<svg xmlns:xlink="http://www.w3.org/1999/xlink" width="576pt" height="432pt" viewBox="0 0 576 432" xmlns="http://www.w3.org/2000/svg" version="1.1">
 <metadata>
  <rdf:RDF xmlns:dc="http://purl.org/dc/elements/1.1/" xmlns:cc="http://creativecommons.org/ns#" xmlns:rdf="http://www.w3.org/1999/02/22-rdf-syntax-ns#">
   <cc:Work>
    <dc:type rdf:resource="http://purl.org/dc/dcmitype/StillImage"/>
    <dc:date>2023-05-14T13:10:36.068525</dc:date>
    <dc:format>image/svg+xml</dc:format>
    <dc:creator>
     <cc:Agent>
      <dc:title>Matplotlib v3.7.1, https://matplotlib.org/</dc:title>
     </cc:Agent>
    </dc:creator>
   </cc:Work>
  </rdf:RDF>
 </metadata>
 <defs>
  <style type="text/css">*{stroke-linejoin: round; stroke-linecap: butt}</style>
 </defs>
 <g id="figure_1">
  <g id="patch_1">
   <path d="M 0 432 
L 576 432 
L 576 0 
L 0 0 
z
" style="fill: #ffffff"/>
  </g>
  <g id="axes_1">
   <g id="patch_2">
    <path d="M 66.492 381.348 
L 560.448 381.348 
L 560.448 15.552 
L 66.492 15.552 
z
" style="fill: #eaeaf2"/>
   </g>
   <g id="matplotlib.axis_1">
    <g id="xtick_1">
     <g id="line2d_1">
      <path d="M 88.944545 381.348 
L 88.944545 15.552 
" clip-path="url(#p1bb79187db)" style="fill: none; stroke: #ffffff; stroke-linecap: round"/>
     </g>
     <g id="text_1">
      <!-- 0 -->
      <g style="fill: #262626" transform="translate(85.644545 399.923) scale(0.132 -0.132)">
       <defs>
        <path id="SimHei-30" d="M 225 2537 
Q 250 3200 412 3587 
Q 575 3975 875 4225 
Q 1175 4475 1612 4475 
Q 2050 4475 2375 4112 
Q 2700 3750 2800 3200 
Q 2900 2650 2862 1937 
Q 2825 1225 2612 775 
Q 2400 325 1975 150 
Q 1550 -25 1125 187 
Q 700 400 525 750 
Q 350 1100 275 1487 
Q 200 1875 225 2537 
z
M 750 2687 
Q 675 2000 800 1462 
Q 925 925 1212 700 
Q 1500 475 1800 612 
Q 2100 750 2237 1162 
Q 2375 1575 2375 2062 
Q 2375 2550 2337 2950 
Q 2300 3350 2112 3675 
Q 1925 4000 1612 4012 
Q 1300 4025 1062 3700 
Q 825 3375 750 2687 
z
" transform="scale(0.015625)"/>
       </defs>
       <use xlink:href="#SimHei-30"/>
      </g>
     </g>
    </g>
    <g id="xtick_2">
     <g id="line2d_2">
      <path d="M 178.30791 381.348 
L 178.30791 15.552 
" clip-path="url(#p1bb79187db)" style="fill: none; stroke: #ffffff; stroke-linecap: round"/>
     </g>
     <g id="text_2">
      <!-- 20 -->
      <g style="fill: #262626" transform="translate(171.70791 399.923) scale(0.132 -0.132)">
       <defs>
        <path id="SimHei-32" d="M 300 250 
Q 325 625 650 925 
Q 975 1225 1475 1862 
Q 1975 2500 2125 2850 
Q 2275 3200 2237 3450 
Q 2200 3700 2000 3862 
Q 1800 4025 1537 4000 
Q 1275 3975 1037 3800 
Q 800 3625 675 3275 
L 200 3350 
Q 400 3925 712 4187 
Q 1025 4450 1450 4475 
Q 1700 4500 1900 4462 
Q 2100 4425 2312 4287 
Q 2525 4150 2662 3875 
Q 2800 3600 2762 3212 
Q 2725 2825 2375 2287 
Q 2025 1750 1025 600 
L 2825 600 
L 2825 150 
L 300 150 
L 300 250 
z
" transform="scale(0.015625)"/>
       </defs>
       <use xlink:href="#SimHei-32"/>
       <use xlink:href="#SimHei-30" x="50"/>
      </g>
     </g>
    </g>
    <g id="xtick_3">
     <g id="line2d_3">
      <path d="M 267.671275 381.348 
L 267.671275 15.552 
" clip-path="url(#p1bb79187db)" style="fill: none; stroke: #ffffff; stroke-linecap: round"/>
     </g>
     <g id="text_3">
      <!-- 40 -->
      <g style="fill: #262626" transform="translate(261.071275 399.923) scale(0.132 -0.132)">
       <defs>
        <path id="SimHei-34" d="M 2000 1100 
L 75 1100 
L 75 1525 
L 2100 4450 
L 2475 4450 
L 2475 1525 
L 3075 1525 
L 3075 1100 
L 2475 1100 
L 2475 150 
L 2000 150 
L 2000 1100 
z
M 2000 1525 
L 2000 3500 
L 600 1525 
L 2000 1525 
z
" transform="scale(0.015625)"/>
       </defs>
       <use xlink:href="#SimHei-34"/>
       <use xlink:href="#SimHei-30" x="50"/>
      </g>
     </g>
    </g>
    <g id="xtick_4">
     <g id="line2d_4">
      <path d="M 357.03464 381.348 
L 357.03464 15.552 
" clip-path="url(#p1bb79187db)" style="fill: none; stroke: #ffffff; stroke-linecap: round"/>
     </g>
     <g id="text_4">
      <!-- 60 -->
      <g style="fill: #262626" transform="translate(350.43464 399.923) scale(0.132 -0.132)">
       <defs>
        <path id="SimHei-36" d="M 250 1612 
Q 275 1975 387 2225 
Q 500 2475 725 2850 
L 1750 4450 
L 2325 4450 
L 1275 2800 
Q 1950 2975 2350 2750 
Q 2750 2525 2887 2237 
Q 3025 1950 3037 1612 
Q 3050 1275 2937 950 
Q 2825 625 2537 362 
Q 2250 100 1737 75 
Q 1225 50 862 262 
Q 500 475 362 862 
Q 225 1250 250 1612 
z
M 1025 787 
Q 1250 550 1625 525 
Q 2000 500 2250 775 
Q 2500 1050 2500 1575 
Q 2500 2100 2187 2300 
Q 1875 2500 1487 2450 
Q 1100 2400 925 2075 
Q 750 1750 775 1387 
Q 800 1025 1025 787 
z
" transform="scale(0.015625)"/>
       </defs>
       <use xlink:href="#SimHei-36"/>
       <use xlink:href="#SimHei-30" x="50"/>
      </g>
     </g>
    </g>
    <g id="xtick_5">
     <g id="line2d_5">
      <path d="M 446.398005 381.348 
L 446.398005 15.552 
" clip-path="url(#p1bb79187db)" style="fill: none; stroke: #ffffff; stroke-linecap: round"/>
     </g>
     <g id="text_5">
      <!-- 80 -->
      <g style="fill: #262626" transform="translate(439.798005 399.923) scale(0.132 -0.132)">
       <defs>
        <path id="SimHei-38" d="M 175 1375 
Q 175 1675 325 1962 
Q 475 2250 825 2425 
Q 525 2600 425 2812 
Q 325 3025 312 3300 
Q 300 3575 387 3775 
Q 475 3975 650 4150 
Q 825 4325 1037 4387 
Q 1250 4450 1500 4450 
Q 1750 4450 1950 4400 
Q 2150 4350 2375 4187 
Q 2600 4025 2700 3725 
Q 2800 3425 2687 3025 
Q 2575 2625 2100 2400 
Q 2525 2275 2700 2012 
Q 2875 1750 2875 1375 
Q 2875 1000 2762 775 
Q 2650 550 2512 400 
Q 2375 250 2137 162 
Q 1900 75 1537 75 
Q 1175 75 912 162 
Q 650 250 475 425 
Q 300 600 237 837 
Q 175 1075 175 1375 
z
M 687 1400 
Q 675 1100 787 875 
Q 900 650 1200 587 
Q 1500 525 1825 600 
Q 2150 675 2275 950 
Q 2400 1225 2362 1500 
Q 2325 1775 2050 1962 
Q 1775 2150 1450 2125 
Q 1125 2100 912 1900 
Q 700 1700 687 1400 
z
M 775 3350 
Q 775 3100 950 2875 
Q 1125 2650 1500 2650 
Q 1875 2650 2062 2875 
Q 2250 3100 2237 3412 
Q 2225 3725 2012 3875 
Q 1800 4025 1437 4000 
Q 1075 3975 925 3787 
Q 775 3600 775 3350 
z
" transform="scale(0.015625)"/>
       </defs>
       <use xlink:href="#SimHei-38"/>
       <use xlink:href="#SimHei-30" x="50"/>
      </g>
     </g>
    </g>
    <g id="xtick_6">
     <g id="line2d_6">
      <path d="M 535.76137 381.348 
L 535.76137 15.552 
" clip-path="url(#p1bb79187db)" style="fill: none; stroke: #ffffff; stroke-linecap: round"/>
     </g>
     <g id="text_6">
      <!-- 100 -->
      <g style="fill: #262626" transform="translate(525.86137 399.923) scale(0.132 -0.132)">
       <defs>
        <path id="SimHei-31" d="M 1400 3600 
Q 1075 3275 575 2975 
L 575 3450 
Q 1200 3875 1600 4450 
L 1900 4450 
L 1900 150 
L 1400 150 
L 1400 3600 
z
" transform="scale(0.015625)"/>
       </defs>
       <use xlink:href="#SimHei-31"/>
       <use xlink:href="#SimHei-30" x="50"/>
       <use xlink:href="#SimHei-30" x="100"/>
      </g>
     </g>
    </g>
    <g id="text_7">
     <!-- Time/ms -->
     <g style="fill: #262626" transform="translate(288.27 415.473) scale(0.144 -0.144)">
      <defs>
       <path id="SimHei-54" d="M 2850 3925 
L 1850 3925 
L 1850 125 
L 1275 125 
L 1275 3925 
L 275 3925 
L 275 4400 
L 2850 4400 
L 2850 3925 
z
" transform="scale(0.015625)"/>
       <path id="SimHei-69" d="M 1800 3725 
L 1300 3725 
L 1300 4375 
L 1800 4375 
L 1800 3725 
z
M 1800 125 
L 1300 125 
L 1300 2925 
L 1800 2925 
L 1800 125 
z
" transform="scale(0.015625)"/>
       <path id="SimHei-6d" d="M 3050 125 
L 2550 125 
L 2550 2150 
Q 2550 2300 2500 2400 
Q 2450 2500 2300 2500 
Q 2125 2500 1975 2312 
Q 1825 2125 1825 1825 
L 1825 125 
L 1325 125 
L 1325 2150 
Q 1325 2300 1275 2400 
Q 1225 2500 1075 2500 
Q 900 2500 750 2312 
Q 600 2125 600 1825 
L 600 125 
L 100 125 
L 100 2925 
L 600 2925 
L 600 2550 
Q 725 2750 900 2862 
Q 1075 2975 1275 2975 
Q 1475 2975 1612 2862 
Q 1750 2750 1800 2550 
Q 1925 2750 2087 2862 
Q 2250 2975 2450 2975 
Q 2750 2975 2900 2812 
Q 3050 2650 3050 2350 
L 3050 125 
z
" transform="scale(0.015625)"/>
       <path id="SimHei-65" d="M 2850 1075 
Q 2800 625 2450 350 
Q 2100 75 1625 75 
Q 1025 75 637 462 
Q 250 850 250 1525 
Q 250 2200 637 2587 
Q 1025 2975 1625 2975 
Q 2150 2975 2487 2637 
Q 2825 2300 2825 1525 
L 800 1525 
Q 800 975 1037 750 
Q 1275 525 1625 525 
Q 1900 525 2075 662 
Q 2250 800 2300 1075 
L 2850 1075 
z
M 2250 1925 
Q 2200 2275 2025 2412 
Q 1850 2550 1575 2550 
Q 1325 2550 1125 2412 
Q 925 2275 825 1925 
L 2250 1925 
z
" transform="scale(0.015625)"/>
       <path id="SimHei-2f" d="M 3000 4550 
L 350 -175 
L 100 -25 
L 2750 4700 
L 3000 4550 
z
" transform="scale(0.015625)"/>
       <path id="SimHei-73" d="M 2750 900 
Q 2750 500 2437 287 
Q 2125 75 1650 75 
Q 1050 75 725 312 
Q 400 550 400 1000 
L 900 1000 
Q 900 700 1112 600 
Q 1325 500 1625 500 
Q 1925 500 2075 612 
Q 2225 725 2225 900 
Q 2225 1025 2100 1150 
Q 1975 1275 1475 1350 
Q 900 1425 687 1637 
Q 475 1850 475 2200 
Q 475 2500 762 2737 
Q 1050 2975 1600 2975 
Q 2100 2975 2387 2750 
Q 2675 2525 2675 2150 
L 2175 2150 
Q 2175 2375 2012 2462 
Q 1850 2550 1600 2550 
Q 1275 2550 1137 2437 
Q 1000 2325 1000 2175 
Q 1000 2000 1125 1900 
Q 1250 1800 1650 1750 
Q 2300 1650 2525 1437 
Q 2750 1225 2750 900 
z
" transform="scale(0.015625)"/>
      </defs>
      <use xlink:href="#SimHei-54"/>
      <use xlink:href="#SimHei-69" x="50"/>
      <use xlink:href="#SimHei-6d" x="100"/>
      <use xlink:href="#SimHei-65" x="150"/>
      <use xlink:href="#SimHei-2f" x="200"/>
      <use xlink:href="#SimHei-6d" x="250"/>
      <use xlink:href="#SimHei-73" x="300"/>
     </g>
    </g>
   </g>
   <g id="matplotlib.axis_2">
    <g id="ytick_1">
     <g id="line2d_7">
      <path d="M 66.492 334.471837 
L 560.448 334.471837 
" clip-path="url(#p1bb79187db)" style="fill: none; stroke: #ffffff; stroke-linecap: round"/>
     </g>
     <g id="text_8">
      <!-- 0 -->
      <g style="fill: #262626" transform="translate(50.392 339.009337) scale(0.132 -0.132)">
       <use xlink:href="#SimHei-30"/>
      </g>
     </g>
    </g>
    <g id="ytick_2">
     <g id="line2d_8">
      <path d="M 66.492 258.84889 
L 560.448 258.84889 
" clip-path="url(#p1bb79187db)" style="fill: none; stroke: #ffffff; stroke-linecap: round"/>
     </g>
     <g id="text_9">
      <!-- 2000 -->
      <g style="fill: #262626" transform="translate(30.592 263.38639) scale(0.132 -0.132)">
       <use xlink:href="#SimHei-32"/>
       <use xlink:href="#SimHei-30" x="50"/>
       <use xlink:href="#SimHei-30" x="100"/>
       <use xlink:href="#SimHei-30" x="150"/>
      </g>
     </g>
    </g>
    <g id="ytick_3">
     <g id="line2d_9">
      <path d="M 66.492 183.225944 
L 560.448 183.225944 
" clip-path="url(#p1bb79187db)" style="fill: none; stroke: #ffffff; stroke-linecap: round"/>
     </g>
     <g id="text_10">
      <!-- 4000 -->
      <g style="fill: #262626" transform="translate(30.592 187.763444) scale(0.132 -0.132)">
       <use xlink:href="#SimHei-34"/>
       <use xlink:href="#SimHei-30" x="50"/>
       <use xlink:href="#SimHei-30" x="100"/>
       <use xlink:href="#SimHei-30" x="150"/>
      </g>
     </g>
    </g>
    <g id="ytick_4">
     <g id="line2d_10">
      <path d="M 66.492 107.602997 
L 560.448 107.602997 
" clip-path="url(#p1bb79187db)" style="fill: none; stroke: #ffffff; stroke-linecap: round"/>
     </g>
     <g id="text_11">
      <!-- 6000 -->
      <g style="fill: #262626" transform="translate(30.592 112.140497) scale(0.132 -0.132)">
       <use xlink:href="#SimHei-36"/>
       <use xlink:href="#SimHei-30" x="50"/>
       <use xlink:href="#SimHei-30" x="100"/>
       <use xlink:href="#SimHei-30" x="150"/>
      </g>
     </g>
    </g>
    <g id="ytick_5">
     <g id="line2d_11">
      <path d="M 66.492 31.98005 
L 560.448 31.98005 
" clip-path="url(#p1bb79187db)" style="fill: none; stroke: #ffffff; stroke-linecap: round"/>
     </g>
     <g id="text_12">
      <!-- 8000 -->
      <g style="fill: #262626" transform="translate(30.592 36.51755) scale(0.132 -0.132)">
       <use xlink:href="#SimHei-38"/>
       <use xlink:href="#SimHei-30" x="50"/>
       <use xlink:href="#SimHei-30" x="100"/>
       <use xlink:href="#SimHei-30" x="150"/>
      </g>
     </g>
    </g>
    <g id="text_13">
     <!-- Current/A -->
     <g style="fill: #262626" transform="translate(24.792 230.85) rotate(-90) scale(0.144 -0.144)">
      <defs>
       <path id="SimHei-43" d="M 2975 1825 
Q 2950 875 2575 475 
Q 2200 75 1675 75 
Q 1075 75 650 562 
Q 225 1050 225 2125 
Q 225 3300 637 3875 
Q 1050 4450 1700 4450 
Q 2250 4450 2612 4037 
Q 2975 3625 2950 2875 
L 2400 2875 
Q 2400 3425 2225 3700 
Q 2050 3975 1700 3975 
Q 1300 3975 1062 3562 
Q 825 3150 825 2175 
Q 825 1275 1062 912 
Q 1300 550 1675 550 
Q 1950 550 2175 812 
Q 2400 1075 2400 1825 
L 2975 1825 
z
" transform="scale(0.015625)"/>
       <path id="SimHei-75" d="M 2800 125 
L 2300 125 
L 2300 650 
Q 2100 375 1862 225 
Q 1625 75 1250 75 
Q 800 75 575 325 
Q 350 575 350 950 
L 350 2925 
L 850 2925 
L 850 1125 
Q 850 825 1000 650 
Q 1150 475 1400 475 
Q 1725 475 2012 812 
Q 2300 1150 2300 1650 
L 2300 2925 
L 2800 2925 
L 2800 125 
z
" transform="scale(0.015625)"/>
       <path id="SimHei-72" d="M 2500 2425 
Q 2025 2500 1700 2287 
Q 1375 2075 1150 1550 
L 1150 125 
L 650 125 
L 650 2925 
L 1150 2925 
L 1150 2200 
Q 1375 2600 1712 2787 
Q 2050 2975 2500 2975 
L 2500 2425 
z
" transform="scale(0.015625)"/>
       <path id="SimHei-6e" d="M 2800 125 
L 2300 125 
L 2300 1925 
Q 2300 2225 2150 2400 
Q 2000 2575 1750 2575 
Q 1425 2575 1137 2237 
Q 850 1900 850 1400 
L 850 125 
L 350 125 
L 350 2925 
L 850 2925 
L 850 2400 
Q 1050 2675 1287 2825 
Q 1525 2975 1900 2975 
Q 2350 2975 2575 2725 
Q 2800 2475 2800 2100 
L 2800 125 
z
" transform="scale(0.015625)"/>
       <path id="SimHei-74" d="M 2750 200 
Q 2625 150 2462 112 
Q 2300 75 2025 75 
Q 1575 75 1300 325 
Q 1025 575 1025 1025 
L 1025 2525 
L 175 2525 
L 175 2925 
L 1025 2925 
L 1025 3900 
L 1525 3900 
L 1525 2925 
L 2550 2925 
L 2550 2525 
L 1525 2525 
L 1525 1000 
Q 1525 800 1625 662 
Q 1725 525 2000 525 
Q 2275 525 2450 575 
Q 2625 625 2750 700 
L 2750 200 
z
" transform="scale(0.015625)"/>
       <path id="SimHei-41" d="M 3075 125 
L 2475 125 
L 2125 1450 
L 1025 1450 
L 675 125 
L 75 125 
L 1325 4450 
L 1825 4450 
L 3075 125 
z
M 2000 1925 
L 1600 3450 
L 1550 3450 
L 1150 1925 
L 2000 1925 
z
" transform="scale(0.015625)"/>
      </defs>
      <use xlink:href="#SimHei-43"/>
      <use xlink:href="#SimHei-75" x="50"/>
      <use xlink:href="#SimHei-72" x="100"/>
      <use xlink:href="#SimHei-72" x="150"/>
      <use xlink:href="#SimHei-65" x="200"/>
      <use xlink:href="#SimHei-6e" x="250"/>
      <use xlink:href="#SimHei-74" x="300"/>
      <use xlink:href="#SimHei-2f" x="350"/>
      <use xlink:href="#SimHei-41" x="400"/>
     </g>
    </g>
   </g>
   <g id="PolyCollection_1"/>
   <g id="PolyCollection_2"/>
   <g id="line2d_12">
    <path d="M 88.944545 334.471837 
L 91.17863 319.969608 
L 92.51908 312.772404 
L 93.412714 309.018031 
L 94.306347 306.27842 
L 94.753164 305.324993 
L 95.199981 304.662792 
L 95.646798 304.298433 
L 96.093615 304.235556 
L 96.540431 304.474791 
L 96.987248 305.013746 
L 97.434065 305.847036 
L 98.327699 308.360462 
L 99.221332 311.914866 
L 100.114966 316.368546 
L 101.455417 324.33872 
L 105.923585 352.980035 
L 106.817218 357.36449 
L 107.710852 360.836288 
L 108.604486 363.257018 
L 109.051303 364.04132 
L 109.498119 364.530173 
L 109.944936 364.718694 
L 110.391753 364.604998 
L 110.83857 364.190221 
L 111.285387 363.478508 
L 111.732204 362.47697 
L 112.625837 359.647243 
L 113.519471 355.813852 
L 114.859921 348.525671 
L 116.647189 336.985223 
L 119.32809 319.525314 
L 120.66854 312.421122 
L 121.562174 308.746827 
L 122.455807 306.098108 
L 122.902624 305.193062 
L 123.349441 304.580559 
L 123.796258 304.266721 
L 124.243075 304.254682 
L 124.689891 304.544562 
L 125.136708 305.133467 
L 125.583525 306.01551 
L 126.477159 308.620922 
L 127.370792 312.256928 
L 128.264426 316.778572 
L 129.604877 324.819373 
L 134.073045 353.37971 
L 134.966678 357.693702 
L 135.860312 361.081911 
L 136.753946 363.40926 
L 137.200763 364.144352 
L 137.647579 364.582966 
L 138.094396 364.720719 
L 138.541213 364.556236 
L 138.98803 364.091159 
L 139.434847 363.330135 
L 140.32848 360.953546 
L 141.222114 357.521214 
L 142.115748 353.169977 
L 143.456198 345.307978 
L 148.371183 314.217901 
L 149.264817 310.158018 
L 150.15845 307.06745 
L 151.052084 305.069408 
L 151.498901 304.506778 
L 151.945718 304.243548 
L 152.392535 304.28235 
L 152.839351 304.622795 
L 153.286168 305.261482 
L 153.732985 306.192029 
L 154.626619 308.88869 
L 155.520252 312.60527 
L 156.413886 317.1936 
L 157.754336 325.302755 
L 161.775688 351.352459 
L 163.116138 358.016348 
L 164.009772 361.32001 
L 164.903406 363.553321 
L 165.350223 364.238995 
L 165.797039 364.627245 
L 166.243856 364.714192 
L 166.690673 364.498968 
L 167.13749 363.983722 
L 167.584307 363.173603 
L 168.47794 360.70399 
L 169.371574 357.188584 
L 170.265208 352.767533 
L 171.605658 344.831594 
L 176.073826 316.154753 
L 176.96746 311.737358 
L 177.861094 308.226315 
L 178.754727 305.761598 
L 179.201544 304.954067 
L 179.648361 304.441468 
L 180.095178 304.228923 
L 180.541995 304.318554 
L 180.988811 304.709467 
L 181.435628 305.397756 
L 181.882445 306.376544 
L 182.776079 309.163691 
L 183.669712 312.959794 
L 185.010163 320.205144 
L 186.79743 331.718483 
L 189.478331 349.208465 
L 190.818782 356.356959 
L 191.712415 360.069309 
L 192.606049 362.761168 
L 193.052866 363.68916 
L 193.499682 364.325222 
L 193.946499 364.662998 
L 194.393316 364.699115 
L 194.840133 364.43321 
L 195.28695 363.867941 
L 195.733767 363.008957 
L 196.6274 360.447018 
L 197.521034 356.849531 
L 198.414668 352.359916 
L 199.755118 344.352281 
L 204.223286 315.752586 
L 205.11692 311.40507 
L 206.010554 307.977153 
L 206.904187 305.605496 
L 207.351004 304.847072 
L 207.797821 304.384649 
L 208.244638 304.222847 
L 208.691455 304.363283 
L 209.138271 304.804554 
L 209.585088 305.54225 
L 210.031905 306.569002 
L 210.925539 309.445847 
L 211.819172 313.3204 
L 213.159623 320.655646 
L 214.94689 332.225368 
L 217.627791 349.650551 
L 218.968242 356.704971 
L 219.861875 360.336693 
L 220.755509 362.937264 
L 221.202326 363.816738 
L 221.649142 364.403008 
L 222.095959 364.690216 
L 222.542776 364.675491 
L 222.989593 364.358982 
L 223.43641 363.74385 
L 223.883227 362.836242 
L 224.77686 360.182702 
L 225.670494 356.504152 
L 226.564128 351.947242 
L 227.904578 343.870174 
L 232.372746 315.355711 
L 233.26638 311.079303 
L 234.160014 307.735482 
L 235.053647 305.457556 
L 235.500464 304.748453 
L 235.947281 304.336337 
L 236.394098 304.225324 
L 236.840915 304.416525 
L 237.287731 304.908028 
L 237.734548 305.694924 
L 238.628182 308.120567 
L 239.521815 311.596753 
L 240.415449 315.984895 
L 241.7559 323.886095 
L 246.670885 354.923846 
L 247.564518 358.94399 
L 248.458152 361.988506 
L 249.351786 363.93602 
L 249.798602 364.472332 
L 250.245419 364.70889 
L 250.692236 364.643328 
L 251.139053 364.276303 
L 251.58587 363.611482 
L 252.032687 362.655507 
L 252.92632 359.911117 
L 253.819954 356.152543 
L 255.160404 348.950483 
L 256.947672 337.464983 
L 259.628573 319.946036 
L 260.969023 312.753695 
L 261.862657 309.003525 
L 262.75629 306.268696 
L 263.203107 305.317818 
L 263.649924 304.658237 
L 264.096741 304.296544 
L 264.543558 304.236353 
L 264.990374 304.478264 
L 265.437191 305.019861 
L 265.884008 305.855733 
L 266.777642 308.374036 
L 267.671275 311.932776 
L 268.564909 316.390077 
L 269.90536 324.364038 
L 274.373528 353.001278 
L 275.267161 357.382042 
L 276.160795 360.849449 
L 277.054429 363.265263 
L 277.501246 364.046971 
L 277.948062 364.533175 
L 278.394879 364.719015 
L 278.841696 364.602635 
L 279.288513 364.185199 
L 279.73533 363.470876 
L 280.182147 362.466805 
L 281.07578 359.632339 
L 281.969414 355.794804 
L 283.309864 348.501875 
L 285.097132 336.958449 
L 287.778033 319.501962 
L 289.118483 312.40274 
L 290.012117 308.732704 
L 290.90575 306.088806 
L 291.352567 305.186323 
L 291.799384 304.57645 
L 292.246201 304.265283 
L 292.693018 304.255929 
L 293.139834 304.548483 
L 293.586651 305.140021 
L 294.033468 306.024633 
L 294.927102 308.634883 
L 295.820735 312.275171 
L 296.714369 316.80037 
L 298.05482 324.844839 
L 302.522988 353.400674 
L 303.416621 357.710909 
L 304.310255 361.094676 
L 305.203889 363.417074 
L 305.650706 364.149561 
L 306.097522 364.585518 
L 306.544339 364.720588 
L 306.991156 364.553423 
L 307.437973 364.085693 
L 307.88479 363.322071 
L 308.778423 360.940551 
L 309.672057 357.503807 
L 310.565691 353.148851 
L 311.906141 345.282891 
L 313.693408 333.427917 
L 314.587042 264.180682 
L 316.374309 155.158023 
L 317.267943 110.333708 
L 318.161577 74.445073 
L 319.05521 48.922884 
L 319.502027 40.384546 
L 319.948844 34.784631 
L 320.395661 32.179091 
L 320.842478 32.59396 
L 321.289294 36.025094 
L 321.736111 42.438209 
L 322.182928 51.769227 
L 323.076562 78.783821 
L 323.970195 115.991889 
L 324.863829 161.910063 
L 326.20428 243.03708 
L 327.54473 334.257822 
L 329.778814 348.785887 
L 331.119265 356.021621 
L 332.012898 359.809373 
L 332.906532 362.586998 
L 333.353349 363.560702 
L 333.800166 364.24376 
L 334.246982 364.629347 
L 334.693799 364.713609 
L 335.140616 364.495706 
L 335.587433 363.977815 
L 336.03425 363.165109 
L 336.927883 360.690602 
L 337.821517 357.170835 
L 338.715151 352.746131 
L 340.055601 344.806349 
L 344.523769 316.13338 
L 345.417403 311.719645 
L 346.311037 308.212968 
L 347.20467 305.75315 
L 347.651487 304.948207 
L 348.098304 304.438255 
L 348.545121 304.228388 
L 348.991938 304.320704 
L 349.438754 304.71428 
L 349.885571 305.405183 
L 350.332388 306.386511 
L 351.226022 309.178416 
L 352.119655 312.97869 
L 353.460106 320.22884 
L 355.247373 331.745239 
L 357.928274 349.231922 
L 359.268725 356.375497 
L 360.162358 360.083614 
L 361.055992 362.77067 
L 361.502809 363.696106 
L 361.949626 364.329542 
L 362.396442 364.664649 
L 362.843259 364.698081 
L 363.290076 364.429501 
L 363.736893 363.861594 
L 364.18371 363.000035 
L 365.077343 360.43324 
L 365.970977 356.831446 
L 366.864611 352.338244 
L 368.205061 344.326885 
L 372.673229 315.731489 
L 373.566863 311.387699 
L 374.460497 307.9642 
L 375.35413 305.597478 
L 375.800947 304.841653 
L 376.247764 304.381884 
L 376.694581 304.222764 
L 377.141398 304.365883 
L 377.588214 304.80981 
L 378.035031 305.55011 
L 378.928665 307.887356 
L 379.822299 311.284441 
L 380.715932 315.605934 
L 382.056383 323.436155 
L 386.971368 354.566306 
L 387.865001 358.657725 
L 388.758635 361.784929 
L 389.652269 363.823247 
L 390.099085 364.406882 
L 390.545902 364.691416 
L 390.992719 364.674006 
L 391.439536 364.354826 
L 391.886353 363.737065 
L 392.33317 362.826895 
L 393.226803 360.168538 
L 394.120437 356.485734 
L 395.014071 351.925306 
L 396.354521 343.844634 
L 400.822689 315.334897 
L 401.716323 311.062279 
L 402.609957 307.722927 
L 403.50359 305.449969 
L 403.950407 304.743477 
L 404.397224 304.334021 
L 404.844041 304.225693 
L 405.290858 304.419574 
L 405.737674 304.913727 
L 406.184491 305.703215 
L 407.078125 308.13377 
L 407.971758 311.61434 
L 408.865392 316.006167 
L 410.205843 323.911267 
L 415.120828 354.943632 
L 416.014461 358.959772 
L 416.908095 361.999654 
L 417.801729 363.942089 
L 418.248545 364.475758 
L 418.695362 364.709638 
L 419.142179 364.641392 
L 419.588996 364.271702 
L 420.035813 363.604261 
L 420.48263 362.645739 
L 421.376263 359.896571 
L 422.269897 356.133799 
L 423.610347 348.926888 
L 425.397615 337.438247 
L 428.078516 319.922476 
L 429.418966 312.735003 
L 430.3126 308.989039 
L 431.206233 306.258994 
L 431.65305 305.310666 
L 432.099867 304.653706 
L 432.546684 304.294679 
L 432.993501 304.237173 
L 433.440318 304.481761 
L 433.887134 305.026 
L 434.333951 305.864452 
L 435.227585 308.38763 
L 436.121218 311.950702 
L 437.014852 316.411621 
L 438.355303 324.389364 
L 442.823471 353.022506 
L 443.717104 357.399576 
L 444.610738 360.862589 
L 445.504372 363.273486 
L 445.951189 364.0526 
L 446.398005 364.536152 
L 446.844822 364.719312 
L 447.291639 364.600249 
L 447.738456 364.180153 
L 448.185273 363.463221 
L 448.63209 362.456617 
L 449.525723 359.617416 
L 450.419357 355.77574 
L 451.759807 348.478068 
L 453.547075 336.931673 
L 456.227976 319.478623 
L 457.568426 312.384375 
L 458.46206 308.718601 
L 459.355693 306.079527 
L 459.80251 305.179607 
L 460.249327 304.572365 
L 460.696144 304.263869 
L 461.142961 304.257201 
L 461.589777 304.552428 
L 462.036594 305.146599 
L 462.483411 306.033778 
L 463.377045 308.648865 
L 464.270678 312.293432 
L 465.164312 316.822182 
L 466.504763 324.870311 
L 470.972931 353.421622 
L 471.866564 357.728098 
L 472.760198 361.10742 
L 473.653832 363.424866 
L 474.100649 364.154747 
L 474.547465 364.588046 
L 474.994282 364.720433 
L 475.441099 364.550587 
L 475.887916 364.080204 
L 476.334733 363.313984 
L 477.228366 360.927535 
L 478.122 357.486381 
L 479.015634 353.12771 
L 480.356084 345.257795 
L 485.271069 314.178024 
L 486.164703 310.12609 
L 487.058336 307.044744 
L 487.95197 305.05683 
L 488.398787 304.499478 
L 488.845604 304.2416 
L 489.292421 304.285772 
L 489.739237 304.631553 
L 490.186054 305.275489 
L 490.632871 306.211145 
L 491.526505 308.917401 
L 492.420138 312.642431 
L 493.313772 317.237732 
L 494.654223 325.353974 
L 498.675574 351.39702 
L 500.016024 358.050045 
L 500.909658 361.344721 
L 501.803292 363.56806 
L 502.250109 364.248502 
L 502.696925 364.631425 
L 503.143742 364.713003 
L 503.590559 364.492422 
L 504.037376 363.971884 
L 504.484193 363.156593 
L 505.377826 360.677193 
L 506.27146 357.153068 
L 507.165094 352.724714 
L 508.505544 344.781095 
L 512.973712 316.112021 
L 513.867346 311.70195 
L 514.76098 308.199642 
L 515.654613 305.744724 
L 516.10143 304.94237 
L 516.548247 304.435065 
L 516.995064 304.227877 
L 517.441881 304.322877 
L 517.888697 304.719115 
L 518.335514 305.412633 
L 518.782331 306.396501 
L 519.675965 309.193161 
L 520.569598 312.997603 
L 521.910049 320.252547 
L 523.697316 331.771997 
L 526.378217 349.255367 
L 527.718668 356.394017 
L 528.612301 360.097899 
L 529.505935 362.78015 
L 529.952752 363.703028 
L 530.399569 364.333838 
L 530.846385 364.666277 
L 531.293202 364.697023 
L 531.740019 364.425768 
L 532.186836 363.855224 
L 532.633653 362.991091 
L 533.527286 360.419441 
L 534.42092 356.813342 
L 535.314554 352.316558 
L 536.655004 344.30148 
L 537.995455 335.40835 
L 537.995455 335.40835 
" clip-path="url(#p1bb79187db)" style="fill: none; stroke: #4c72b0; stroke-width: 1.5; stroke-linecap: round"/>
   </g>
   <g id="line2d_13">
    <path d="M 88.944545 334.471837 
L 91.17863 348.974065 
L 92.51908 356.171269 
L 93.412714 359.925643 
L 94.306347 362.665253 
L 94.753164 363.61868 
L 95.199981 364.280882 
L 95.646798 364.645241 
L 96.093615 364.708117 
L 96.540431 364.468883 
L 96.987248 363.929928 
L 97.434065 363.096637 
L 98.327699 360.583211 
L 99.221332 357.028807 
L 100.114966 352.575127 
L 101.455417 344.604953 
L 105.923585 315.963638 
L 106.817218 311.579183 
L 107.710852 308.107385 
L 108.604486 305.686656 
L 109.051303 304.902353 
L 109.498119 304.4135 
L 109.944936 304.224979 
L 110.391753 304.338675 
L 110.83857 304.753452 
L 111.285387 305.465165 
L 111.732204 306.466703 
L 112.625837 309.29643 
L 113.519471 313.129821 
L 114.859921 320.418002 
L 116.647189 331.95845 
L 119.32809 349.41836 
L 120.66854 356.522551 
L 121.562174 360.196846 
L 122.455807 362.845565 
L 122.902624 363.750612 
L 123.349441 364.363114 
L 123.796258 364.676953 
L 124.243075 364.688992 
L 124.689891 364.399111 
L 125.136708 363.810207 
L 125.583525 362.928163 
L 126.477159 360.322752 
L 127.370792 356.686746 
L 128.264426 352.165101 
L 129.604877 344.1243 
L 134.073045 315.563963 
L 134.966678 311.249971 
L 135.860312 307.861762 
L 136.753946 305.534413 
L 137.200763 304.799321 
L 137.647579 304.360708 
L 138.094396 304.222954 
L 138.541213 304.387438 
L 138.98803 304.852515 
L 139.434847 305.613538 
L 140.32848 307.990127 
L 141.222114 311.422459 
L 142.115748 315.773697 
L 143.456198 323.635695 
L 148.371183 354.725772 
L 149.264817 358.785655 
L 150.15845 361.876223 
L 151.052084 363.874265 
L 151.498901 364.436895 
L 151.945718 364.700125 
L 152.392535 364.661323 
L 152.839351 364.320878 
L 153.286168 363.682191 
L 153.732985 362.751644 
L 154.626619 360.054984 
L 155.520252 356.338404 
L 156.413886 351.750073 
L 157.754336 343.640918 
L 161.775688 317.591214 
L 163.116138 310.927326 
L 164.009772 307.623663 
L 164.903406 305.390352 
L 165.350223 304.704679 
L 165.797039 304.316428 
L 166.243856 304.229481 
L 166.690673 304.444706 
L 167.13749 304.959951 
L 167.584307 305.77007 
L 168.47794 308.239683 
L 169.371574 311.755089 
L 170.265208 316.176141 
L 171.605658 324.112079 
L 176.073826 352.78892 
L 176.96746 357.206315 
L 177.861094 360.717358 
L 178.754727 363.182075 
L 179.201544 363.989606 
L 179.648361 364.502205 
L 180.095178 364.714751 
L 180.541995 364.625119 
L 180.988811 364.234206 
L 181.435628 363.545917 
L 181.882445 362.56713 
L 182.776079 359.779982 
L 183.669712 355.983879 
L 185.010163 348.738529 
L 186.79743 337.22519 
L 189.478331 319.735208 
L 190.818782 312.586715 
L 191.712415 308.874364 
L 192.606049 306.182505 
L 193.052866 305.254513 
L 193.499682 304.618452 
L 193.946499 304.280675 
L 194.393316 304.244559 
L 194.840133 304.510463 
L 195.28695 305.075732 
L 195.733767 305.934717 
L 196.6274 308.496655 
L 197.521034 312.094142 
L 198.414668 316.583757 
L 199.755118 324.591392 
L 204.223286 353.191088 
L 205.11692 357.538603 
L 206.010554 360.96652 
L 206.904187 363.338177 
L 207.351004 364.096601 
L 207.797821 364.559024 
L 208.244638 364.720826 
L 208.691455 364.58039 
L 209.138271 364.139119 
L 209.585088 363.401423 
L 210.031905 362.374672 
L 210.925539 359.497826 
L 211.819172 355.623273 
L 213.159623 348.288027 
L 214.94689 336.718305 
L 217.627791 319.293122 
L 218.968242 312.238702 
L 219.861875 308.606981 
L 220.755509 306.006409 
L 221.202326 305.126935 
L 221.649142 304.540665 
L 222.095959 304.253458 
L 222.542776 304.268182 
L 222.989593 304.584692 
L 223.43641 305.199823 
L 223.883227 306.107432 
L 224.77686 308.760971 
L 225.670494 312.439522 
L 226.564128 316.996431 
L 227.904578 325.073499 
L 232.372746 353.587963 
L 233.26638 357.86437 
L 234.160014 361.208191 
L 235.053647 363.486118 
L 235.500464 364.19522 
L 235.947281 364.607337 
L 236.394098 364.718349 
L 236.840915 364.527148 
L 237.287731 364.035645 
L 237.734548 363.24875 
L 238.628182 360.823106 
L 239.521815 357.346921 
L 240.415449 352.958778 
L 241.7559 345.057578 
L 246.670885 314.019827 
L 247.564518 309.999683 
L 248.458152 306.955167 
L 249.351786 305.007653 
L 249.798602 304.471341 
L 250.245419 304.234784 
L 250.692236 304.300345 
L 251.139053 304.66737 
L 251.58587 305.332191 
L 252.032687 306.288166 
L 252.92632 309.032556 
L 253.819954 312.79113 
L 255.160404 319.993191 
L 256.947672 331.478691 
L 259.628573 348.997637 
L 260.969023 356.189978 
L 261.862657 359.940148 
L 262.75629 362.674977 
L 263.203107 363.625855 
L 263.649924 364.285436 
L 264.096741 364.647129 
L 264.543558 364.707321 
L 264.990374 364.465409 
L 265.437191 363.923812 
L 265.884008 363.08794 
L 266.777642 360.569637 
L 267.671275 357.010898 
L 268.564909 352.553597 
L 269.90536 344.579635 
L 274.373528 315.942395 
L 275.267161 311.561631 
L 276.160795 308.094224 
L 277.054429 305.67841 
L 277.501246 304.896702 
L 277.948062 304.410499 
L 278.394879 304.224659 
L 278.841696 304.341038 
L 279.288513 304.758475 
L 279.73533 305.472797 
L 280.182147 306.476869 
L 281.07578 309.311334 
L 281.969414 313.148869 
L 283.309864 320.441798 
L 285.097132 331.985225 
L 287.778033 349.441711 
L 289.118483 356.540934 
L 290.012117 360.210969 
L 290.90575 362.854867 
L 291.352567 363.75735 
L 291.799384 364.367223 
L 292.246201 364.67839 
L 292.693018 364.687744 
L 293.139834 364.39519 
L 293.586651 363.803652 
L 294.033468 362.91904 
L 294.927102 360.30879 
L 295.820735 356.668502 
L 296.714369 352.143303 
L 298.05482 344.098835 
L 302.522988 315.543 
L 303.416621 311.232764 
L 304.310255 307.848997 
L 305.203889 305.526599 
L 305.650706 304.794112 
L 306.097522 304.358156 
L 306.544339 304.223085 
L 306.991156 304.39025 
L 307.437973 304.85798 
L 307.88479 305.621602 
L 308.778423 308.003122 
L 309.672057 311.439867 
L 310.565691 315.794823 
L 311.906141 323.660782 
L 316.821126 354.745719 
L 317.71476 358.801629 
L 318.608393 361.887587 
L 319.502027 363.880566 
L 319.948844 364.440557 
L 320.395661 364.701111 
L 320.842478 364.659624 
L 321.289294 364.316511 
L 321.736111 363.675199 
L 322.182928 362.742098 
L 323.076562 360.040638 
L 323.970195 356.319831 
L 324.863829 351.728014 
L 326.20428 343.615312 
L 330.225631 317.568927 
L 331.566081 310.910468 
L 332.459715 307.611297 
L 333.353349 305.382971 
L 333.800166 304.699913 
L 334.246982 304.314327 
L 334.693799 304.230064 
L 335.140616 304.447967 
L 335.587433 304.965858 
L 336.03425 305.778564 
L 336.927883 308.253071 
L 337.821517 311.772838 
L 338.715151 316.197543 
L 340.055601 324.137325 
L 344.523769 352.810293 
L 345.417403 357.224028 
L 346.311037 360.730705 
L 347.20467 363.190524 
L 347.651487 363.995466 
L 348.098304 364.505419 
L 348.545121 364.715285 
L 348.991938 364.62297 
L 349.438754 364.229394 
L 349.885571 363.53849 
L 350.332388 362.557162 
L 351.226022 359.765257 
L 352.119655 355.964983 
L 353.460106 348.714833 
L 355.247373 337.198434 
L 357.928274 319.711751 
L 359.268725 312.568177 
L 360.162358 308.860059 
L 361.055992 306.173003 
L 361.502809 305.247568 
L 361.949626 304.614132 
L 362.396442 304.279024 
L 362.843259 304.245593 
L 363.290076 304.514172 
L 363.736893 305.082079 
L 364.18371 305.943638 
L 365.077343 308.510433 
L 365.970977 312.112228 
L 366.864611 316.605429 
L 368.205061 324.616789 
L 372.673229 353.212184 
L 373.566863 357.555974 
L 374.460497 360.979473 
L 375.35413 363.346196 
L 375.800947 364.10202 
L 376.247764 364.561789 
L 376.694581 364.720909 
L 377.141398 364.577791 
L 377.588214 364.133863 
L 378.035031 363.393563 
L 378.928665 361.056317 
L 379.822299 357.659232 
L 380.715932 353.337739 
L 382.056383 345.507518 
L 386.971368 314.377367 
L 387.865001 310.285948 
L 388.758635 307.158744 
L 389.652269 305.120427 
L 390.099085 304.536792 
L 390.545902 304.252257 
L 390.992719 304.269667 
L 391.439536 304.588847 
L 391.886353 305.206608 
L 392.33317 306.116778 
L 393.226803 308.775135 
L 394.120437 312.457939 
L 395.014071 317.018367 
L 396.354521 325.099039 
L 400.822689 353.608777 
L 401.716323 357.881394 
L 402.609957 361.220746 
L 403.50359 363.493704 
L 403.950407 364.200196 
L 404.397224 364.609652 
L 404.844041 364.71798 
L 405.290858 364.5241 
L 405.737674 364.029947 
L 406.184491 363.240459 
L 407.078125 360.809904 
L 407.971758 357.329333 
L 408.865392 352.937506 
L 410.205843 345.032407 
L 415.120828 314.000041 
L 416.014461 309.983902 
L 416.908095 306.944019 
L 417.801729 305.001584 
L 418.248545 304.467915 
L 418.695362 304.234035 
L 419.142179 304.302281 
L 419.588996 304.671971 
L 420.035813 305.339412 
L 420.48263 306.297935 
L 421.376263 309.047102 
L 422.269897 312.809874 
L 423.610347 320.016785 
L 425.397615 331.505426 
L 428.078516 349.021197 
L 429.418966 356.20867 
L 430.3126 359.954634 
L 431.206233 362.684679 
L 431.65305 363.633008 
L 432.099867 364.289967 
L 432.546684 364.648994 
L 432.993501 364.7065 
L 433.440318 364.461912 
L 433.887134 363.917673 
L 434.333951 363.079221 
L 435.227585 360.556043 
L 436.121218 356.992971 
L 437.014852 352.532052 
L 438.355303 344.55431 
L 442.823471 315.921167 
L 443.717104 311.544097 
L 444.610738 308.081084 
L 445.504372 305.670187 
L 445.951189 304.891074 
L 446.398005 304.407521 
L 446.844822 304.224361 
L 447.291639 304.343424 
L 447.738456 304.763521 
L 448.185273 305.480452 
L 448.63209 306.487057 
L 449.525723 309.326257 
L 450.419357 313.167933 
L 451.759807 320.465605 
L 453.547075 332.012001 
L 456.227976 349.465051 
L 457.568426 356.559299 
L 458.46206 360.225072 
L 459.355693 362.864146 
L 459.80251 363.764066 
L 460.249327 364.371308 
L 460.696144 364.679804 
L 461.142961 364.686472 
L 461.589777 364.391246 
L 462.036594 363.797074 
L 462.483411 362.909895 
L 463.377045 360.294808 
L 464.270678 356.650242 
L 465.164312 352.121492 
L 466.504763 344.073362 
L 470.972931 315.522051 
L 471.866564 311.215575 
L 472.760198 307.836253 
L 473.653832 305.518807 
L 474.100649 304.788926 
L 474.547465 304.355628 
L 474.994282 304.22324 
L 475.441099 304.393086 
L 475.887916 304.863469 
L 476.334733 305.629689 
L 477.228366 308.016138 
L 478.122 311.457292 
L 479.015634 315.815963 
L 480.356084 323.685878 
L 485.271069 354.765649 
L 486.164703 358.817583 
L 487.058336 361.898929 
L 487.95197 363.886843 
L 488.398787 364.444195 
L 488.845604 364.702074 
L 489.292421 364.657902 
L 489.739237 364.31212 
L 490.186054 363.668185 
L 490.632871 362.732529 
L 491.526505 360.026273 
L 492.420138 356.301242 
L 493.313772 351.705942 
L 494.654223 343.589699 
L 498.675574 317.546653 
L 500.016024 310.893628 
L 500.909658 307.598952 
L 501.803292 305.375613 
L 502.250109 304.695171 
L 502.696925 304.312249 
L 503.143742 304.23067 
L 503.590559 304.451252 
L 504.037376 304.971789 
L 504.484193 305.787081 
L 505.377826 308.266481 
L 506.27146 311.790605 
L 507.165094 316.218959 
L 508.505544 324.162578 
L 512.973712 352.831652 
L 513.867346 357.241724 
L 514.76098 360.744031 
L 515.654613 363.19895 
L 516.10143 364.001304 
L 516.548247 364.508609 
L 516.995064 364.715796 
L 517.441881 364.620796 
L 517.888697 364.224558 
L 518.335514 363.53104 
L 518.782331 362.547173 
L 519.675965 359.750512 
L 520.569598 355.94607 
L 521.910049 348.691126 
L 523.697316 337.171677 
L 526.378217 319.688307 
L 527.718668 312.549656 
L 528.612301 308.845775 
L 529.505935 306.163523 
L 529.952752 305.240645 
L 530.399569 304.609835 
L 530.846385 304.277396 
L 531.293202 304.246651 
L 531.740019 304.517905 
L 532.186836 305.088449 
L 532.633653 305.952582 
L 533.527286 308.524232 
L 534.42092 312.130331 
L 535.314554 316.627115 
L 536.655004 324.642193 
L 537.995455 333.535323 
L 537.995455 333.535323 
" clip-path="url(#p1bb79187db)" style="fill: none; stroke: #dd8452; stroke-width: 1.5; stroke-linecap: round"/>
   </g>
   <g id="patch_3">
    <path d="M 66.492 381.348 
L 66.492 15.552 
" style="fill: none; stroke: #ffffff; stroke-width: 1.25; stroke-linejoin: miter; stroke-linecap: square"/>
   </g>
   <g id="patch_4">
    <path d="M 560.448 381.348 
L 560.448 15.552 
" style="fill: none; stroke: #ffffff; stroke-width: 1.25; stroke-linejoin: miter; stroke-linecap: square"/>
   </g>
   <g id="patch_5">
    <path d="M 66.492 381.348 
L 560.448 381.348 
" style="fill: none; stroke: #ffffff; stroke-width: 1.25; stroke-linejoin: miter; stroke-linecap: square"/>
   </g>
   <g id="patch_6">
    <path d="M 66.492 15.552 
L 560.448 15.552 
" style="fill: none; stroke: #ffffff; stroke-width: 1.25; stroke-linejoin: miter; stroke-linecap: square"/>
   </g>
  </g>
 </g>
 <defs>
  <clipPath id="p1bb79187db">
   <rect x="66.492" y="15.552" width="493.956" height="365.796"/>
  </clipPath>
 </defs>
</svg>
