<?xml version="1.0" encoding="utf-8" standalone="no"?>
<!DOCTYPE svg PUBLIC "-//W3C//DTD SVG 1.1//EN"
  "http://www.w3.org/Graphics/SVG/1.1/DTD/svg11.dtd">
<svg xmlns:xlink="http://www.w3.org/1999/xlink" width="576pt" height="432pt" viewBox="0 0 576 432" xmlns="http://www.w3.org/2000/svg" version="1.1">
 <metadata>
  <rdf:RDF xmlns:dc="http://purl.org/dc/elements/1.1/" xmlns:cc="http://creativecommons.org/ns#" xmlns:rdf="http://www.w3.org/1999/02/22-rdf-syntax-ns#">
   <cc:Work>
    <dc:type rdf:resource="http://purl.org/dc/dcmitype/StillImage"/>
    <dc:date>2023-05-14T13:10:35.596341</dc:date>
    <dc:format>image/svg+xml</dc:format>
    <dc:creator>
     <cc:Agent>
      <dc:title>Matplotlib v3.7.1, https://matplotlib.org/</dc:title>
     </cc:Agent>
    </dc:creator>
   </cc:Work>
  </rdf:RDF>
 </metadata>
 <defs>
  <style type="text/css">*{stroke-linejoin: round; stroke-linecap: butt}</style>
 </defs>
 <g id="figure_1">
  <g id="patch_1">
   <path d="M 0 432 
L 576 432 
L 576 0 
L 0 0 
z
" style="fill: #ffffff"/>
  </g>
  <g id="axes_1">
   <g id="patch_2">
    <path d="M 73.062 381.348 
L 560.448 381.348 
L 560.448 15.552 
L 73.062 15.552 
z
" style="fill: #eaeaf2"/>
   </g>
   <g id="matplotlib.axis_1">
    <g id="xtick_1">
     <g id="line2d_1">
      <path d="M 95.215909 381.348 
L 95.215909 15.552 
" clip-path="url(#pbf82124408)" style="fill: none; stroke: #ffffff; stroke-linecap: round"/>
     </g>
     <g id="text_1">
      <!-- 0 -->
      <g style="fill: #262626" transform="translate(91.915909 399.923) scale(0.132 -0.132)">
       <defs>
        <path id="SimHei-30" d="M 225 2537 
Q 250 3200 412 3587 
Q 575 3975 875 4225 
Q 1175 4475 1612 4475 
Q 2050 4475 2375 4112 
Q 2700 3750 2800 3200 
Q 2900 2650 2862 1937 
Q 2825 1225 2612 775 
Q 2400 325 1975 150 
Q 1550 -25 1125 187 
Q 700 400 525 750 
Q 350 1100 275 1487 
Q 200 1875 225 2537 
z
M 750 2687 
Q 675 2000 800 1462 
Q 925 925 1212 700 
Q 1500 475 1800 612 
Q 2100 750 2237 1162 
Q 2375 1575 2375 2062 
Q 2375 2550 2337 2950 
Q 2300 3350 2112 3675 
Q 1925 4000 1612 4012 
Q 1300 4025 1062 3700 
Q 825 3375 750 2687 
z
" transform="scale(0.015625)"/>
       </defs>
       <use xlink:href="#SimHei-30"/>
      </g>
     </g>
    </g>
    <g id="xtick_2">
     <g id="line2d_2">
      <path d="M 183.390672 381.348 
L 183.390672 15.552 
" clip-path="url(#pbf82124408)" style="fill: none; stroke: #ffffff; stroke-linecap: round"/>
     </g>
     <g id="text_2">
      <!-- 20 -->
      <g style="fill: #262626" transform="translate(176.790672 399.923) scale(0.132 -0.132)">
       <defs>
        <path id="SimHei-32" d="M 300 250 
Q 325 625 650 925 
Q 975 1225 1475 1862 
Q 1975 2500 2125 2850 
Q 2275 3200 2237 3450 
Q 2200 3700 2000 3862 
Q 1800 4025 1537 4000 
Q 1275 3975 1037 3800 
Q 800 3625 675 3275 
L 200 3350 
Q 400 3925 712 4187 
Q 1025 4450 1450 4475 
Q 1700 4500 1900 4462 
Q 2100 4425 2312 4287 
Q 2525 4150 2662 3875 
Q 2800 3600 2762 3212 
Q 2725 2825 2375 2287 
Q 2025 1750 1025 600 
L 2825 600 
L 2825 150 
L 300 150 
L 300 250 
z
" transform="scale(0.015625)"/>
       </defs>
       <use xlink:href="#SimHei-32"/>
       <use xlink:href="#SimHei-30" x="50"/>
      </g>
     </g>
    </g>
    <g id="xtick_3">
     <g id="line2d_3">
      <path d="M 271.565434 381.348 
L 271.565434 15.552 
" clip-path="url(#pbf82124408)" style="fill: none; stroke: #ffffff; stroke-linecap: round"/>
     </g>
     <g id="text_3">
      <!-- 40 -->
      <g style="fill: #262626" transform="translate(264.965434 399.923) scale(0.132 -0.132)">
       <defs>
        <path id="SimHei-34" d="M 2000 1100 
L 75 1100 
L 75 1525 
L 2100 4450 
L 2475 4450 
L 2475 1525 
L 3075 1525 
L 3075 1100 
L 2475 1100 
L 2475 150 
L 2000 150 
L 2000 1100 
z
M 2000 1525 
L 2000 3500 
L 600 1525 
L 2000 1525 
z
" transform="scale(0.015625)"/>
       </defs>
       <use xlink:href="#SimHei-34"/>
       <use xlink:href="#SimHei-30" x="50"/>
      </g>
     </g>
    </g>
    <g id="xtick_4">
     <g id="line2d_4">
      <path d="M 359.740197 381.348 
L 359.740197 15.552 
" clip-path="url(#pbf82124408)" style="fill: none; stroke: #ffffff; stroke-linecap: round"/>
     </g>
     <g id="text_4">
      <!-- 60 -->
      <g style="fill: #262626" transform="translate(353.140197 399.923) scale(0.132 -0.132)">
       <defs>
        <path id="SimHei-36" d="M 250 1612 
Q 275 1975 387 2225 
Q 500 2475 725 2850 
L 1750 4450 
L 2325 4450 
L 1275 2800 
Q 1950 2975 2350 2750 
Q 2750 2525 2887 2237 
Q 3025 1950 3037 1612 
Q 3050 1275 2937 950 
Q 2825 625 2537 362 
Q 2250 100 1737 75 
Q 1225 50 862 262 
Q 500 475 362 862 
Q 225 1250 250 1612 
z
M 1025 787 
Q 1250 550 1625 525 
Q 2000 500 2250 775 
Q 2500 1050 2500 1575 
Q 2500 2100 2187 2300 
Q 1875 2500 1487 2450 
Q 1100 2400 925 2075 
Q 750 1750 775 1387 
Q 800 1025 1025 787 
z
" transform="scale(0.015625)"/>
       </defs>
       <use xlink:href="#SimHei-36"/>
       <use xlink:href="#SimHei-30" x="50"/>
      </g>
     </g>
    </g>
    <g id="xtick_5">
     <g id="line2d_5">
      <path d="M 447.914959 381.348 
L 447.914959 15.552 
" clip-path="url(#pbf82124408)" style="fill: none; stroke: #ffffff; stroke-linecap: round"/>
     </g>
     <g id="text_5">
      <!-- 80 -->
      <g style="fill: #262626" transform="translate(441.314959 399.923) scale(0.132 -0.132)">
       <defs>
        <path id="SimHei-38" d="M 175 1375 
Q 175 1675 325 1962 
Q 475 2250 825 2425 
Q 525 2600 425 2812 
Q 325 3025 312 3300 
Q 300 3575 387 3775 
Q 475 3975 650 4150 
Q 825 4325 1037 4387 
Q 1250 4450 1500 4450 
Q 1750 4450 1950 4400 
Q 2150 4350 2375 4187 
Q 2600 4025 2700 3725 
Q 2800 3425 2687 3025 
Q 2575 2625 2100 2400 
Q 2525 2275 2700 2012 
Q 2875 1750 2875 1375 
Q 2875 1000 2762 775 
Q 2650 550 2512 400 
Q 2375 250 2137 162 
Q 1900 75 1537 75 
Q 1175 75 912 162 
Q 650 250 475 425 
Q 300 600 237 837 
Q 175 1075 175 1375 
z
M 687 1400 
Q 675 1100 787 875 
Q 900 650 1200 587 
Q 1500 525 1825 600 
Q 2150 675 2275 950 
Q 2400 1225 2362 1500 
Q 2325 1775 2050 1962 
Q 1775 2150 1450 2125 
Q 1125 2100 912 1900 
Q 700 1700 687 1400 
z
M 775 3350 
Q 775 3100 950 2875 
Q 1125 2650 1500 2650 
Q 1875 2650 2062 2875 
Q 2250 3100 2237 3412 
Q 2225 3725 2012 3875 
Q 1800 4025 1437 4000 
Q 1075 3975 925 3787 
Q 775 3600 775 3350 
z
" transform="scale(0.015625)"/>
       </defs>
       <use xlink:href="#SimHei-38"/>
       <use xlink:href="#SimHei-30" x="50"/>
      </g>
     </g>
    </g>
    <g id="xtick_6">
     <g id="line2d_6">
      <path d="M 536.089722 381.348 
L 536.089722 15.552 
" clip-path="url(#pbf82124408)" style="fill: none; stroke: #ffffff; stroke-linecap: round"/>
     </g>
     <g id="text_6">
      <!-- 100 -->
      <g style="fill: #262626" transform="translate(526.189722 399.923) scale(0.132 -0.132)">
       <defs>
        <path id="SimHei-31" d="M 1400 3600 
Q 1075 3275 575 2975 
L 575 3450 
Q 1200 3875 1600 4450 
L 1900 4450 
L 1900 150 
L 1400 150 
L 1400 3600 
z
" transform="scale(0.015625)"/>
       </defs>
       <use xlink:href="#SimHei-31"/>
       <use xlink:href="#SimHei-30" x="50"/>
       <use xlink:href="#SimHei-30" x="100"/>
      </g>
     </g>
    </g>
    <g id="text_7">
     <!-- Time/ms -->
     <g style="fill: #262626" transform="translate(291.555 415.473) scale(0.144 -0.144)">
      <defs>
       <path id="SimHei-54" d="M 2850 3925 
L 1850 3925 
L 1850 125 
L 1275 125 
L 1275 3925 
L 275 3925 
L 275 4400 
L 2850 4400 
L 2850 3925 
z
" transform="scale(0.015625)"/>
       <path id="SimHei-69" d="M 1800 3725 
L 1300 3725 
L 1300 4375 
L 1800 4375 
L 1800 3725 
z
M 1800 125 
L 1300 125 
L 1300 2925 
L 1800 2925 
L 1800 125 
z
" transform="scale(0.015625)"/>
       <path id="SimHei-6d" d="M 3050 125 
L 2550 125 
L 2550 2150 
Q 2550 2300 2500 2400 
Q 2450 2500 2300 2500 
Q 2125 2500 1975 2312 
Q 1825 2125 1825 1825 
L 1825 125 
L 1325 125 
L 1325 2150 
Q 1325 2300 1275 2400 
Q 1225 2500 1075 2500 
Q 900 2500 750 2312 
Q 600 2125 600 1825 
L 600 125 
L 100 125 
L 100 2925 
L 600 2925 
L 600 2550 
Q 725 2750 900 2862 
Q 1075 2975 1275 2975 
Q 1475 2975 1612 2862 
Q 1750 2750 1800 2550 
Q 1925 2750 2087 2862 
Q 2250 2975 2450 2975 
Q 2750 2975 2900 2812 
Q 3050 2650 3050 2350 
L 3050 125 
z
" transform="scale(0.015625)"/>
       <path id="SimHei-65" d="M 2850 1075 
Q 2800 625 2450 350 
Q 2100 75 1625 75 
Q 1025 75 637 462 
Q 250 850 250 1525 
Q 250 2200 637 2587 
Q 1025 2975 1625 2975 
Q 2150 2975 2487 2637 
Q 2825 2300 2825 1525 
L 800 1525 
Q 800 975 1037 750 
Q 1275 525 1625 525 
Q 1900 525 2075 662 
Q 2250 800 2300 1075 
L 2850 1075 
z
M 2250 1925 
Q 2200 2275 2025 2412 
Q 1850 2550 1575 2550 
Q 1325 2550 1125 2412 
Q 925 2275 825 1925 
L 2250 1925 
z
" transform="scale(0.015625)"/>
       <path id="SimHei-2f" d="M 3000 4550 
L 350 -175 
L 100 -25 
L 2750 4700 
L 3000 4550 
z
" transform="scale(0.015625)"/>
       <path id="SimHei-73" d="M 2750 900 
Q 2750 500 2437 287 
Q 2125 75 1650 75 
Q 1050 75 725 312 
Q 400 550 400 1000 
L 900 1000 
Q 900 700 1112 600 
Q 1325 500 1625 500 
Q 1925 500 2075 612 
Q 2225 725 2225 900 
Q 2225 1025 2100 1150 
Q 1975 1275 1475 1350 
Q 900 1425 687 1637 
Q 475 1850 475 2200 
Q 475 2500 762 2737 
Q 1050 2975 1600 2975 
Q 2100 2975 2387 2750 
Q 2675 2525 2675 2150 
L 2175 2150 
Q 2175 2375 2012 2462 
Q 1850 2550 1600 2550 
Q 1275 2550 1137 2437 
Q 1000 2325 1000 2175 
Q 1000 2000 1125 1900 
Q 1250 1800 1650 1750 
Q 2300 1650 2525 1437 
Q 2750 1225 2750 900 
z
" transform="scale(0.015625)"/>
      </defs>
      <use xlink:href="#SimHei-54"/>
      <use xlink:href="#SimHei-69" x="50"/>
      <use xlink:href="#SimHei-6d" x="100"/>
      <use xlink:href="#SimHei-65" x="150"/>
      <use xlink:href="#SimHei-2f" x="200"/>
      <use xlink:href="#SimHei-6d" x="250"/>
      <use xlink:href="#SimHei-73" x="300"/>
     </g>
    </g>
   </g>
   <g id="matplotlib.axis_2">
    <g id="ytick_1">
     <g id="line2d_7">
      <path d="M 73.062 364.761622 
L 560.448 364.761622 
" clip-path="url(#pbf82124408)" style="fill: none; stroke: #ffffff; stroke-linecap: round"/>
     </g>
     <g id="text_8">
      <!-- -8000 -->
      <g style="fill: #262626" transform="translate(30.562 369.299122) scale(0.132 -0.132)">
       <defs>
        <path id="SimHei-2d" d="M 2975 2125 
L 125 2125 
L 125 2525 
L 2975 2525 
L 2975 2125 
z
" transform="scale(0.015625)"/>
       </defs>
       <use xlink:href="#SimHei-2d"/>
       <use xlink:href="#SimHei-38" x="50"/>
       <use xlink:href="#SimHei-30" x="100"/>
       <use xlink:href="#SimHei-30" x="150"/>
       <use xlink:href="#SimHei-30" x="200"/>
      </g>
     </g>
    </g>
    <g id="ytick_2">
     <g id="line2d_8">
      <path d="M 73.062 323.188732 
L 560.448 323.188732 
" clip-path="url(#pbf82124408)" style="fill: none; stroke: #ffffff; stroke-linecap: round"/>
     </g>
     <g id="text_9">
      <!-- -6000 -->
      <g style="fill: #262626" transform="translate(30.562 327.726232) scale(0.132 -0.132)">
       <use xlink:href="#SimHei-2d"/>
       <use xlink:href="#SimHei-36" x="50"/>
       <use xlink:href="#SimHei-30" x="100"/>
       <use xlink:href="#SimHei-30" x="150"/>
       <use xlink:href="#SimHei-30" x="200"/>
      </g>
     </g>
    </g>
    <g id="ytick_3">
     <g id="line2d_9">
      <path d="M 73.062 281.615843 
L 560.448 281.615843 
" clip-path="url(#pbf82124408)" style="fill: none; stroke: #ffffff; stroke-linecap: round"/>
     </g>
     <g id="text_10">
      <!-- -4000 -->
      <g style="fill: #262626" transform="translate(30.562 286.153343) scale(0.132 -0.132)">
       <use xlink:href="#SimHei-2d"/>
       <use xlink:href="#SimHei-34" x="50"/>
       <use xlink:href="#SimHei-30" x="100"/>
       <use xlink:href="#SimHei-30" x="150"/>
       <use xlink:href="#SimHei-30" x="200"/>
      </g>
     </g>
    </g>
    <g id="ytick_4">
     <g id="line2d_10">
      <path d="M 73.062 240.042954 
L 560.448 240.042954 
" clip-path="url(#pbf82124408)" style="fill: none; stroke: #ffffff; stroke-linecap: round"/>
     </g>
     <g id="text_11">
      <!-- -2000 -->
      <g style="fill: #262626" transform="translate(30.562 244.580454) scale(0.132 -0.132)">
       <use xlink:href="#SimHei-2d"/>
       <use xlink:href="#SimHei-32" x="50"/>
       <use xlink:href="#SimHei-30" x="100"/>
       <use xlink:href="#SimHei-30" x="150"/>
       <use xlink:href="#SimHei-30" x="200"/>
      </g>
     </g>
    </g>
    <g id="ytick_5">
     <g id="line2d_11">
      <path d="M 73.062 198.470064 
L 560.448 198.470064 
" clip-path="url(#pbf82124408)" style="fill: none; stroke: #ffffff; stroke-linecap: round"/>
     </g>
     <g id="text_12">
      <!-- 0 -->
      <g style="fill: #262626" transform="translate(56.962 203.007564) scale(0.132 -0.132)">
       <use xlink:href="#SimHei-30"/>
      </g>
     </g>
    </g>
    <g id="ytick_6">
     <g id="line2d_12">
      <path d="M 73.062 156.897175 
L 560.448 156.897175 
" clip-path="url(#pbf82124408)" style="fill: none; stroke: #ffffff; stroke-linecap: round"/>
     </g>
     <g id="text_13">
      <!-- 2000 -->
      <g style="fill: #262626" transform="translate(37.162 161.434675) scale(0.132 -0.132)">
       <use xlink:href="#SimHei-32"/>
       <use xlink:href="#SimHei-30" x="50"/>
       <use xlink:href="#SimHei-30" x="100"/>
       <use xlink:href="#SimHei-30" x="150"/>
      </g>
     </g>
    </g>
    <g id="ytick_7">
     <g id="line2d_13">
      <path d="M 73.062 115.324286 
L 560.448 115.324286 
" clip-path="url(#pbf82124408)" style="fill: none; stroke: #ffffff; stroke-linecap: round"/>
     </g>
     <g id="text_14">
      <!-- 4000 -->
      <g style="fill: #262626" transform="translate(37.162 119.861786) scale(0.132 -0.132)">
       <use xlink:href="#SimHei-34"/>
       <use xlink:href="#SimHei-30" x="50"/>
       <use xlink:href="#SimHei-30" x="100"/>
       <use xlink:href="#SimHei-30" x="150"/>
      </g>
     </g>
    </g>
    <g id="ytick_8">
     <g id="line2d_14">
      <path d="M 73.062 73.751397 
L 560.448 73.751397 
" clip-path="url(#pbf82124408)" style="fill: none; stroke: #ffffff; stroke-linecap: round"/>
     </g>
     <g id="text_15">
      <!-- 6000 -->
      <g style="fill: #262626" transform="translate(37.162 78.288897) scale(0.132 -0.132)">
       <use xlink:href="#SimHei-36"/>
       <use xlink:href="#SimHei-30" x="50"/>
       <use xlink:href="#SimHei-30" x="100"/>
       <use xlink:href="#SimHei-30" x="150"/>
      </g>
     </g>
    </g>
    <g id="ytick_9">
     <g id="line2d_15">
      <path d="M 73.062 32.178507 
L 560.448 32.178507 
" clip-path="url(#pbf82124408)" style="fill: none; stroke: #ffffff; stroke-linecap: round"/>
     </g>
     <g id="text_16">
      <!-- 8000 -->
      <g style="fill: #262626" transform="translate(37.162 36.716007) scale(0.132 -0.132)">
       <use xlink:href="#SimHei-38"/>
       <use xlink:href="#SimHei-30" x="50"/>
       <use xlink:href="#SimHei-30" x="100"/>
       <use xlink:href="#SimHei-30" x="150"/>
      </g>
     </g>
    </g>
    <g id="text_17">
     <!-- Current/A -->
     <g style="fill: #262626" transform="translate(24.762 230.85) rotate(-90) scale(0.144 -0.144)">
      <defs>
       <path id="SimHei-43" d="M 2975 1825 
Q 2950 875 2575 475 
Q 2200 75 1675 75 
Q 1075 75 650 562 
Q 225 1050 225 2125 
Q 225 3300 637 3875 
Q 1050 4450 1700 4450 
Q 2250 4450 2612 4037 
Q 2975 3625 2950 2875 
L 2400 2875 
Q 2400 3425 2225 3700 
Q 2050 3975 1700 3975 
Q 1300 3975 1062 3562 
Q 825 3150 825 2175 
Q 825 1275 1062 912 
Q 1300 550 1675 550 
Q 1950 550 2175 812 
Q 2400 1075 2400 1825 
L 2975 1825 
z
" transform="scale(0.015625)"/>
       <path id="SimHei-75" d="M 2800 125 
L 2300 125 
L 2300 650 
Q 2100 375 1862 225 
Q 1625 75 1250 75 
Q 800 75 575 325 
Q 350 575 350 950 
L 350 2925 
L 850 2925 
L 850 1125 
Q 850 825 1000 650 
Q 1150 475 1400 475 
Q 1725 475 2012 812 
Q 2300 1150 2300 1650 
L 2300 2925 
L 2800 2925 
L 2800 125 
z
" transform="scale(0.015625)"/>
       <path id="SimHei-72" d="M 2500 2425 
Q 2025 2500 1700 2287 
Q 1375 2075 1150 1550 
L 1150 125 
L 650 125 
L 650 2925 
L 1150 2925 
L 1150 2200 
Q 1375 2600 1712 2787 
Q 2050 2975 2500 2975 
L 2500 2425 
z
" transform="scale(0.015625)"/>
       <path id="SimHei-6e" d="M 2800 125 
L 2300 125 
L 2300 1925 
Q 2300 2225 2150 2400 
Q 2000 2575 1750 2575 
Q 1425 2575 1137 2237 
Q 850 1900 850 1400 
L 850 125 
L 350 125 
L 350 2925 
L 850 2925 
L 850 2400 
Q 1050 2675 1287 2825 
Q 1525 2975 1900 2975 
Q 2350 2975 2575 2725 
Q 2800 2475 2800 2100 
L 2800 125 
z
" transform="scale(0.015625)"/>
       <path id="SimHei-74" d="M 2750 200 
Q 2625 150 2462 112 
Q 2300 75 2025 75 
Q 1575 75 1300 325 
Q 1025 575 1025 1025 
L 1025 2525 
L 175 2525 
L 175 2925 
L 1025 2925 
L 1025 3900 
L 1525 3900 
L 1525 2925 
L 2550 2925 
L 2550 2525 
L 1525 2525 
L 1525 1000 
Q 1525 800 1625 662 
Q 1725 525 2000 525 
Q 2275 525 2450 575 
Q 2625 625 2750 700 
L 2750 200 
z
" transform="scale(0.015625)"/>
       <path id="SimHei-41" d="M 3075 125 
L 2475 125 
L 2125 1450 
L 1025 1450 
L 675 125 
L 75 125 
L 1325 4450 
L 1825 4450 
L 3075 125 
z
M 2000 1925 
L 1600 3450 
L 1550 3450 
L 1150 1925 
L 2000 1925 
z
" transform="scale(0.015625)"/>
      </defs>
      <use xlink:href="#SimHei-43"/>
      <use xlink:href="#SimHei-75" x="50"/>
      <use xlink:href="#SimHei-72" x="100"/>
      <use xlink:href="#SimHei-72" x="150"/>
      <use xlink:href="#SimHei-65" x="200"/>
      <use xlink:href="#SimHei-6e" x="250"/>
      <use xlink:href="#SimHei-74" x="300"/>
      <use xlink:href="#SimHei-2f" x="350"/>
      <use xlink:href="#SimHei-41" x="400"/>
     </g>
    </g>
   </g>
   <g id="PolyCollection_1"/>
   <g id="PolyCollection_2"/>
   <g id="line2d_16">
    <path d="M 95.215909 198.470064 
L 97.420278 190.497623 
L 98.7429 186.541038 
L 99.624647 184.477112 
L 100.506395 182.971041 
L 101.388142 182.082867 
L 101.829016 181.882565 
L 102.26989 181.847999 
L 102.710764 181.979516 
L 103.151638 182.275801 
L 104.033385 183.349216 
L 104.915133 185.025452 
L 105.796881 187.237682 
L 107.119502 191.363098 
L 109.323871 199.440777 
L 111.52824 207.280792 
L 112.850862 211.055051 
L 113.732609 212.963634 
L 114.614357 214.294404 
L 115.055231 214.725565 
L 115.496104 214.994307 
L 115.936978 215.097944 
L 116.377852 215.035441 
L 116.818726 214.807422 
L 117.2596 214.416166 
L 118.141347 213.16117 
L 119.023095 211.320485 
L 119.904843 208.967496 
L 121.227464 204.687318 
L 126.077076 187.544932 
L 126.958824 185.272038 
L 127.840571 183.525308 
L 128.722319 182.374378 
L 129.163193 182.037661 
L 129.604066 181.865132 
L 130.04494 181.858513 
L 130.485814 182.017872 
L 130.926688 182.341616 
L 131.808436 183.467709 
L 132.690183 185.191898 
L 133.571931 187.445446 
L 134.894552 191.616882 
L 137.098921 199.719764 
L 138.862417 206.0785 
L 140.185038 210.10839 
L 141.066786 212.23612 
L 141.948533 213.815041 
L 142.830281 214.782206 
L 143.271155 215.023329 
L 143.712028 215.099057 
L 144.152902 215.008634 
L 144.593776 214.752963 
L 145.03465 214.334599 
L 145.916398 213.028095 
L 146.798145 211.141208 
L 147.679893 208.749163 
L 149.002514 204.427115 
L 153.852126 187.335685 
L 154.733874 185.103808 
L 155.615621 183.404802 
L 156.497369 182.3064 
L 156.938243 181.997101 
L 157.379117 181.852393 
L 157.819991 181.873724 
L 158.260864 182.06088 
L 158.701738 182.411991 
L 159.583486 183.590443 
L 160.465233 185.362098 
L 161.346981 187.656327 
L 162.669602 191.872604 
L 164.873972 199.998398 
L 166.637467 206.326043 
L 167.960088 210.306454 
L 168.841836 212.391025 
L 169.723583 213.920612 
L 170.605331 214.834235 
L 171.046205 215.047671 
L 171.487079 215.095469 
L 171.927953 214.977152 
L 172.368826 214.693901 
L 173.250574 213.64554 
L 174.132322 211.992181 
L 175.014069 209.799737 
L 176.336691 205.696524 
L 178.100186 199.2938 
L 180.304555 191.230306 
L 181.627176 187.129585 
L 182.508924 184.939357 
L 183.390672 183.288556 
L 184.272419 182.242993 
L 184.713293 181.961197 
L 185.154167 181.844353 
L 185.595041 181.893627 
L 186.035915 182.108527 
L 186.476788 182.486906 
L 187.358536 183.717384 
L 188.240284 185.536004 
L 189.122031 187.870265 
L 190.444653 192.130191 
L 193.089896 201.917894 
L 194.853391 207.980705 
L 196.176012 211.587114 
L 197.05776 213.356275 
L 197.939507 214.531969 
L 198.380381 214.881637 
L 198.821255 215.067326 
L 199.262129 215.087181 
L 199.703003 214.941002 
L 200.143877 214.630252 
L 201.025624 213.529068 
L 201.907372 211.827529 
L 202.789119 209.59347 
L 204.111741 205.443682 
L 206.31611 197.352451 
L 208.079605 190.979618 
L 209.402227 186.926692 
L 210.283974 184.778732 
L 211.165722 183.176602 
L 212.047469 182.184174 
L 212.488343 181.929962 
L 212.929217 181.841013 
L 213.370091 181.918216 
L 213.810965 182.1608 
L 214.251839 182.56634 
L 215.133586 183.848496 
L 216.015334 185.713567 
L 216.897081 188.0872 
L 218.219703 192.38957 
L 223.069315 209.505736 
L 223.951062 211.757117 
L 224.83281 213.478786 
L 225.714558 214.602104 
L 226.155431 214.924399 
L 226.596305 215.082288 
L 227.037179 215.074194 
L 227.478053 214.900196 
L 227.918927 214.562034 
L 228.800674 213.408338 
L 229.682422 211.659101 
L 230.56417 209.384058 
L 231.886791 205.188869 
L 234.09116 197.07364 
L 235.854655 190.731047 
L 237.177277 186.727063 
L 238.059024 184.621977 
L 238.940772 183.068972 
L 239.82252 182.129959 
L 240.263393 181.903402 
L 240.704267 181.842374 
L 241.145141 181.947485 
L 241.586015 182.217684 
L 242.026889 182.650271 
L 242.908636 183.983742 
L 243.790384 185.894737 
L 244.672132 188.30707 
L 245.994753 192.650669 
L 250.844365 209.713333 
L 251.726113 211.923364 
L 252.60786 213.597053 
L 253.489608 214.667678 
L 253.930482 214.962509 
L 254.371355 215.092554 
L 254.812229 215.056513 
L 255.253103 214.854745 
L 255.693977 214.489267 
L 256.575725 213.283385 
L 257.457472 211.486944 
L 258.33922 209.17156 
L 259.661841 204.932157 
L 262.307084 195.151888 
L 264.070579 189.068351 
L 265.393201 185.434824 
L 266.274948 183.643345 
L 267.156696 182.442961 
L 267.59757 182.080364 
L 268.038444 181.881527 
L 268.479318 181.848437 
L 268.920191 181.981425 
L 269.361065 182.279163 
L 270.242813 183.355368 
L 271.12456 185.034149 
L 272.006308 187.248577 
L 273.328929 191.376453 
L 275.533299 199.455521 
L 277.737668 207.293315 
L 279.060289 211.0647 
L 279.942037 212.970869 
L 280.823784 214.298936 
L 281.264658 214.728672 
L 281.705532 214.995957 
L 282.146406 215.09812 
L 282.58728 215.034142 
L 283.028153 214.804661 
L 283.469027 214.41197 
L 284.350775 213.154244 
L 285.232522 211.311106 
L 286.11427 208.956037 
L 287.436891 204.673617 
L 292.286503 187.533802 
L 293.168251 185.263058 
L 294.049999 183.518836 
L 294.931746 182.370673 
L 295.37262 182.035402 
L 295.813494 181.864341 
L 296.254368 181.859199 
L 296.695242 182.020028 
L 297.136115 182.345219 
L 298.017863 183.474086 
L 298.899611 185.200794 
L 299.781358 187.456507 
L 301.10398 191.630341 
L 303.308349 199.734491 
L 305.071844 206.09163 
L 306.394465 210.118934 
L 307.276213 212.2444 
L 308.157961 213.820726 
L 309.039708 214.785069 
L 309.480582 215.024732 
L 309.921456 215.098985 
L 310.36233 215.007088 
L 310.803204 214.749959 
L 311.244077 214.330166 
L 312.125825 213.020951 
L 313.007573 211.131639 
L 313.88932 208.737549 
L 315.211942 204.413324 
L 316.975437 197.896181 
L 317.857185 159.82827 
L 319.62068 99.894253 
L 320.502427 75.252575 
L 321.384175 55.52319 
L 322.265923 41.492645 
L 322.706796 36.798787 
L 323.14767 33.720295 
L 323.588544 32.287928 
L 324.029418 32.515998 
L 324.470292 34.402226 
L 324.911166 37.927766 
L 325.352039 43.057391 
L 326.233787 57.908369 
L 327.115535 78.363098 
L 327.997282 103.606113 
L 329.319904 148.204805 
L 333.287768 291.391966 
L 334.610389 327.996118 
L 335.492137 346.132949 
L 336.373885 358.382927 
L 336.814758 362.137963 
L 337.255632 364.257684 
L 337.696506 364.720909 
L 338.13738 363.523011 
L 338.578254 360.675958 
L 339.019128 356.208198 
L 339.900875 342.604864 
L 340.782623 323.25533 
L 341.66437 298.931001 
L 342.986992 255.282916 
L 347.39573 97.6564 
L 348.277478 73.392375 
L 349.159225 54.114802 
L 350.040973 40.592218 
L 350.481847 36.167133 
L 350.92272 33.363726 
L 351.363594 32.210006 
L 351.804468 32.717502 
L 352.245342 34.881143 
L 352.686216 38.67931 
L 353.12709 44.074054 
L 354.008837 59.422246 
L 354.890585 80.313836 
L 356.213206 120.170746 
L 357.976701 183.480891 
L 360.621944 279.612022 
L 361.944566 318.883044 
L 362.826313 339.268013 
L 363.708061 354.039813 
L 364.148935 359.127293 
L 364.589809 362.609538 
L 365.030682 364.451757 
L 365.471556 364.635541 
L 365.91243 363.159054 
L 366.353304 360.03705 
L 366.794178 355.300721 
L 367.675925 341.190045 
L 368.557673 321.389574 
L 369.439421 296.688689 
L 370.762042 252.647115 
L 375.17078 95.44705 
L 376.052528 71.567537 
L 376.934275 52.747227 
L 377.816023 39.736428 
L 378.256897 35.581367 
L 378.697771 33.053837 
L 379.138645 32.179091 
L 379.579518 32.965869 
L 380.020392 35.406311 
L 380.461266 39.476032 
L 380.90214 45.134368 
L 381.783887 60.975436 
L 382.665635 82.29798 
L 383.988256 122.648483 
L 385.751752 186.267638 
L 388.396995 282.041109 
L 389.719616 320.794393 
L 390.601364 340.735814 
L 391.483111 355.005548 
L 391.923985 359.826236 
L 392.364859 363.034707 
L 392.805733 364.598902 
L 393.246607 364.503193 
L 393.68748 362.748535 
L 394.128354 359.352461 
L 394.569228 354.348904 
L 395.450976 339.734875 
L 396.332723 319.489065 
L 397.214471 294.418608 
L 398.537092 249.995996 
L 402.94583 93.266827 
L 403.827578 69.778578 
L 404.709326 51.420853 
L 405.591073 38.925515 
L 406.031947 35.041654 
L 406.472821 32.790716 
L 406.913695 32.195191 
L 407.354569 33.261029 
L 407.795442 35.977582 
L 408.236316 40.317705 
L 408.67719 46.238035 
L 409.558938 62.567499 
L 410.440685 84.314969 
L 411.763307 125.147657 
L 413.526802 189.057835 
L 415.731171 269.806668 
L 417.053792 311.011527 
L 417.93554 333.089813 
L 418.817288 349.801235 
L 419.258161 355.927027 
L 419.699035 360.47956 
L 420.139909 363.413349 
L 420.580783 364.699078 
L 421.021657 364.323903 
L 421.462531 362.29157 
L 421.903404 358.622387 
L 422.344278 353.353016 
L 423.226026 338.239766 
L 424.107773 317.55434 
L 425.430395 277.935133 
L 427.19389 214.777582 
L 427.634764 198.440526 
L 429.839133 190.471713 
L 431.161754 186.520477 
L 432.043502 184.461175 
L 432.92525 182.960362 
L 433.806997 182.077873 
L 434.247871 181.880502 
L 434.688745 181.848888 
L 435.129619 181.983348 
L 435.570493 182.282537 
L 436.45224 183.361532 
L 437.333988 185.042857 
L 438.215735 187.259481 
L 439.538357 191.389814 
L 441.742726 199.470264 
L 443.947095 207.30583 
L 445.269716 211.074339 
L 446.151464 212.978092 
L 447.033212 214.303457 
L 447.474085 214.731766 
L 447.914959 214.997594 
L 448.355833 215.098284 
L 448.796707 215.03283 
L 449.237581 214.801887 
L 449.678455 214.407761 
L 450.560202 213.147307 
L 451.44195 211.301717 
L 452.323697 208.94457 
L 453.646319 204.659912 
L 458.495931 187.52268 
L 459.377678 185.254089 
L 460.259426 183.512377 
L 461.141174 182.366981 
L 461.582047 182.033157 
L 462.022921 181.863564 
L 462.463795 181.859898 
L 462.904669 182.022196 
L 463.345543 182.348835 
L 464.22729 183.480475 
L 465.109038 185.209701 
L 465.990786 187.467577 
L 467.313407 191.643806 
L 469.517776 199.749217 
L 471.281271 206.104754 
L 472.603893 210.12947 
L 473.48564 212.252669 
L 474.367388 213.826399 
L 475.249136 214.78792 
L 475.690009 215.026122 
L 476.130883 215.0989 
L 476.571757 215.005529 
L 477.012631 214.746941 
L 477.453505 214.32572 
L 478.335252 213.013796 
L 479.217 211.122059 
L 480.098748 208.725927 
L 481.421369 204.399527 
L 486.270981 187.313762 
L 487.152729 185.086256 
L 488.034476 183.39232 
L 488.916224 182.299486 
L 489.357098 181.993087 
L 489.797972 181.851322 
L 490.238845 181.875605 
L 490.679719 182.065694 
L 491.120593 182.419691 
L 492.002341 183.603655 
L 492.884088 185.380295 
L 493.765836 187.678784 
L 495.088457 191.899729 
L 497.292826 200.027809 
L 499.056322 206.352065 
L 500.378943 210.327183 
L 501.260691 212.407161 
L 502.142438 213.93151 
L 503.024186 214.839461 
L 503.46506 215.049969 
L 503.905934 215.094816 
L 504.346807 214.973553 
L 504.787681 214.687394 
L 505.669429 213.633438 
L 506.551176 211.974967 
L 507.432924 209.778097 
L 508.755545 205.669909 
L 510.519041 199.264297 
L 512.72341 191.203725 
L 514.046031 187.107999 
L 514.927779 184.922207 
L 515.809526 183.276526 
L 516.691274 182.236562 
L 517.132148 181.957677 
L 517.573022 181.843778 
L 518.013896 181.896003 
L 518.454769 182.113831 
L 518.895643 182.495085 
L 519.777391 183.731038 
L 520.659138 185.55459 
L 521.540886 187.893042 
L 522.863507 192.157508 
L 525.50875 201.946785 
L 527.272246 208.004921 
L 528.594867 211.605249 
L 529.476615 213.369416 
L 530.358362 214.539593 
L 530.799236 214.886374 
L 531.24011 215.069128 
L 531.680984 215.086031 
L 532.121858 214.936911 
L 532.562731 214.623261 
L 533.444479 213.516515 
L 534.326227 211.809914 
L 535.207974 209.571495 
L 536.530596 205.416856 
L 538.294091 198.984903 
L 538.294091 198.984903 
" clip-path="url(#pbf82124408)" style="fill: none; stroke: #4c72b0; stroke-width: 1.5; stroke-linecap: round"/>
   </g>
   <g id="line2d_17">
    <path d="M 95.215909 198.470064 
L 97.420278 206.442506 
L 98.7429 210.399091 
L 99.624647 212.463017 
L 100.506395 213.969088 
L 101.388142 214.857262 
L 101.829016 215.057564 
L 102.26989 215.09213 
L 102.710764 214.960613 
L 103.151638 214.664328 
L 104.033385 213.590913 
L 104.915133 211.914677 
L 105.796881 209.702447 
L 107.119502 205.577031 
L 109.323871 197.499352 
L 111.52824 189.659337 
L 112.850862 185.885078 
L 113.732609 183.976495 
L 114.614357 182.645725 
L 115.055231 182.214564 
L 115.496104 181.945822 
L 115.936978 181.842185 
L 116.377852 181.904688 
L 116.818726 182.132707 
L 117.2596 182.523963 
L 118.141347 183.778959 
L 119.023095 185.619643 
L 119.904843 187.972633 
L 121.227464 192.252811 
L 126.077076 209.395197 
L 126.958824 211.668091 
L 127.840571 213.414821 
L 128.722319 214.565751 
L 129.163193 214.902468 
L 129.604066 215.074997 
L 130.04494 215.081616 
L 130.485814 214.922257 
L 130.926688 214.598513 
L 131.808436 213.47242 
L 132.690183 211.748231 
L 133.571931 209.494683 
L 134.894552 205.323247 
L 137.098921 197.220365 
L 138.862417 190.861629 
L 140.185038 186.831739 
L 141.066786 184.704009 
L 141.948533 183.125088 
L 142.830281 182.157923 
L 143.271155 181.9168 
L 143.712028 181.841072 
L 144.152902 181.931495 
L 144.593776 182.187166 
L 145.03465 182.60553 
L 145.916398 183.912034 
L 146.798145 185.798921 
L 147.679893 188.190966 
L 149.002514 192.513014 
L 153.852126 209.604444 
L 154.733874 211.836321 
L 155.615621 213.535327 
L 156.497369 214.633729 
L 156.938243 214.943028 
L 157.379117 215.087736 
L 157.819991 215.066405 
L 158.260864 214.879249 
L 158.701738 214.528138 
L 159.583486 213.349686 
L 160.465233 211.578031 
L 161.346981 209.283802 
L 162.669602 205.067525 
L 164.873972 196.941731 
L 166.637467 190.614086 
L 167.960088 186.633675 
L 168.841836 184.549104 
L 169.723583 183.019517 
L 170.605331 182.105894 
L 171.046205 181.892458 
L 171.487079 181.84466 
L 171.927953 181.962977 
L 172.368826 182.246228 
L 173.250574 183.294589 
L 174.132322 184.947948 
L 175.014069 187.140392 
L 176.336691 191.243605 
L 178.100186 197.646329 
L 180.304555 205.709823 
L 181.627176 209.810544 
L 182.508924 212.000772 
L 183.390672 213.651573 
L 184.272419 214.697136 
L 184.713293 214.978932 
L 185.154167 215.095776 
L 185.595041 215.046502 
L 186.035915 214.831602 
L 186.476788 214.453223 
L 187.358536 213.222745 
L 188.240284 211.404125 
L 189.122031 209.069864 
L 190.444653 204.809938 
L 193.089896 195.022235 
L 194.853391 188.959424 
L 196.176012 185.353015 
L 197.05776 183.583854 
L 197.939507 182.40816 
L 198.380381 182.058492 
L 198.821255 181.872803 
L 199.262129 181.852948 
L 199.703003 181.999127 
L 200.143877 182.309877 
L 201.025624 183.411061 
L 201.907372 185.1126 
L 202.789119 187.346659 
L 204.111741 191.496447 
L 206.31611 199.587678 
L 208.079605 205.960511 
L 209.402227 210.013437 
L 210.283974 212.161397 
L 211.165722 213.763527 
L 212.047469 214.755955 
L 212.488343 215.010167 
L 212.929217 215.099116 
L 213.370091 215.021913 
L 213.810965 214.779329 
L 214.251839 214.373789 
L 215.133586 213.091633 
L 216.015334 211.226562 
L 216.897081 208.852929 
L 218.219703 204.550559 
L 223.069315 187.434393 
L 223.951062 185.183012 
L 224.83281 183.461343 
L 225.714558 182.338025 
L 226.155431 182.01573 
L 226.596305 181.85784 
L 227.037179 181.865935 
L 227.478053 182.039933 
L 227.918927 182.378095 
L 228.800674 183.531791 
L 229.682422 185.281028 
L 230.56417 187.556071 
L 231.886791 191.75126 
L 234.09116 199.866489 
L 235.854655 206.209082 
L 237.177277 210.213066 
L 238.059024 212.318152 
L 238.940772 213.871157 
L 239.82252 214.81017 
L 240.263393 215.036727 
L 240.704267 215.097755 
L 241.145141 214.992644 
L 241.586015 214.722445 
L 242.026889 214.289858 
L 242.908636 212.956387 
L 243.790384 211.045392 
L 244.672132 208.633059 
L 245.994753 204.28946 
L 250.844365 187.226796 
L 251.726113 185.016765 
L 252.60786 183.343076 
L 253.489608 182.272451 
L 253.930482 181.977619 
L 254.371355 181.847575 
L 254.812229 181.883616 
L 255.253103 182.085384 
L 255.693977 182.450862 
L 256.575725 183.656744 
L 257.457472 185.453185 
L 258.33922 187.768569 
L 259.661841 192.007972 
L 262.307084 201.788241 
L 264.070579 207.871778 
L 265.393201 211.505305 
L 266.274948 213.296784 
L 267.156696 214.497168 
L 267.59757 214.859765 
L 268.038444 215.058602 
L 268.479318 215.091692 
L 268.920191 214.958704 
L 269.361065 214.660966 
L 270.242813 213.584761 
L 271.12456 211.90598 
L 272.006308 209.691552 
L 273.328929 205.563676 
L 275.533299 197.484608 
L 277.737668 189.646814 
L 279.060289 185.875429 
L 279.942037 183.96926 
L 280.823784 182.641193 
L 281.264658 182.211457 
L 281.705532 181.944172 
L 282.146406 181.842009 
L 282.58728 181.905987 
L 283.028153 182.135468 
L 283.469027 182.528159 
L 284.350775 183.785885 
L 285.232522 185.629023 
L 286.11427 187.984092 
L 287.436891 192.266512 
L 292.286503 209.406327 
L 293.168251 211.677071 
L 294.049999 213.421293 
L 294.931746 214.569456 
L 295.37262 214.904727 
L 295.813494 215.075788 
L 296.254368 215.08093 
L 296.695242 214.920101 
L 297.136115 214.59491 
L 298.017863 213.466043 
L 298.899611 211.739334 
L 299.781358 209.483622 
L 301.10398 205.309787 
L 303.308349 197.205638 
L 305.071844 190.848499 
L 306.394465 186.821195 
L 307.276213 184.695729 
L 308.157961 183.119403 
L 309.039708 182.155059 
L 309.480582 181.915397 
L 309.921456 181.841144 
L 310.36233 181.933041 
L 310.803204 182.19017 
L 311.244077 182.609963 
L 312.125825 183.919178 
L 313.007573 185.80849 
L 313.88932 188.20258 
L 315.211942 192.526805 
L 320.061554 209.61541 
L 320.943301 211.845102 
L 321.825049 213.541574 
L 322.706796 214.637192 
L 323.14767 214.945041 
L 323.588544 215.088278 
L 324.029418 215.065471 
L 324.470292 214.876848 
L 324.911166 214.524294 
L 325.792913 213.343086 
L 326.674661 211.568937 
L 327.556408 209.272578 
L 328.87903 205.053965 
L 331.083399 196.927025 
L 332.846894 190.601072 
L 334.169516 186.623306 
L 335.051263 184.54103 
L 335.933011 183.014061 
L 336.814758 182.103275 
L 337.255632 181.891303 
L 337.696506 181.84498 
L 338.13738 181.96477 
L 338.578254 182.249475 
L 339.460001 183.300634 
L 340.341749 184.95655 
L 341.223497 187.151207 
L 342.546118 191.25691 
L 344.309613 197.66108 
L 346.513982 205.723116 
L 347.836604 209.821341 
L 348.718351 212.009352 
L 349.600099 213.657594 
L 350.481847 214.700358 
L 350.92272 214.980698 
L 351.363594 215.09607 
L 351.804468 215.045321 
L 352.245342 214.828957 
L 352.686216 214.44914 
L 353.567963 213.215924 
L 354.449711 211.394837 
L 355.331459 209.05848 
L 356.65408 204.796282 
L 359.299323 195.007788 
L 361.062818 188.947312 
L 362.38544 185.343942 
L 363.267187 183.577278 
L 364.148935 182.404342 
L 364.589809 182.056117 
L 365.030682 181.871895 
L 365.471556 181.853517 
L 365.91243 182.001166 
L 366.353304 182.313366 
L 367.235052 183.417332 
L 368.116799 185.121402 
L 368.998547 187.357642 
L 370.321168 191.509857 
L 372.525537 199.602413 
L 374.289033 205.973694 
L 375.611654 210.024063 
L 376.493402 212.169774 
L 377.375149 213.769321 
L 378.256897 214.758934 
L 378.697771 215.011687 
L 379.138645 215.099162 
L 379.579518 215.020484 
L 380.020392 214.77644 
L 380.461266 214.369468 
L 381.343014 213.084593 
L 382.224761 211.217082 
L 383.106509 208.841388 
L 384.42913 204.53681 
L 389.278742 187.423349 
L 390.16049 185.174136 
L 391.042237 183.45499 
L 391.923985 182.334447 
L 392.364859 182.0136 
L 392.805733 181.857181 
L 393.246607 181.866752 
L 393.68748 182.042217 
L 394.128354 182.381825 
L 395.010102 183.538285 
L 395.891849 185.290029 
L 396.773597 187.567218 
L 398.096218 191.764772 
L 400.300588 199.881205 
L 402.064083 206.222151 
L 403.386704 210.223519 
L 404.268452 212.326323 
L 405.150199 213.876722 
L 406.031947 214.812906 
L 406.472821 215.037999 
L 406.913695 215.097552 
L 407.354569 214.990968 
L 407.795442 214.719313 
L 408.236316 214.2853 
L 409.118064 212.949129 
L 409.999811 211.035723 
L 410.881559 208.621365 
L 412.20418 204.275623 
L 417.053792 187.215918 
L 417.93554 185.00809 
L 418.817288 183.336947 
L 419.699035 182.269115 
L 420.139909 181.975736 
L 420.580783 181.847163 
L 421.021657 181.884681 
L 421.462531 182.087914 
L 421.903404 182.454832 
L 422.785152 183.66346 
L 423.6669 185.462381 
L 424.548647 187.779878 
L 425.871269 192.021583 
L 428.516512 201.802712 
L 430.280007 207.883957 
L 431.602628 211.514471 
L 432.484376 213.303466 
L 433.366123 214.5011 
L 433.806997 214.862256 
L 434.247871 215.059627 
L 434.688745 215.091241 
L 435.129619 214.956781 
L 435.570493 214.657592 
L 436.45224 213.578597 
L 437.333988 211.897272 
L 438.215735 209.680648 
L 439.538357 205.550315 
L 441.742726 197.469865 
L 443.947095 189.634299 
L 445.269716 185.86579 
L 446.151464 183.962037 
L 447.033212 182.636672 
L 447.474085 182.208363 
L 447.914959 181.942535 
L 448.355833 181.841845 
L 448.796707 181.907299 
L 449.237581 182.138242 
L 449.678455 182.532368 
L 450.560202 183.792822 
L 451.44195 185.638412 
L 452.323697 187.995559 
L 453.646319 192.280217 
L 458.495931 209.417449 
L 459.377678 211.68604 
L 460.259426 213.427752 
L 461.141174 214.573148 
L 461.582047 214.906972 
L 462.022921 215.076565 
L 462.463795 215.080231 
L 462.904669 214.917933 
L 463.345543 214.591294 
L 464.22729 213.459654 
L 465.109038 211.730427 
L 465.990786 209.472552 
L 467.313407 205.296323 
L 469.517776 197.190912 
L 471.281271 190.835375 
L 472.603893 186.810659 
L 473.48564 184.68746 
L 474.367388 183.11373 
L 475.249136 182.152209 
L 475.690009 181.914007 
L 476.130883 181.841229 
L 476.571757 181.9346 
L 477.012631 182.193188 
L 477.453505 182.614409 
L 478.335252 183.926333 
L 479.217 185.81807 
L 480.098748 188.214202 
L 481.421369 192.540602 
L 486.270981 209.626367 
L 487.152729 211.853873 
L 488.034476 213.547809 
L 488.916224 214.640643 
L 489.357098 214.947041 
L 489.797972 215.088807 
L 490.238845 215.064524 
L 490.679719 214.874435 
L 491.120593 214.520438 
L 492.002341 213.336474 
L 492.884088 211.559834 
L 493.765836 209.261345 
L 495.088457 205.0404 
L 497.292826 196.91232 
L 499.056322 190.588064 
L 500.378943 186.612946 
L 501.260691 184.532968 
L 502.142438 183.008619 
L 503.024186 182.100668 
L 503.46506 181.89016 
L 503.905934 181.845313 
L 504.346807 181.966576 
L 504.787681 182.252735 
L 505.669429 183.306691 
L 506.551176 184.965162 
L 507.432924 187.162032 
L 508.755545 191.27022 
L 510.519041 197.675832 
L 512.72341 205.736404 
L 514.046031 209.83213 
L 514.927779 212.017922 
L 515.809526 213.663603 
L 516.691274 214.703567 
L 517.132148 214.982452 
L 517.573022 215.096351 
L 518.013896 215.044126 
L 518.454769 214.826298 
L 518.895643 214.445044 
L 519.777391 213.209091 
L 520.659138 211.385539 
L 521.540886 209.047087 
L 522.863507 204.782621 
L 525.50875 194.993344 
L 527.272246 188.935208 
L 528.594867 185.33488 
L 529.476615 183.570713 
L 530.358362 182.400536 
L 530.799236 182.053755 
L 531.24011 181.871001 
L 531.680984 181.854098 
L 532.121858 182.003218 
L 532.562731 182.316868 
L 533.444479 183.423614 
L 534.326227 185.130215 
L 535.207974 187.368634 
L 536.530596 191.523273 
L 538.294091 197.955226 
L 538.294091 197.955226 
" clip-path="url(#pbf82124408)" style="fill: none; stroke: #dd8452; stroke-width: 1.5; stroke-linecap: round"/>
   </g>
   <g id="patch_3">
    <path d="M 73.062 381.348 
L 73.062 15.552 
" style="fill: none; stroke: #ffffff; stroke-width: 1.25; stroke-linejoin: miter; stroke-linecap: square"/>
   </g>
   <g id="patch_4">
    <path d="M 560.448 381.348 
L 560.448 15.552 
" style="fill: none; stroke: #ffffff; stroke-width: 1.25; stroke-linejoin: miter; stroke-linecap: square"/>
   </g>
   <g id="patch_5">
    <path d="M 73.062 381.348 
L 560.448 381.348 
" style="fill: none; stroke: #ffffff; stroke-width: 1.25; stroke-linejoin: miter; stroke-linecap: square"/>
   </g>
   <g id="patch_6">
    <path d="M 73.062 15.552 
L 560.448 15.552 
" style="fill: none; stroke: #ffffff; stroke-width: 1.25; stroke-linejoin: miter; stroke-linecap: square"/>
   </g>
  </g>
 </g>
 <defs>
  <clipPath id="pbf82124408">
   <rect x="73.062" y="15.552" width="487.386" height="365.796"/>
  </clipPath>
 </defs>
</svg>
