<?xml version="1.0" encoding="utf-8" standalone="no"?>
<!DOCTYPE svg PUBLIC "-//W3C//DTD SVG 1.1//EN"
  "http://www.w3.org/Graphics/SVG/1.1/DTD/svg11.dtd">
<svg xmlns:xlink="http://www.w3.org/1999/xlink" width="576pt" height="432pt" viewBox="0 0 576 432" xmlns="http://www.w3.org/2000/svg" version="1.1">
 <metadata>
  <rdf:RDF xmlns:dc="http://purl.org/dc/elements/1.1/" xmlns:cc="http://creativecommons.org/ns#" xmlns:rdf="http://www.w3.org/1999/02/22-rdf-syntax-ns#">
   <cc:Work>
    <dc:type rdf:resource="http://purl.org/dc/dcmitype/StillImage"/>
    <dc:date>2023-05-14T13:10:36.545979</dc:date>
    <dc:format>image/svg+xml</dc:format>
    <dc:creator>
     <cc:Agent>
      <dc:title>Matplotlib v3.7.1, https://matplotlib.org/</dc:title>
     </cc:Agent>
    </dc:creator>
   </cc:Work>
  </rdf:RDF>
 </metadata>
 <defs>
  <style type="text/css">*{stroke-linejoin: round; stroke-linecap: butt}</style>
 </defs>
 <g id="figure_1">
  <g id="patch_1">
   <path d="M 0 432 
L 576 432 
L 576 0 
L 0 0 
z
" style="fill: #ffffff"/>
  </g>
  <g id="axes_1">
   <g id="patch_2">
    <path d="M 73.062 381.348 
L 560.448 381.348 
L 560.448 15.552 
L 73.062 15.552 
z
" style="fill: #eaeaf2"/>
   </g>
   <g id="matplotlib.axis_1">
    <g id="xtick_1">
     <g id="line2d_1">
      <path d="M 95.215909 381.348 
L 95.215909 15.552 
" clip-path="url(#peed9adb0f0)" style="fill: none; stroke: #ffffff; stroke-linecap: round"/>
     </g>
     <g id="text_1">
      <!-- 0 -->
      <g style="fill: #262626" transform="translate(91.915909 399.923) scale(0.132 -0.132)">
       <defs>
        <path id="SimHei-30" d="M 225 2537 
Q 250 3200 412 3587 
Q 575 3975 875 4225 
Q 1175 4475 1612 4475 
Q 2050 4475 2375 4112 
Q 2700 3750 2800 3200 
Q 2900 2650 2862 1937 
Q 2825 1225 2612 775 
Q 2400 325 1975 150 
Q 1550 -25 1125 187 
Q 700 400 525 750 
Q 350 1100 275 1487 
Q 200 1875 225 2537 
z
M 750 2687 
Q 675 2000 800 1462 
Q 925 925 1212 700 
Q 1500 475 1800 612 
Q 2100 750 2237 1162 
Q 2375 1575 2375 2062 
Q 2375 2550 2337 2950 
Q 2300 3350 2112 3675 
Q 1925 4000 1612 4012 
Q 1300 4025 1062 3700 
Q 825 3375 750 2687 
z
" transform="scale(0.015625)"/>
       </defs>
       <use xlink:href="#SimHei-30"/>
      </g>
     </g>
    </g>
    <g id="xtick_2">
     <g id="line2d_2">
      <path d="M 183.390672 381.348 
L 183.390672 15.552 
" clip-path="url(#peed9adb0f0)" style="fill: none; stroke: #ffffff; stroke-linecap: round"/>
     </g>
     <g id="text_2">
      <!-- 20 -->
      <g style="fill: #262626" transform="translate(176.790672 399.923) scale(0.132 -0.132)">
       <defs>
        <path id="SimHei-32" d="M 300 250 
Q 325 625 650 925 
Q 975 1225 1475 1862 
Q 1975 2500 2125 2850 
Q 2275 3200 2237 3450 
Q 2200 3700 2000 3862 
Q 1800 4025 1537 4000 
Q 1275 3975 1037 3800 
Q 800 3625 675 3275 
L 200 3350 
Q 400 3925 712 4187 
Q 1025 4450 1450 4475 
Q 1700 4500 1900 4462 
Q 2100 4425 2312 4287 
Q 2525 4150 2662 3875 
Q 2800 3600 2762 3212 
Q 2725 2825 2375 2287 
Q 2025 1750 1025 600 
L 2825 600 
L 2825 150 
L 300 150 
L 300 250 
z
" transform="scale(0.015625)"/>
       </defs>
       <use xlink:href="#SimHei-32"/>
       <use xlink:href="#SimHei-30" x="50"/>
      </g>
     </g>
    </g>
    <g id="xtick_3">
     <g id="line2d_3">
      <path d="M 271.565434 381.348 
L 271.565434 15.552 
" clip-path="url(#peed9adb0f0)" style="fill: none; stroke: #ffffff; stroke-linecap: round"/>
     </g>
     <g id="text_3">
      <!-- 40 -->
      <g style="fill: #262626" transform="translate(264.965434 399.923) scale(0.132 -0.132)">
       <defs>
        <path id="SimHei-34" d="M 2000 1100 
L 75 1100 
L 75 1525 
L 2100 4450 
L 2475 4450 
L 2475 1525 
L 3075 1525 
L 3075 1100 
L 2475 1100 
L 2475 150 
L 2000 150 
L 2000 1100 
z
M 2000 1525 
L 2000 3500 
L 600 1525 
L 2000 1525 
z
" transform="scale(0.015625)"/>
       </defs>
       <use xlink:href="#SimHei-34"/>
       <use xlink:href="#SimHei-30" x="50"/>
      </g>
     </g>
    </g>
    <g id="xtick_4">
     <g id="line2d_4">
      <path d="M 359.740197 381.348 
L 359.740197 15.552 
" clip-path="url(#peed9adb0f0)" style="fill: none; stroke: #ffffff; stroke-linecap: round"/>
     </g>
     <g id="text_4">
      <!-- 60 -->
      <g style="fill: #262626" transform="translate(353.140197 399.923) scale(0.132 -0.132)">
       <defs>
        <path id="SimHei-36" d="M 250 1612 
Q 275 1975 387 2225 
Q 500 2475 725 2850 
L 1750 4450 
L 2325 4450 
L 1275 2800 
Q 1950 2975 2350 2750 
Q 2750 2525 2887 2237 
Q 3025 1950 3037 1612 
Q 3050 1275 2937 950 
Q 2825 625 2537 362 
Q 2250 100 1737 75 
Q 1225 50 862 262 
Q 500 475 362 862 
Q 225 1250 250 1612 
z
M 1025 787 
Q 1250 550 1625 525 
Q 2000 500 2250 775 
Q 2500 1050 2500 1575 
Q 2500 2100 2187 2300 
Q 1875 2500 1487 2450 
Q 1100 2400 925 2075 
Q 750 1750 775 1387 
Q 800 1025 1025 787 
z
" transform="scale(0.015625)"/>
       </defs>
       <use xlink:href="#SimHei-36"/>
       <use xlink:href="#SimHei-30" x="50"/>
      </g>
     </g>
    </g>
    <g id="xtick_5">
     <g id="line2d_5">
      <path d="M 447.914959 381.348 
L 447.914959 15.552 
" clip-path="url(#peed9adb0f0)" style="fill: none; stroke: #ffffff; stroke-linecap: round"/>
     </g>
     <g id="text_5">
      <!-- 80 -->
      <g style="fill: #262626" transform="translate(441.314959 399.923) scale(0.132 -0.132)">
       <defs>
        <path id="SimHei-38" d="M 175 1375 
Q 175 1675 325 1962 
Q 475 2250 825 2425 
Q 525 2600 425 2812 
Q 325 3025 312 3300 
Q 300 3575 387 3775 
Q 475 3975 650 4150 
Q 825 4325 1037 4387 
Q 1250 4450 1500 4450 
Q 1750 4450 1950 4400 
Q 2150 4350 2375 4187 
Q 2600 4025 2700 3725 
Q 2800 3425 2687 3025 
Q 2575 2625 2100 2400 
Q 2525 2275 2700 2012 
Q 2875 1750 2875 1375 
Q 2875 1000 2762 775 
Q 2650 550 2512 400 
Q 2375 250 2137 162 
Q 1900 75 1537 75 
Q 1175 75 912 162 
Q 650 250 475 425 
Q 300 600 237 837 
Q 175 1075 175 1375 
z
M 687 1400 
Q 675 1100 787 875 
Q 900 650 1200 587 
Q 1500 525 1825 600 
Q 2150 675 2275 950 
Q 2400 1225 2362 1500 
Q 2325 1775 2050 1962 
Q 1775 2150 1450 2125 
Q 1125 2100 912 1900 
Q 700 1700 687 1400 
z
M 775 3350 
Q 775 3100 950 2875 
Q 1125 2650 1500 2650 
Q 1875 2650 2062 2875 
Q 2250 3100 2237 3412 
Q 2225 3725 2012 3875 
Q 1800 4025 1437 4000 
Q 1075 3975 925 3787 
Q 775 3600 775 3350 
z
" transform="scale(0.015625)"/>
       </defs>
       <use xlink:href="#SimHei-38"/>
       <use xlink:href="#SimHei-30" x="50"/>
      </g>
     </g>
    </g>
    <g id="xtick_6">
     <g id="line2d_6">
      <path d="M 536.089722 381.348 
L 536.089722 15.552 
" clip-path="url(#peed9adb0f0)" style="fill: none; stroke: #ffffff; stroke-linecap: round"/>
     </g>
     <g id="text_6">
      <!-- 100 -->
      <g style="fill: #262626" transform="translate(526.189722 399.923) scale(0.132 -0.132)">
       <defs>
        <path id="SimHei-31" d="M 1400 3600 
Q 1075 3275 575 2975 
L 575 3450 
Q 1200 3875 1600 4450 
L 1900 4450 
L 1900 150 
L 1400 150 
L 1400 3600 
z
" transform="scale(0.015625)"/>
       </defs>
       <use xlink:href="#SimHei-31"/>
       <use xlink:href="#SimHei-30" x="50"/>
       <use xlink:href="#SimHei-30" x="100"/>
      </g>
     </g>
    </g>
    <g id="text_7">
     <!-- Time/ms -->
     <g style="fill: #262626" transform="translate(291.555 415.473) scale(0.144 -0.144)">
      <defs>
       <path id="SimHei-54" d="M 2850 3925 
L 1850 3925 
L 1850 125 
L 1275 125 
L 1275 3925 
L 275 3925 
L 275 4400 
L 2850 4400 
L 2850 3925 
z
" transform="scale(0.015625)"/>
       <path id="SimHei-69" d="M 1800 3725 
L 1300 3725 
L 1300 4375 
L 1800 4375 
L 1800 3725 
z
M 1800 125 
L 1300 125 
L 1300 2925 
L 1800 2925 
L 1800 125 
z
" transform="scale(0.015625)"/>
       <path id="SimHei-6d" d="M 3050 125 
L 2550 125 
L 2550 2150 
Q 2550 2300 2500 2400 
Q 2450 2500 2300 2500 
Q 2125 2500 1975 2312 
Q 1825 2125 1825 1825 
L 1825 125 
L 1325 125 
L 1325 2150 
Q 1325 2300 1275 2400 
Q 1225 2500 1075 2500 
Q 900 2500 750 2312 
Q 600 2125 600 1825 
L 600 125 
L 100 125 
L 100 2925 
L 600 2925 
L 600 2550 
Q 725 2750 900 2862 
Q 1075 2975 1275 2975 
Q 1475 2975 1612 2862 
Q 1750 2750 1800 2550 
Q 1925 2750 2087 2862 
Q 2250 2975 2450 2975 
Q 2750 2975 2900 2812 
Q 3050 2650 3050 2350 
L 3050 125 
z
" transform="scale(0.015625)"/>
       <path id="SimHei-65" d="M 2850 1075 
Q 2800 625 2450 350 
Q 2100 75 1625 75 
Q 1025 75 637 462 
Q 250 850 250 1525 
Q 250 2200 637 2587 
Q 1025 2975 1625 2975 
Q 2150 2975 2487 2637 
Q 2825 2300 2825 1525 
L 800 1525 
Q 800 975 1037 750 
Q 1275 525 1625 525 
Q 1900 525 2075 662 
Q 2250 800 2300 1075 
L 2850 1075 
z
M 2250 1925 
Q 2200 2275 2025 2412 
Q 1850 2550 1575 2550 
Q 1325 2550 1125 2412 
Q 925 2275 825 1925 
L 2250 1925 
z
" transform="scale(0.015625)"/>
       <path id="SimHei-2f" d="M 3000 4550 
L 350 -175 
L 100 -25 
L 2750 4700 
L 3000 4550 
z
" transform="scale(0.015625)"/>
       <path id="SimHei-73" d="M 2750 900 
Q 2750 500 2437 287 
Q 2125 75 1650 75 
Q 1050 75 725 312 
Q 400 550 400 1000 
L 900 1000 
Q 900 700 1112 600 
Q 1325 500 1625 500 
Q 1925 500 2075 612 
Q 2225 725 2225 900 
Q 2225 1025 2100 1150 
Q 1975 1275 1475 1350 
Q 900 1425 687 1637 
Q 475 1850 475 2200 
Q 475 2500 762 2737 
Q 1050 2975 1600 2975 
Q 2100 2975 2387 2750 
Q 2675 2525 2675 2150 
L 2175 2150 
Q 2175 2375 2012 2462 
Q 1850 2550 1600 2550 
Q 1275 2550 1137 2437 
Q 1000 2325 1000 2175 
Q 1000 2000 1125 1900 
Q 1250 1800 1650 1750 
Q 2300 1650 2525 1437 
Q 2750 1225 2750 900 
z
" transform="scale(0.015625)"/>
      </defs>
      <use xlink:href="#SimHei-54"/>
      <use xlink:href="#SimHei-69" x="50"/>
      <use xlink:href="#SimHei-6d" x="100"/>
      <use xlink:href="#SimHei-65" x="150"/>
      <use xlink:href="#SimHei-2f" x="200"/>
      <use xlink:href="#SimHei-6d" x="250"/>
      <use xlink:href="#SimHei-73" x="300"/>
     </g>
    </g>
   </g>
   <g id="matplotlib.axis_2">
    <g id="ytick_1">
     <g id="line2d_7">
      <path d="M 73.062 346.788105 
L 560.448 346.788105 
" clip-path="url(#peed9adb0f0)" style="fill: none; stroke: #ffffff; stroke-linecap: round"/>
     </g>
     <g id="text_8">
      <!-- -2000 -->
      <g style="fill: #262626" transform="translate(30.562 351.325605) scale(0.132 -0.132)">
       <defs>
        <path id="SimHei-2d" d="M 2975 2125 
L 125 2125 
L 125 2525 
L 2975 2525 
L 2975 2125 
z
" transform="scale(0.015625)"/>
       </defs>
       <use xlink:href="#SimHei-2d"/>
       <use xlink:href="#SimHei-32" x="50"/>
       <use xlink:href="#SimHei-30" x="100"/>
       <use xlink:href="#SimHei-30" x="150"/>
       <use xlink:href="#SimHei-30" x="200"/>
      </g>
     </g>
    </g>
    <g id="ytick_2">
     <g id="line2d_8">
      <path d="M 73.062 303.984383 
L 560.448 303.984383 
" clip-path="url(#peed9adb0f0)" style="fill: none; stroke: #ffffff; stroke-linecap: round"/>
     </g>
     <g id="text_9">
      <!-- -1500 -->
      <g style="fill: #262626" transform="translate(30.562 308.521883) scale(0.132 -0.132)">
       <defs>
        <path id="SimHei-35" d="M 550 1325 
Q 725 650 1150 575 
Q 1575 500 1837 662 
Q 2100 825 2212 1087 
Q 2325 1350 2312 1675 
Q 2300 2000 2137 2225 
Q 1975 2450 1725 2525 
Q 1475 2600 1162 2525 
Q 850 2450 650 2175 
L 225 2225 
Q 275 2375 700 4375 
L 2675 4375 
L 2675 3925 
L 1075 3925 
Q 950 3250 825 2850 
Q 1200 3025 1525 3012 
Q 1850 3000 2150 2862 
Q 2450 2725 2587 2487 
Q 2725 2250 2787 2012 
Q 2850 1775 2837 1500 
Q 2825 1225 2725 937 
Q 2625 650 2425 462 
Q 2225 275 1937 162 
Q 1650 50 1275 75 
Q 900 100 562 350 
Q 225 600 100 1200 
L 550 1325 
z
" transform="scale(0.015625)"/>
       </defs>
       <use xlink:href="#SimHei-2d"/>
       <use xlink:href="#SimHei-31" x="50"/>
       <use xlink:href="#SimHei-35" x="100"/>
       <use xlink:href="#SimHei-30" x="150"/>
       <use xlink:href="#SimHei-30" x="200"/>
      </g>
     </g>
    </g>
    <g id="ytick_3">
     <g id="line2d_9">
      <path d="M 73.062 261.18066 
L 560.448 261.18066 
" clip-path="url(#peed9adb0f0)" style="fill: none; stroke: #ffffff; stroke-linecap: round"/>
     </g>
     <g id="text_10">
      <!-- -1000 -->
      <g style="fill: #262626" transform="translate(30.562 265.71816) scale(0.132 -0.132)">
       <use xlink:href="#SimHei-2d"/>
       <use xlink:href="#SimHei-31" x="50"/>
       <use xlink:href="#SimHei-30" x="100"/>
       <use xlink:href="#SimHei-30" x="150"/>
       <use xlink:href="#SimHei-30" x="200"/>
      </g>
     </g>
    </g>
    <g id="ytick_4">
     <g id="line2d_10">
      <path d="M 73.062 218.376937 
L 560.448 218.376937 
" clip-path="url(#peed9adb0f0)" style="fill: none; stroke: #ffffff; stroke-linecap: round"/>
     </g>
     <g id="text_11">
      <!-- -500 -->
      <g style="fill: #262626" transform="translate(37.162 222.914437) scale(0.132 -0.132)">
       <use xlink:href="#SimHei-2d"/>
       <use xlink:href="#SimHei-35" x="50"/>
       <use xlink:href="#SimHei-30" x="100"/>
       <use xlink:href="#SimHei-30" x="150"/>
      </g>
     </g>
    </g>
    <g id="ytick_5">
     <g id="line2d_11">
      <path d="M 73.062 175.573214 
L 560.448 175.573214 
" clip-path="url(#peed9adb0f0)" style="fill: none; stroke: #ffffff; stroke-linecap: round"/>
     </g>
     <g id="text_12">
      <!-- 0 -->
      <g style="fill: #262626" transform="translate(56.962 180.110714) scale(0.132 -0.132)">
       <use xlink:href="#SimHei-30"/>
      </g>
     </g>
    </g>
    <g id="ytick_6">
     <g id="line2d_12">
      <path d="M 73.062 132.769491 
L 560.448 132.769491 
" clip-path="url(#peed9adb0f0)" style="fill: none; stroke: #ffffff; stroke-linecap: round"/>
     </g>
     <g id="text_13">
      <!-- 500 -->
      <g style="fill: #262626" transform="translate(43.762 137.306991) scale(0.132 -0.132)">
       <use xlink:href="#SimHei-35"/>
       <use xlink:href="#SimHei-30" x="50"/>
       <use xlink:href="#SimHei-30" x="100"/>
      </g>
     </g>
    </g>
    <g id="ytick_7">
     <g id="line2d_13">
      <path d="M 73.062 89.965768 
L 560.448 89.965768 
" clip-path="url(#peed9adb0f0)" style="fill: none; stroke: #ffffff; stroke-linecap: round"/>
     </g>
     <g id="text_14">
      <!-- 1000 -->
      <g style="fill: #262626" transform="translate(37.162 94.503268) scale(0.132 -0.132)">
       <use xlink:href="#SimHei-31"/>
       <use xlink:href="#SimHei-30" x="50"/>
       <use xlink:href="#SimHei-30" x="100"/>
       <use xlink:href="#SimHei-30" x="150"/>
      </g>
     </g>
    </g>
    <g id="ytick_8">
     <g id="line2d_14">
      <path d="M 73.062 47.162046 
L 560.448 47.162046 
" clip-path="url(#peed9adb0f0)" style="fill: none; stroke: #ffffff; stroke-linecap: round"/>
     </g>
     <g id="text_15">
      <!-- 1500 -->
      <g style="fill: #262626" transform="translate(37.162 51.699546) scale(0.132 -0.132)">
       <use xlink:href="#SimHei-31"/>
       <use xlink:href="#SimHei-35" x="50"/>
       <use xlink:href="#SimHei-30" x="100"/>
       <use xlink:href="#SimHei-30" x="150"/>
      </g>
     </g>
    </g>
    <g id="text_16">
     <!-- Current/A -->
     <g style="fill: #262626" transform="translate(24.762 230.85) rotate(-90) scale(0.144 -0.144)">
      <defs>
       <path id="SimHei-43" d="M 2975 1825 
Q 2950 875 2575 475 
Q 2200 75 1675 75 
Q 1075 75 650 562 
Q 225 1050 225 2125 
Q 225 3300 637 3875 
Q 1050 4450 1700 4450 
Q 2250 4450 2612 4037 
Q 2975 3625 2950 2875 
L 2400 2875 
Q 2400 3425 2225 3700 
Q 2050 3975 1700 3975 
Q 1300 3975 1062 3562 
Q 825 3150 825 2175 
Q 825 1275 1062 912 
Q 1300 550 1675 550 
Q 1950 550 2175 812 
Q 2400 1075 2400 1825 
L 2975 1825 
z
" transform="scale(0.015625)"/>
       <path id="SimHei-75" d="M 2800 125 
L 2300 125 
L 2300 650 
Q 2100 375 1862 225 
Q 1625 75 1250 75 
Q 800 75 575 325 
Q 350 575 350 950 
L 350 2925 
L 850 2925 
L 850 1125 
Q 850 825 1000 650 
Q 1150 475 1400 475 
Q 1725 475 2012 812 
Q 2300 1150 2300 1650 
L 2300 2925 
L 2800 2925 
L 2800 125 
z
" transform="scale(0.015625)"/>
       <path id="SimHei-72" d="M 2500 2425 
Q 2025 2500 1700 2287 
Q 1375 2075 1150 1550 
L 1150 125 
L 650 125 
L 650 2925 
L 1150 2925 
L 1150 2200 
Q 1375 2600 1712 2787 
Q 2050 2975 2500 2975 
L 2500 2425 
z
" transform="scale(0.015625)"/>
       <path id="SimHei-6e" d="M 2800 125 
L 2300 125 
L 2300 1925 
Q 2300 2225 2150 2400 
Q 2000 2575 1750 2575 
Q 1425 2575 1137 2237 
Q 850 1900 850 1400 
L 850 125 
L 350 125 
L 350 2925 
L 850 2925 
L 850 2400 
Q 1050 2675 1287 2825 
Q 1525 2975 1900 2975 
Q 2350 2975 2575 2725 
Q 2800 2475 2800 2100 
L 2800 125 
z
" transform="scale(0.015625)"/>
       <path id="SimHei-74" d="M 2750 200 
Q 2625 150 2462 112 
Q 2300 75 2025 75 
Q 1575 75 1300 325 
Q 1025 575 1025 1025 
L 1025 2525 
L 175 2525 
L 175 2925 
L 1025 2925 
L 1025 3900 
L 1525 3900 
L 1525 2925 
L 2550 2925 
L 2550 2525 
L 1525 2525 
L 1525 1000 
Q 1525 800 1625 662 
Q 1725 525 2000 525 
Q 2275 525 2450 575 
Q 2625 625 2750 700 
L 2750 200 
z
" transform="scale(0.015625)"/>
       <path id="SimHei-41" d="M 3075 125 
L 2475 125 
L 2125 1450 
L 1025 1450 
L 675 125 
L 75 125 
L 1325 4450 
L 1825 4450 
L 3075 125 
z
M 2000 1925 
L 1600 3450 
L 1550 3450 
L 1150 1925 
L 2000 1925 
z
" transform="scale(0.015625)"/>
      </defs>
      <use xlink:href="#SimHei-43"/>
      <use xlink:href="#SimHei-75" x="50"/>
      <use xlink:href="#SimHei-72" x="100"/>
      <use xlink:href="#SimHei-72" x="150"/>
      <use xlink:href="#SimHei-65" x="200"/>
      <use xlink:href="#SimHei-6e" x="250"/>
      <use xlink:href="#SimHei-74" x="300"/>
      <use xlink:href="#SimHei-2f" x="350"/>
      <use xlink:href="#SimHei-41" x="400"/>
     </g>
    </g>
   </g>
   <g id="PolyCollection_1"/>
   <g id="PolyCollection_2"/>
   <g id="line2d_15">
    <path d="M 95.215909 175.573214 
L 97.420278 142.739297 
L 98.7429 126.444396 
L 99.624647 117.944269 
L 100.506395 111.741626 
L 100.947269 109.58301 
L 101.388142 108.083747 
L 101.829016 107.258816 
L 102.26989 107.11646 
L 102.710764 107.658101 
L 103.151638 108.878328 
L 103.592512 110.764947 
L 104.474259 116.455495 
L 105.356007 124.502879 
L 106.237754 134.586277 
L 107.560376 152.63123 
L 111.969114 217.476887 
L 112.850862 227.403557 
L 113.732609 235.263915 
L 114.614357 240.744592 
L 115.055231 242.520299 
L 115.496104 243.627093 
L 115.936978 244.053915 
L 116.377852 243.7965 
L 116.818726 242.857421 
L 117.2596 241.24606 
L 117.700474 238.978518 
L 118.582221 232.571846 
L 119.463969 223.892818 
L 120.78659 207.391939 
L 122.550085 181.263671 
L 125.195328 141.733389 
L 126.51795 125.649072 
L 127.399697 117.330249 
L 128.281445 111.333388 
L 128.722319 109.284309 
L 129.163193 107.897567 
L 129.604066 107.187018 
L 130.04494 107.159761 
L 130.485814 107.816068 
L 130.926688 109.149383 
L 131.367562 111.146382 
L 132.249309 117.04519 
L 133.131057 125.277326 
L 134.012805 135.514601 
L 135.335426 153.719458 
L 139.744164 218.381775 
L 140.625912 228.148911 
L 141.507659 235.82002 
L 142.389407 241.089278 
L 142.830281 242.75357 
L 143.271155 243.746618 
L 143.712028 244.0585 
L 144.152902 243.686099 
L 144.593776 242.633137 
L 145.03465 240.910135 
L 145.475524 238.534308 
L 146.357271 231.925417 
L 147.239019 223.069943 
L 148.56164 206.367751 
L 150.325136 180.115333 
L 152.970379 140.737047 
L 154.293 124.867863 
L 155.174748 116.732695 
L 156.056495 110.943313 
L 156.497369 109.004351 
L 156.938243 107.730522 
L 157.379117 107.134555 
L 157.819991 107.222404 
L 158.260864 107.993192 
L 158.701738 109.439218 
L 159.142612 111.546032 
L 160.02436 117.651433 
L 160.906107 126.065993 
L 161.787855 136.45425 
L 163.110476 154.813863 
L 167.078341 213.791958 
L 168.400962 228.879401 
L 169.28271 236.359091 
L 170.164457 241.415441 
L 170.605331 242.967847 
L 171.046205 243.846869 
L 171.487079 244.043722 
L 171.927953 243.556441 
L 172.368826 242.389894 
L 172.8097 240.555737 
L 173.691448 234.964385 
L 174.573195 227.005294 
L 175.454943 216.995768 
L 176.777564 199.028327 
L 181.186303 134.102237 
L 182.06805 124.10099 
L 182.949798 116.151778 
L 183.831545 110.571511 
L 184.272419 108.743213 
L 184.713293 107.582657 
L 185.154167 107.101441 
L 185.595041 107.304372 
L 186.035915 108.189423 
L 186.476788 109.74775 
L 186.917662 111.963784 
L 187.79941 118.274052 
L 188.681157 126.868657 
L 190.003779 143.272566 
L 191.767274 169.339457 
L 194.412517 208.937827 
L 195.735138 225.122445 
L 196.616886 233.527428 
L 197.498634 239.62196 
L 197.939507 241.722988 
L 198.380381 243.16307 
L 198.821255 243.927816 
L 199.262129 244.009586 
L 199.703003 243.407562 
L 200.143877 242.12776 
L 200.58475 240.182967 
L 201.466498 234.382585 
L 202.348246 226.237658 
L 203.229993 216.0729 
L 204.552615 197.943133 
L 208.961353 133.191706 
L 209.8431 123.348669 
L 210.724848 115.587661 
L 211.606596 110.218087 
L 212.047469 108.500969 
L 212.488343 107.454015 
L 212.929217 107.087686 
L 213.370091 107.405642 
L 213.810965 108.404705 
L 214.251839 110.074894 
L 214.692712 112.39952 
L 215.57446 118.912871 
L 216.456208 127.685092 
L 217.778829 144.292529 
L 219.542324 170.487074 
L 222.187567 209.938734 
L 223.510189 225.910366 
L 224.391936 234.132801 
L 225.273684 240.02065 
L 225.714558 242.011833 
L 226.155431 243.339183 
L 226.596305 243.989439 
L 227.037179 243.956101 
L 227.478053 243.239505 
L 227.918927 241.846809 
L 228.359801 239.79193 
L 229.241548 233.784157 
L 230.123296 225.455698 
L 231.005043 215.138582 
L 232.327665 196.851615 
L 236.736403 132.293157 
L 237.618151 122.611114 
L 238.499898 115.040503 
L 239.381646 109.88314 
L 239.82252 108.277689 
L 240.263393 107.344633 
L 240.704267 107.093294 
L 241.145141 107.526184 
L 241.586015 108.638977 
L 242.026889 110.420555 
L 242.467763 112.853117 
L 243.34951 119.56771 
L 244.231258 128.515065 
L 245.553879 145.321337 
L 247.317374 171.636129 
L 249.521744 204.897714 
L 250.844365 221.877791 
L 251.726113 230.979638 
L 252.60786 237.872606 
L 253.048734 240.40112 
L 253.489608 242.281894 
L 253.930482 243.496138 
L 254.371355 244.031718 
L 254.812229 243.883283 
L 255.253103 243.052316 
L 255.693977 241.547121 
L 256.134851 239.382736 
L 257.016598 233.169272 
L 257.898346 224.659635 
L 259.220967 208.353738 
L 260.984463 182.349876 
L 263.629706 142.68593 
L 264.952327 126.402037 
L 265.834075 117.911427 
L 266.715822 111.71961 
L 267.156696 109.566765 
L 267.59757 108.073435 
L 268.038444 107.25454 
L 268.479318 107.118263 
L 268.920191 107.665965 
L 269.361065 108.892174 
L 269.801939 110.784637 
L 270.683687 116.486226 
L 271.565434 124.543427 
L 272.447182 134.635024 
L 273.769803 152.688551 
L 278.178541 217.524982 
L 279.060289 227.443295 
L 279.942037 235.293712 
L 280.823784 240.763261 
L 281.264658 242.533095 
L 281.705532 243.633888 
L 282.146406 244.054641 
L 282.58728 243.791151 
L 283.028153 242.84605 
L 283.469027 241.22878 
L 283.909901 238.955502 
L 284.791649 232.538103 
L 285.673396 223.849693 
L 286.996018 207.338063 
L 288.759513 181.203053 
L 291.404756 141.68052 
L 292.727377 125.607453 
L 293.609125 117.298272 
L 294.490872 111.312329 
L 294.931746 109.269052 
L 295.37262 107.888265 
L 295.813494 107.183763 
L 296.254368 107.162586 
L 296.695242 107.824945 
L 297.136115 109.164223 
L 297.576989 111.167037 
L 298.458737 117.0768 
L 299.340484 125.31863 
L 300.222232 135.563952 
L 301.544853 153.777113 
L 305.953592 218.429238 
L 306.835339 228.187869 
L 307.717087 235.848921 
L 308.598834 241.10697 
L 309.039708 242.765364 
L 309.480582 243.752396 
L 309.921456 244.058204 
L 310.36233 243.679732 
L 310.803204 242.620763 
L 311.244077 240.891877 
L 311.684951 238.510348 
L 312.566699 231.890828 
L 313.448446 223.026103 
L 314.771068 206.313408 
L 316.534563 180.054639 
L 316.975437 173.209717 
L 317.416311 42.079399 
L 317.857185 225.849282 
L 318.298058 218.980031 
L 318.738932 263.753153 
L 319.179806 104.451291 
L 319.62068 364.720909 
L 320.061554 32.179091 
L 320.502427 238.131593 
L 320.943301 149.353577 
L 321.384175 196.067257 
L 321.825049 55.412581 
L 322.265923 344.882063 
L 322.706796 202.070475 
L 323.14767 207.13601 
L 323.588544 82.396472 
L 324.029418 265.965741 
L 324.470292 189.743907 
L 324.911166 247.718382 
L 325.352039 172.103956 
L 325.792913 127.675625 
L 326.233787 266.025563 
L 326.674661 81.496216 
L 327.115535 101.477651 
L 327.556408 134.276648 
L 327.997282 101.538036 
L 328.438156 231.764122 
L 328.87903 185.67272 
L 329.319904 252.477692 
L 330.201651 131.986932 
L 330.642525 175.088672 
L 332.846894 207.981084 
L 334.169516 224.363219 
L 335.051263 232.938918 
L 335.933011 239.227627 
L 336.373885 241.432152 
L 336.814758 242.978636 
L 337.255632 243.851627 
L 337.696506 244.042403 
L 338.13738 243.549058 
L 338.578254 242.37652 
L 339.019128 240.536506 
L 339.900875 234.934073 
L 340.782623 226.965109 
L 341.66437 216.947313 
L 342.986992 198.97117 
L 347.39573 134.053847 
L 348.277478 124.060886 
L 349.159225 116.121559 
L 350.040973 110.552383 
L 350.481847 108.729944 
L 350.92272 107.575381 
L 351.363594 107.10023 
L 351.804468 107.309239 
L 352.245342 108.200318 
L 352.686216 109.764565 
L 353.12709 111.986351 
L 354.008837 118.307391 
L 354.890585 126.911439 
L 356.213206 143.326215 
L 357.976701 169.400033 
L 360.621944 208.990933 
L 361.944566 225.164415 
L 362.826313 233.559815 
L 363.708061 239.643473 
L 364.148935 241.738714 
L 364.589809 243.172851 
L 365.030682 243.931555 
L 365.471556 244.007245 
L 365.91243 243.399165 
L 366.353304 242.11339 
L 366.794178 240.162768 
L 367.675925 234.35139 
L 368.557673 226.196711 
L 369.439421 216.023833 
L 370.762042 197.885634 
L 375.17078 133.143942 
L 376.052528 123.30934 
L 376.934275 115.558334 
L 377.816023 110.199932 
L 378.256897 108.4887 
L 378.697771 107.447756 
L 379.138645 107.087498 
L 379.579518 107.411527 
L 380.020392 108.416605 
L 380.461266 110.092689 
L 380.90214 112.423034 
L 381.783887 118.947061 
L 382.665635 127.728594 
L 383.988256 144.346653 
L 385.751752 170.547734 
L 388.396995 209.991335 
L 389.719616 225.95159 
L 390.601364 234.164318 
L 391.483111 240.041204 
L 391.923985 242.026568 
L 392.364859 243.347954 
L 392.805733 243.992156 
L 393.246607 243.952739 
L 393.68748 243.230096 
L 394.128354 241.831448 
L 394.569228 239.770769 
L 395.450976 233.752089 
L 396.332723 225.414001 
L 397.214471 215.088917 
L 398.537092 196.793791 
L 402.94583 132.246033 
L 403.827578 122.572571 
L 404.709326 115.012076 
L 405.591073 109.865963 
L 406.031947 108.266424 
L 406.472821 107.339391 
L 406.913695 107.094128 
L 407.354569 107.533086 
L 407.795442 108.651878 
L 408.236316 110.439326 
L 408.67719 112.877571 
L 409.558938 119.602741 
L 410.440685 128.559277 
L 411.763307 145.375919 
L 413.526802 171.696856 
L 415.731171 204.95267 
L 417.053792 221.922589 
L 417.93554 231.015369 
L 418.817288 237.897845 
L 419.258161 240.420708 
L 419.699035 242.295635 
L 420.139909 243.503894 
L 420.580783 244.033413 
L 421.021657 243.878899 
L 421.462531 243.041898 
L 421.903404 241.530772 
L 422.344278 239.36062 
L 423.226026 233.136339 
L 424.107773 224.617199 
L 425.430395 208.300319 
L 427.19389 182.289346 
L 429.839133 142.632589 
L 431.161754 126.359717 
L 432.043502 117.878631 
L 432.92525 111.697645 
L 433.366123 109.550572 
L 433.806997 108.063176 
L 434.247871 107.250318 
L 434.688745 107.12012 
L 435.129619 107.673882 
L 435.570493 108.906072 
L 436.011366 110.804379 
L 436.893114 116.517004 
L 437.774862 124.584014 
L 438.656609 134.683803 
L 439.979231 152.74589 
L 444.387969 217.573044 
L 445.269716 227.482992 
L 446.151464 235.323462 
L 447.033212 240.781877 
L 447.474085 242.545837 
L 447.914959 243.640629 
L 448.355833 244.055314 
L 448.796707 243.785748 
L 449.237581 242.834625 
L 449.678455 241.211448 
L 450.119328 238.932436 
L 451.001076 232.504315 
L 451.882824 223.80653 
L 453.205445 207.284163 
L 454.96894 181.142431 
L 457.614183 141.627678 
L 458.936805 125.565874 
L 459.818552 117.266342 
L 460.7003 111.291321 
L 461.141174 109.253848 
L 461.582047 107.879016 
L 462.022921 107.180562 
L 462.463795 107.165465 
L 462.904669 107.833876 
L 463.345543 109.179115 
L 463.786417 111.187743 
L 464.668164 117.108456 
L 465.549912 125.359974 
L 466.431659 135.613335 
L 467.754281 153.834785 
L 472.163019 218.476666 
L 473.044767 228.226786 
L 473.926514 235.877775 
L 474.808262 241.124611 
L 475.249136 242.777105 
L 475.690009 243.75812 
L 476.130883 244.057853 
L 476.571757 243.673311 
L 477.012631 242.608336 
L 477.453505 240.873567 
L 477.894379 238.486339 
L 478.776126 231.856195 
L 479.657874 222.982226 
L 480.980495 206.259041 
L 482.743991 179.993941 
L 485.389233 140.632363 
L 486.711855 124.786169 
L 487.593602 116.670538 
L 488.47535 110.903171 
L 488.916224 108.975873 
L 489.357098 107.713994 
L 489.797972 107.130142 
L 490.238845 107.230151 
L 490.679719 108.01302 
L 491.120593 109.470929 
L 491.561467 111.58931 
L 492.443214 117.716437 
L 493.324962 126.15013 
L 494.20671 136.554166 
L 495.529331 154.929825 
L 499.497195 213.892845 
L 500.819817 228.955693 
L 501.701564 236.415038 
L 502.583312 241.448811 
L 503.024186 242.989372 
L 503.46506 243.856332 
L 503.905934 244.041031 
L 504.346807 243.541621 
L 504.787681 242.363093 
L 505.228555 240.517224 
L 506.110303 234.903714 
L 506.99205 226.924884 
L 507.873798 216.898825 
L 509.196419 198.913994 
L 513.605157 134.005489 
L 514.486905 124.020823 
L 515.368653 116.091388 
L 516.2504 110.533305 
L 516.691274 108.716728 
L 517.132148 107.568159 
L 517.573022 107.099073 
L 518.013896 107.314159 
L 518.454769 108.211267 
L 518.895643 109.781432 
L 519.336517 112.008968 
L 520.218265 118.340775 
L 521.100012 126.95426 
L 522.422634 143.379889 
L 524.186129 169.460614 
L 526.831372 209.044014 
L 528.153993 225.206347 
L 529.035741 233.592157 
L 529.917488 239.664935 
L 530.358362 241.754387 
L 530.799236 243.182578 
L 531.24011 243.93524 
L 531.680984 244.00485 
L 532.121858 243.390714 
L 532.562731 242.098968 
L 533.003605 240.142519 
L 533.885353 234.320149 
L 534.7671 226.155724 
L 535.648848 215.974735 
L 536.971469 197.828118 
L 538.294091 177.693537 
L 538.294091 177.693537 
" clip-path="url(#peed9adb0f0)" style="fill: none; stroke: #4c72b0; stroke-width: 1.5; stroke-linecap: round"/>
   </g>
   <g id="line2d_16">
    <path d="M 95.215909 175.573214 
L 97.420278 208.407131 
L 98.7429 224.702032 
L 99.624647 233.202159 
L 100.506395 239.404802 
L 100.947269 241.563418 
L 101.388142 243.062681 
L 101.829016 243.887612 
L 102.26989 244.029968 
L 102.710764 243.488327 
L 103.151638 242.268101 
L 103.592512 240.381481 
L 104.474259 234.690933 
L 105.356007 226.643549 
L 106.237754 216.560151 
L 107.560376 198.515198 
L 111.969114 133.669541 
L 112.850862 123.742871 
L 113.732609 115.882514 
L 114.614357 110.401836 
L 115.055231 108.626129 
L 115.496104 107.519335 
L 115.936978 107.092513 
L 116.377852 107.349928 
L 116.818726 108.289007 
L 117.2596 109.900368 
L 117.700474 112.16791 
L 118.582221 118.574582 
L 119.463969 127.25361 
L 120.78659 143.754489 
L 122.550085 169.882757 
L 125.195328 209.41304 
L 126.51795 225.497356 
L 127.399697 233.81618 
L 128.281445 239.81304 
L 128.722319 241.862119 
L 129.163193 243.248861 
L 129.604066 243.95941 
L 130.04494 243.986667 
L 130.485814 243.33036 
L 130.926688 241.997046 
L 131.367562 240.000046 
L 132.249309 234.101238 
L 133.131057 225.869102 
L 134.012805 215.631828 
L 135.335426 197.426971 
L 139.744164 132.764653 
L 140.625912 122.997517 
L 141.507659 115.326409 
L 142.389407 110.05715 
L 142.830281 108.392858 
L 143.271155 107.39981 
L 143.712028 107.087928 
L 144.152902 107.460329 
L 144.593776 108.513291 
L 145.03465 110.236293 
L 145.475524 112.612121 
L 146.357271 119.221011 
L 147.239019 128.076485 
L 148.56164 144.778677 
L 150.325136 171.031096 
L 152.970379 210.409381 
L 154.293 226.278565 
L 155.174748 234.413733 
L 156.056495 240.203115 
L 156.497369 242.142078 
L 156.938243 243.415906 
L 157.379117 244.011873 
L 157.819991 243.924024 
L 158.260864 243.153236 
L 158.701738 241.707211 
L 159.142612 239.600396 
L 160.02436 233.494995 
L 160.906107 225.080435 
L 161.787855 214.692178 
L 163.110476 196.332565 
L 167.078341 137.35447 
L 168.400962 122.267027 
L 169.28271 114.787337 
L 170.164457 109.730987 
L 170.605331 108.178581 
L 171.046205 107.299559 
L 171.487079 107.102706 
L 171.927953 107.589987 
L 172.368826 108.756534 
L 172.8097 110.590691 
L 173.691448 116.182043 
L 174.573195 124.141134 
L 175.454943 134.15066 
L 176.777564 152.118101 
L 181.186303 217.044191 
L 182.06805 227.045438 
L 182.949798 234.99465 
L 183.831545 240.574917 
L 184.272419 242.403216 
L 184.713293 243.563771 
L 185.154167 244.044987 
L 185.595041 243.842056 
L 186.035915 242.957005 
L 186.476788 241.398678 
L 186.917662 239.182644 
L 187.79941 232.872376 
L 188.681157 224.277771 
L 190.003779 207.873862 
L 191.767274 181.806971 
L 194.412517 142.208602 
L 195.735138 126.023984 
L 196.616886 117.619 
L 197.498634 111.524468 
L 197.939507 109.42344 
L 198.380381 107.983358 
L 198.821255 107.218612 
L 199.262129 107.136842 
L 199.703003 107.738866 
L 200.143877 109.018668 
L 200.58475 110.963461 
L 201.466498 116.763844 
L 202.348246 124.90877 
L 203.229993 135.073528 
L 204.552615 153.203295 
L 208.961353 217.954723 
L 209.8431 227.797759 
L 210.724848 235.558768 
L 211.606596 240.928342 
L 212.047469 242.645459 
L 212.488343 243.692413 
L 212.929217 244.058742 
L 213.370091 243.740787 
L 213.810965 242.741723 
L 214.251839 241.071534 
L 214.692712 238.746908 
L 215.57446 232.233557 
L 216.456208 223.461337 
L 217.778829 206.853899 
L 219.542324 180.659354 
L 222.187567 141.207694 
L 223.510189 125.236062 
L 224.391936 117.013627 
L 225.273684 111.125778 
L 225.714558 109.134595 
L 226.155431 107.807245 
L 226.596305 107.15699 
L 227.037179 107.190327 
L 227.478053 107.906923 
L 227.918927 109.299619 
L 228.359801 111.354498 
L 229.241548 117.362271 
L 230.123296 125.69073 
L 231.005043 136.007847 
L 232.327665 154.294813 
L 236.736403 218.853271 
L 237.618151 228.535314 
L 238.499898 236.105926 
L 239.381646 241.263288 
L 239.82252 242.868739 
L 240.263393 243.801796 
L 240.704267 244.053134 
L 241.145141 243.620244 
L 241.586015 242.507451 
L 242.026889 240.725873 
L 242.467763 238.293311 
L 243.34951 231.578718 
L 244.231258 222.631363 
L 245.553879 205.825092 
L 247.317374 179.510299 
L 249.521744 146.248714 
L 250.844365 129.268637 
L 251.726113 120.16679 
L 252.60786 113.273822 
L 253.048734 110.745308 
L 253.489608 108.864534 
L 253.930482 107.650291 
L 254.371355 107.114711 
L 254.812229 107.263145 
L 255.253103 108.094112 
L 255.693977 109.599307 
L 256.134851 111.763692 
L 257.016598 117.977156 
L 257.898346 126.486793 
L 259.220967 142.792691 
L 260.984463 168.796552 
L 263.629706 208.460498 
L 264.952327 224.744391 
L 265.834075 233.235001 
L 266.715822 239.426818 
L 267.156696 241.579663 
L 267.59757 243.072993 
L 268.038444 243.891888 
L 268.479318 244.028165 
L 268.920191 243.480463 
L 269.361065 242.254254 
L 269.801939 240.361791 
L 270.683687 234.660202 
L 271.565434 226.603002 
L 272.447182 216.511405 
L 273.769803 198.457877 
L 278.178541 133.621446 
L 279.060289 123.703133 
L 279.942037 115.852716 
L 280.823784 110.383168 
L 281.264658 108.613333 
L 281.705532 107.51254 
L 282.146406 107.091787 
L 282.58728 107.355277 
L 283.028153 108.300379 
L 283.469027 109.917648 
L 283.909901 112.190926 
L 284.791649 118.608325 
L 285.673396 127.296735 
L 286.996018 143.808365 
L 288.759513 169.943375 
L 291.404756 209.465908 
L 292.727377 225.538975 
L 293.609125 233.848156 
L 294.490872 239.834099 
L 294.931746 241.877376 
L 295.37262 243.258163 
L 295.813494 243.962665 
L 296.254368 243.983842 
L 296.695242 243.321483 
L 297.136115 241.982205 
L 297.576989 239.979391 
L 298.458737 234.069628 
L 299.340484 225.827798 
L 300.222232 215.582476 
L 301.544853 197.369316 
L 305.953592 132.717191 
L 306.835339 122.958559 
L 307.717087 115.297507 
L 308.598834 110.039458 
L 309.039708 108.381064 
L 309.480582 107.394032 
L 309.921456 107.088224 
L 310.36233 107.466696 
L 310.803204 108.525665 
L 311.244077 110.254551 
L 311.684951 112.63608 
L 312.566699 119.2556 
L 313.448446 128.120325 
L 314.771068 144.83302 
L 316.534563 171.09179 
L 319.179806 210.461737 
L 320.502427 226.319432 
L 321.384175 234.444835 
L 322.265923 240.223211 
L 322.706796 242.156342 
L 323.14767 243.424197 
L 323.588544 244.014107 
L 324.029418 243.920178 
L 324.470292 243.143348 
L 324.911166 241.691381 
L 325.352039 239.578782 
L 326.233787 233.462516 
L 327.115535 225.038386 
L 327.997282 214.642236 
L 329.319904 196.274592 
L 333.287768 137.304012 
L 334.610389 122.22886 
L 335.492137 114.759339 
L 336.373885 109.714276 
L 336.814758 108.167792 
L 337.255632 107.294801 
L 337.696506 107.104025 
L 338.13738 107.59737 
L 338.578254 108.769908 
L 339.019128 110.609922 
L 339.900875 116.212356 
L 340.782623 124.181319 
L 341.66437 134.199115 
L 342.986992 152.175258 
L 347.39573 217.092581 
L 348.277478 227.085542 
L 349.159225 235.024869 
L 350.040973 240.594046 
L 350.481847 242.416484 
L 350.92272 243.571047 
L 351.363594 244.046198 
L 351.804468 243.83719 
L 352.245342 242.94611 
L 352.686216 241.381863 
L 353.12709 239.160077 
L 354.008837 232.839037 
L 354.890585 224.234989 
L 356.213206 207.820214 
L 357.976701 181.746395 
L 360.621944 142.155495 
L 361.944566 125.982013 
L 362.826313 117.586613 
L 363.708061 111.502956 
L 364.148935 109.407714 
L 364.589809 107.973577 
L 365.030682 107.214873 
L 365.471556 107.139183 
L 365.91243 107.747263 
L 366.353304 109.033038 
L 366.794178 110.98366 
L 367.675925 116.795038 
L 368.557673 124.949717 
L 369.439421 135.122595 
L 370.762042 153.260794 
L 375.17078 218.002486 
L 376.052528 227.837088 
L 376.934275 235.588094 
L 377.816023 240.946497 
L 378.256897 242.657728 
L 378.697771 243.698673 
L 379.138645 244.05893 
L 379.579518 243.734901 
L 380.020392 242.729823 
L 380.461266 241.053739 
L 380.90214 238.723394 
L 381.783887 232.199367 
L 382.665635 223.417834 
L 383.988256 206.799776 
L 385.751752 180.598694 
L 388.396995 141.155093 
L 389.719616 125.194838 
L 390.601364 116.98211 
L 391.483111 111.105225 
L 391.923985 109.11986 
L 392.364859 107.798475 
L 392.805733 107.154272 
L 393.246607 107.19369 
L 393.68748 107.916332 
L 394.128354 109.31498 
L 394.569228 111.375659 
L 395.450976 117.394339 
L 396.332723 125.732428 
L 397.214471 136.057511 
L 398.537092 154.352638 
L 402.94583 218.900395 
L 403.827578 228.573858 
L 404.709326 236.134352 
L 405.591073 241.280465 
L 406.031947 242.880005 
L 406.472821 243.807037 
L 406.913695 244.0523 
L 407.354569 243.613342 
L 407.795442 242.49455 
L 408.236316 240.707102 
L 408.67719 238.268857 
L 409.558938 231.543688 
L 410.440685 222.587152 
L 411.763307 205.770509 
L 413.526802 179.449572 
L 415.731171 146.193758 
L 417.053792 129.223839 
L 417.93554 120.131059 
L 418.817288 113.248583 
L 419.258161 110.725721 
L 419.699035 108.850793 
L 420.139909 107.642534 
L 420.580783 107.113016 
L 421.021657 107.267529 
L 421.462531 108.10453 
L 421.903404 109.615656 
L 422.344278 111.785808 
L 423.226026 118.010089 
L 424.107773 126.52923 
L 425.430395 142.846109 
L 427.19389 168.857083 
L 429.839133 208.513839 
L 431.161754 224.786711 
L 432.043502 233.267798 
L 432.92525 239.448783 
L 433.366123 241.595856 
L 433.806997 243.083252 
L 434.247871 243.89611 
L 434.688745 244.026308 
L 435.129619 243.472546 
L 435.570493 242.240356 
L 436.011366 240.34205 
L 436.893114 234.629424 
L 437.774862 226.562414 
L 438.656609 216.462626 
L 439.979231 198.400538 
L 444.387969 133.573384 
L 445.269716 123.663436 
L 446.151464 115.822966 
L 447.033212 110.364551 
L 447.474085 108.600591 
L 447.914959 107.505799 
L 448.355833 107.091114 
L 448.796707 107.36068 
L 449.237581 108.311803 
L 449.678455 109.93498 
L 450.119328 112.213992 
L 451.001076 118.642113 
L 451.882824 127.339898 
L 453.205445 143.862265 
L 454.96894 170.003998 
L 457.614183 209.518751 
L 458.936805 225.580554 
L 459.818552 233.880086 
L 460.7003 239.855107 
L 461.141174 241.89258 
L 461.582047 243.267412 
L 462.022921 243.965866 
L 462.463795 243.980963 
L 462.904669 243.312553 
L 463.345543 241.967313 
L 463.786417 239.958685 
L 464.668164 234.037973 
L 465.549912 225.786454 
L 466.431659 215.533093 
L 467.754281 197.311643 
L 472.163019 132.669762 
L 473.044767 122.919642 
L 473.926514 115.268653 
L 474.808262 110.021817 
L 475.249136 108.369323 
L 475.690009 107.388309 
L 476.130883 107.088575 
L 476.571757 107.473117 
L 477.012631 108.538093 
L 477.453505 110.272861 
L 477.894379 112.660089 
L 478.776126 119.290233 
L 479.657874 128.164203 
L 480.980495 144.887387 
L 482.743991 171.152487 
L 485.389233 210.514065 
L 486.711855 226.360259 
L 487.593602 234.47589 
L 488.47535 240.243257 
L 488.916224 242.170555 
L 489.357098 243.432434 
L 489.797972 244.016286 
L 490.238845 243.916277 
L 490.679719 243.133408 
L 491.120593 241.675499 
L 491.561467 239.557118 
L 492.443214 233.429992 
L 493.324962 224.996298 
L 494.20671 214.592262 
L 495.529331 196.216603 
L 499.497195 137.253583 
L 500.819817 122.190735 
L 501.701564 114.73139 
L 502.583312 109.697617 
L 503.024186 108.157056 
L 503.46506 107.290096 
L 503.905934 107.105398 
L 504.346807 107.604807 
L 504.787681 108.783335 
L 505.228555 110.629205 
L 506.110303 116.242715 
L 506.99205 124.221544 
L 507.873798 134.247603 
L 509.196419 152.232434 
L 513.605157 217.140939 
L 514.486905 227.125605 
L 515.368653 235.05504 
L 516.2504 240.613123 
L 516.691274 242.4297 
L 517.132148 243.57827 
L 517.573022 244.047355 
L 518.013896 243.832269 
L 518.454769 242.935162 
L 518.895643 241.364996 
L 519.336517 239.13746 
L 520.218265 232.805653 
L 521.100012 224.192169 
L 522.422634 207.766539 
L 524.186129 181.685814 
L 526.831372 142.102415 
L 528.153993 125.940081 
L 529.035741 117.554271 
L 529.917488 111.481493 
L 530.358362 109.392041 
L 530.799236 107.96385 
L 531.24011 107.211189 
L 531.680984 107.141578 
L 532.121858 107.755714 
L 532.562731 109.04746 
L 533.003605 111.00391 
L 533.885353 116.826279 
L 534.7671 124.990704 
L 535.648848 135.171694 
L 536.971469 153.31831 
L 538.294091 173.452891 
L 538.294091 173.452891 
" clip-path="url(#peed9adb0f0)" style="fill: none; stroke: #dd8452; stroke-width: 1.5; stroke-linecap: round"/>
   </g>
   <g id="patch_3">
    <path d="M 73.062 381.348 
L 73.062 15.552 
" style="fill: none; stroke: #ffffff; stroke-width: 1.25; stroke-linejoin: miter; stroke-linecap: square"/>
   </g>
   <g id="patch_4">
    <path d="M 560.448 381.348 
L 560.448 15.552 
" style="fill: none; stroke: #ffffff; stroke-width: 1.25; stroke-linejoin: miter; stroke-linecap: square"/>
   </g>
   <g id="patch_5">
    <path d="M 73.062 381.348 
L 560.448 381.348 
" style="fill: none; stroke: #ffffff; stroke-width: 1.25; stroke-linejoin: miter; stroke-linecap: square"/>
   </g>
   <g id="patch_6">
    <path d="M 73.062 15.552 
L 560.448 15.552 
" style="fill: none; stroke: #ffffff; stroke-width: 1.25; stroke-linejoin: miter; stroke-linecap: square"/>
   </g>
  </g>
 </g>
 <defs>
  <clipPath id="peed9adb0f0">
   <rect x="73.062" y="15.552" width="487.386" height="365.796"/>
  </clipPath>
 </defs>
</svg>
