<?xml version="1.0" encoding="utf-8" standalone="no"?>
<!DOCTYPE svg PUBLIC "-//W3C//DTD SVG 1.1//EN"
  "http://www.w3.org/Graphics/SVG/1.1/DTD/svg11.dtd">
<svg xmlns:xlink="http://www.w3.org/1999/xlink" width="576pt" height="432pt" viewBox="0 0 576 432" xmlns="http://www.w3.org/2000/svg" version="1.1">
 <metadata>
  <rdf:RDF xmlns:dc="http://purl.org/dc/elements/1.1/" xmlns:cc="http://creativecommons.org/ns#" xmlns:rdf="http://www.w3.org/1999/02/22-rdf-syntax-ns#">
   <cc:Work>
    <dc:type rdf:resource="http://purl.org/dc/dcmitype/StillImage"/>
    <dc:date>2023-05-14T13:10:37.023643</dc:date>
    <dc:format>image/svg+xml</dc:format>
    <dc:creator>
     <cc:Agent>
      <dc:title>Matplotlib v3.7.1, https://matplotlib.org/</dc:title>
     </cc:Agent>
    </dc:creator>
   </cc:Work>
  </rdf:RDF>
 </metadata>
 <defs>
  <style type="text/css">*{stroke-linejoin: round; stroke-linecap: butt}</style>
 </defs>
 <g id="figure_1">
  <g id="patch_1">
   <path d="M 0 432 
L 576 432 
L 576 0 
L 0 0 
z
" style="fill: #ffffff"/>
  </g>
  <g id="axes_1">
   <g id="patch_2">
    <path d="M 73.062 381.348 
L 560.448 381.348 
L 560.448 15.552 
L 73.062 15.552 
z
" style="fill: #eaeaf2"/>
   </g>
   <g id="matplotlib.axis_1">
    <g id="xtick_1">
     <g id="line2d_1">
      <path d="M 95.215909 381.348 
L 95.215909 15.552 
" clip-path="url(#p89d5e957db)" style="fill: none; stroke: #ffffff; stroke-linecap: round"/>
     </g>
     <g id="text_1">
      <!-- 0 -->
      <g style="fill: #262626" transform="translate(91.915909 399.923) scale(0.132 -0.132)">
       <defs>
        <path id="SimHei-30" d="M 225 2537 
Q 250 3200 412 3587 
Q 575 3975 875 4225 
Q 1175 4475 1612 4475 
Q 2050 4475 2375 4112 
Q 2700 3750 2800 3200 
Q 2900 2650 2862 1937 
Q 2825 1225 2612 775 
Q 2400 325 1975 150 
Q 1550 -25 1125 187 
Q 700 400 525 750 
Q 350 1100 275 1487 
Q 200 1875 225 2537 
z
M 750 2687 
Q 675 2000 800 1462 
Q 925 925 1212 700 
Q 1500 475 1800 612 
Q 2100 750 2237 1162 
Q 2375 1575 2375 2062 
Q 2375 2550 2337 2950 
Q 2300 3350 2112 3675 
Q 1925 4000 1612 4012 
Q 1300 4025 1062 3700 
Q 825 3375 750 2687 
z
" transform="scale(0.015625)"/>
       </defs>
       <use xlink:href="#SimHei-30"/>
      </g>
     </g>
    </g>
    <g id="xtick_2">
     <g id="line2d_2">
      <path d="M 183.390672 381.348 
L 183.390672 15.552 
" clip-path="url(#p89d5e957db)" style="fill: none; stroke: #ffffff; stroke-linecap: round"/>
     </g>
     <g id="text_2">
      <!-- 20 -->
      <g style="fill: #262626" transform="translate(176.790672 399.923) scale(0.132 -0.132)">
       <defs>
        <path id="SimHei-32" d="M 300 250 
Q 325 625 650 925 
Q 975 1225 1475 1862 
Q 1975 2500 2125 2850 
Q 2275 3200 2237 3450 
Q 2200 3700 2000 3862 
Q 1800 4025 1537 4000 
Q 1275 3975 1037 3800 
Q 800 3625 675 3275 
L 200 3350 
Q 400 3925 712 4187 
Q 1025 4450 1450 4475 
Q 1700 4500 1900 4462 
Q 2100 4425 2312 4287 
Q 2525 4150 2662 3875 
Q 2800 3600 2762 3212 
Q 2725 2825 2375 2287 
Q 2025 1750 1025 600 
L 2825 600 
L 2825 150 
L 300 150 
L 300 250 
z
" transform="scale(0.015625)"/>
       </defs>
       <use xlink:href="#SimHei-32"/>
       <use xlink:href="#SimHei-30" x="50"/>
      </g>
     </g>
    </g>
    <g id="xtick_3">
     <g id="line2d_3">
      <path d="M 271.565434 381.348 
L 271.565434 15.552 
" clip-path="url(#p89d5e957db)" style="fill: none; stroke: #ffffff; stroke-linecap: round"/>
     </g>
     <g id="text_3">
      <!-- 40 -->
      <g style="fill: #262626" transform="translate(264.965434 399.923) scale(0.132 -0.132)">
       <defs>
        <path id="SimHei-34" d="M 2000 1100 
L 75 1100 
L 75 1525 
L 2100 4450 
L 2475 4450 
L 2475 1525 
L 3075 1525 
L 3075 1100 
L 2475 1100 
L 2475 150 
L 2000 150 
L 2000 1100 
z
M 2000 1525 
L 2000 3500 
L 600 1525 
L 2000 1525 
z
" transform="scale(0.015625)"/>
       </defs>
       <use xlink:href="#SimHei-34"/>
       <use xlink:href="#SimHei-30" x="50"/>
      </g>
     </g>
    </g>
    <g id="xtick_4">
     <g id="line2d_4">
      <path d="M 359.740197 381.348 
L 359.740197 15.552 
" clip-path="url(#p89d5e957db)" style="fill: none; stroke: #ffffff; stroke-linecap: round"/>
     </g>
     <g id="text_4">
      <!-- 60 -->
      <g style="fill: #262626" transform="translate(353.140197 399.923) scale(0.132 -0.132)">
       <defs>
        <path id="SimHei-36" d="M 250 1612 
Q 275 1975 387 2225 
Q 500 2475 725 2850 
L 1750 4450 
L 2325 4450 
L 1275 2800 
Q 1950 2975 2350 2750 
Q 2750 2525 2887 2237 
Q 3025 1950 3037 1612 
Q 3050 1275 2937 950 
Q 2825 625 2537 362 
Q 2250 100 1737 75 
Q 1225 50 862 262 
Q 500 475 362 862 
Q 225 1250 250 1612 
z
M 1025 787 
Q 1250 550 1625 525 
Q 2000 500 2250 775 
Q 2500 1050 2500 1575 
Q 2500 2100 2187 2300 
Q 1875 2500 1487 2450 
Q 1100 2400 925 2075 
Q 750 1750 775 1387 
Q 800 1025 1025 787 
z
" transform="scale(0.015625)"/>
       </defs>
       <use xlink:href="#SimHei-36"/>
       <use xlink:href="#SimHei-30" x="50"/>
      </g>
     </g>
    </g>
    <g id="xtick_5">
     <g id="line2d_5">
      <path d="M 447.914959 381.348 
L 447.914959 15.552 
" clip-path="url(#p89d5e957db)" style="fill: none; stroke: #ffffff; stroke-linecap: round"/>
     </g>
     <g id="text_5">
      <!-- 80 -->
      <g style="fill: #262626" transform="translate(441.314959 399.923) scale(0.132 -0.132)">
       <defs>
        <path id="SimHei-38" d="M 175 1375 
Q 175 1675 325 1962 
Q 475 2250 825 2425 
Q 525 2600 425 2812 
Q 325 3025 312 3300 
Q 300 3575 387 3775 
Q 475 3975 650 4150 
Q 825 4325 1037 4387 
Q 1250 4450 1500 4450 
Q 1750 4450 1950 4400 
Q 2150 4350 2375 4187 
Q 2600 4025 2700 3725 
Q 2800 3425 2687 3025 
Q 2575 2625 2100 2400 
Q 2525 2275 2700 2012 
Q 2875 1750 2875 1375 
Q 2875 1000 2762 775 
Q 2650 550 2512 400 
Q 2375 250 2137 162 
Q 1900 75 1537 75 
Q 1175 75 912 162 
Q 650 250 475 425 
Q 300 600 237 837 
Q 175 1075 175 1375 
z
M 687 1400 
Q 675 1100 787 875 
Q 900 650 1200 587 
Q 1500 525 1825 600 
Q 2150 675 2275 950 
Q 2400 1225 2362 1500 
Q 2325 1775 2050 1962 
Q 1775 2150 1450 2125 
Q 1125 2100 912 1900 
Q 700 1700 687 1400 
z
M 775 3350 
Q 775 3100 950 2875 
Q 1125 2650 1500 2650 
Q 1875 2650 2062 2875 
Q 2250 3100 2237 3412 
Q 2225 3725 2012 3875 
Q 1800 4025 1437 4000 
Q 1075 3975 925 3787 
Q 775 3600 775 3350 
z
" transform="scale(0.015625)"/>
       </defs>
       <use xlink:href="#SimHei-38"/>
       <use xlink:href="#SimHei-30" x="50"/>
      </g>
     </g>
    </g>
    <g id="xtick_6">
     <g id="line2d_6">
      <path d="M 536.089722 381.348 
L 536.089722 15.552 
" clip-path="url(#p89d5e957db)" style="fill: none; stroke: #ffffff; stroke-linecap: round"/>
     </g>
     <g id="text_6">
      <!-- 100 -->
      <g style="fill: #262626" transform="translate(526.189722 399.923) scale(0.132 -0.132)">
       <defs>
        <path id="SimHei-31" d="M 1400 3600 
Q 1075 3275 575 2975 
L 575 3450 
Q 1200 3875 1600 4450 
L 1900 4450 
L 1900 150 
L 1400 150 
L 1400 3600 
z
" transform="scale(0.015625)"/>
       </defs>
       <use xlink:href="#SimHei-31"/>
       <use xlink:href="#SimHei-30" x="50"/>
       <use xlink:href="#SimHei-30" x="100"/>
      </g>
     </g>
    </g>
    <g id="text_7">
     <!-- Time/ms -->
     <g style="fill: #262626" transform="translate(291.555 415.473) scale(0.144 -0.144)">
      <defs>
       <path id="SimHei-54" d="M 2850 3925 
L 1850 3925 
L 1850 125 
L 1275 125 
L 1275 3925 
L 275 3925 
L 275 4400 
L 2850 4400 
L 2850 3925 
z
" transform="scale(0.015625)"/>
       <path id="SimHei-69" d="M 1800 3725 
L 1300 3725 
L 1300 4375 
L 1800 4375 
L 1800 3725 
z
M 1800 125 
L 1300 125 
L 1300 2925 
L 1800 2925 
L 1800 125 
z
" transform="scale(0.015625)"/>
       <path id="SimHei-6d" d="M 3050 125 
L 2550 125 
L 2550 2150 
Q 2550 2300 2500 2400 
Q 2450 2500 2300 2500 
Q 2125 2500 1975 2312 
Q 1825 2125 1825 1825 
L 1825 125 
L 1325 125 
L 1325 2150 
Q 1325 2300 1275 2400 
Q 1225 2500 1075 2500 
Q 900 2500 750 2312 
Q 600 2125 600 1825 
L 600 125 
L 100 125 
L 100 2925 
L 600 2925 
L 600 2550 
Q 725 2750 900 2862 
Q 1075 2975 1275 2975 
Q 1475 2975 1612 2862 
Q 1750 2750 1800 2550 
Q 1925 2750 2087 2862 
Q 2250 2975 2450 2975 
Q 2750 2975 2900 2812 
Q 3050 2650 3050 2350 
L 3050 125 
z
" transform="scale(0.015625)"/>
       <path id="SimHei-65" d="M 2850 1075 
Q 2800 625 2450 350 
Q 2100 75 1625 75 
Q 1025 75 637 462 
Q 250 850 250 1525 
Q 250 2200 637 2587 
Q 1025 2975 1625 2975 
Q 2150 2975 2487 2637 
Q 2825 2300 2825 1525 
L 800 1525 
Q 800 975 1037 750 
Q 1275 525 1625 525 
Q 1900 525 2075 662 
Q 2250 800 2300 1075 
L 2850 1075 
z
M 2250 1925 
Q 2200 2275 2025 2412 
Q 1850 2550 1575 2550 
Q 1325 2550 1125 2412 
Q 925 2275 825 1925 
L 2250 1925 
z
" transform="scale(0.015625)"/>
       <path id="SimHei-2f" d="M 3000 4550 
L 350 -175 
L 100 -25 
L 2750 4700 
L 3000 4550 
z
" transform="scale(0.015625)"/>
       <path id="SimHei-73" d="M 2750 900 
Q 2750 500 2437 287 
Q 2125 75 1650 75 
Q 1050 75 725 312 
Q 400 550 400 1000 
L 900 1000 
Q 900 700 1112 600 
Q 1325 500 1625 500 
Q 1925 500 2075 612 
Q 2225 725 2225 900 
Q 2225 1025 2100 1150 
Q 1975 1275 1475 1350 
Q 900 1425 687 1637 
Q 475 1850 475 2200 
Q 475 2500 762 2737 
Q 1050 2975 1600 2975 
Q 2100 2975 2387 2750 
Q 2675 2525 2675 2150 
L 2175 2150 
Q 2175 2375 2012 2462 
Q 1850 2550 1600 2550 
Q 1275 2550 1137 2437 
Q 1000 2325 1000 2175 
Q 1000 2000 1125 1900 
Q 1250 1800 1650 1750 
Q 2300 1650 2525 1437 
Q 2750 1225 2750 900 
z
" transform="scale(0.015625)"/>
      </defs>
      <use xlink:href="#SimHei-54"/>
      <use xlink:href="#SimHei-69" x="50"/>
      <use xlink:href="#SimHei-6d" x="100"/>
      <use xlink:href="#SimHei-65" x="150"/>
      <use xlink:href="#SimHei-2f" x="200"/>
      <use xlink:href="#SimHei-6d" x="250"/>
      <use xlink:href="#SimHei-73" x="300"/>
     </g>
    </g>
   </g>
   <g id="matplotlib.axis_2">
    <g id="ytick_1">
     <g id="line2d_7">
      <path d="M 73.062 355.273439 
L 560.448 355.273439 
" clip-path="url(#p89d5e957db)" style="fill: none; stroke: #ffffff; stroke-linecap: round"/>
     </g>
     <g id="text_8">
      <!-- -7500 -->
      <g style="fill: #262626" transform="translate(30.562 359.810939) scale(0.132 -0.132)">
       <defs>
        <path id="SimHei-2d" d="M 2975 2125 
L 125 2125 
L 125 2525 
L 2975 2525 
L 2975 2125 
z
" transform="scale(0.015625)"/>
        <path id="SimHei-37" d="M 850 150 
Q 1300 2050 2425 3925 
L 275 3925 
L 275 4375 
L 2950 4375 
L 2950 3950 
Q 1775 2050 1400 150 
L 850 150 
z
" transform="scale(0.015625)"/>
        <path id="SimHei-35" d="M 550 1325 
Q 725 650 1150 575 
Q 1575 500 1837 662 
Q 2100 825 2212 1087 
Q 2325 1350 2312 1675 
Q 2300 2000 2137 2225 
Q 1975 2450 1725 2525 
Q 1475 2600 1162 2525 
Q 850 2450 650 2175 
L 225 2225 
Q 275 2375 700 4375 
L 2675 4375 
L 2675 3925 
L 1075 3925 
Q 950 3250 825 2850 
Q 1200 3025 1525 3012 
Q 1850 3000 2150 2862 
Q 2450 2725 2587 2487 
Q 2725 2250 2787 2012 
Q 2850 1775 2837 1500 
Q 2825 1225 2725 937 
Q 2625 650 2425 462 
Q 2225 275 1937 162 
Q 1650 50 1275 75 
Q 900 100 562 350 
Q 225 600 100 1200 
L 550 1325 
z
" transform="scale(0.015625)"/>
       </defs>
       <use xlink:href="#SimHei-2d"/>
       <use xlink:href="#SimHei-37" x="50"/>
       <use xlink:href="#SimHei-35" x="100"/>
       <use xlink:href="#SimHei-30" x="150"/>
       <use xlink:href="#SimHei-30" x="200"/>
      </g>
     </g>
    </g>
    <g id="ytick_2">
     <g id="line2d_8">
      <path d="M 73.062 308.025414 
L 560.448 308.025414 
" clip-path="url(#p89d5e957db)" style="fill: none; stroke: #ffffff; stroke-linecap: round"/>
     </g>
     <g id="text_9">
      <!-- -5000 -->
      <g style="fill: #262626" transform="translate(30.562 312.562914) scale(0.132 -0.132)">
       <use xlink:href="#SimHei-2d"/>
       <use xlink:href="#SimHei-35" x="50"/>
       <use xlink:href="#SimHei-30" x="100"/>
       <use xlink:href="#SimHei-30" x="150"/>
       <use xlink:href="#SimHei-30" x="200"/>
      </g>
     </g>
    </g>
    <g id="ytick_3">
     <g id="line2d_9">
      <path d="M 73.062 260.77739 
L 560.448 260.77739 
" clip-path="url(#p89d5e957db)" style="fill: none; stroke: #ffffff; stroke-linecap: round"/>
     </g>
     <g id="text_10">
      <!-- -2500 -->
      <g style="fill: #262626" transform="translate(30.562 265.31489) scale(0.132 -0.132)">
       <use xlink:href="#SimHei-2d"/>
       <use xlink:href="#SimHei-32" x="50"/>
       <use xlink:href="#SimHei-35" x="100"/>
       <use xlink:href="#SimHei-30" x="150"/>
       <use xlink:href="#SimHei-30" x="200"/>
      </g>
     </g>
    </g>
    <g id="ytick_4">
     <g id="line2d_10">
      <path d="M 73.062 213.529366 
L 560.448 213.529366 
" clip-path="url(#p89d5e957db)" style="fill: none; stroke: #ffffff; stroke-linecap: round"/>
     </g>
     <g id="text_11">
      <!-- 0 -->
      <g style="fill: #262626" transform="translate(56.962 218.066866) scale(0.132 -0.132)">
       <use xlink:href="#SimHei-30"/>
      </g>
     </g>
    </g>
    <g id="ytick_5">
     <g id="line2d_11">
      <path d="M 73.062 166.281341 
L 560.448 166.281341 
" clip-path="url(#p89d5e957db)" style="fill: none; stroke: #ffffff; stroke-linecap: round"/>
     </g>
     <g id="text_12">
      <!-- 2500 -->
      <g style="fill: #262626" transform="translate(37.162 170.818841) scale(0.132 -0.132)">
       <use xlink:href="#SimHei-32"/>
       <use xlink:href="#SimHei-35" x="50"/>
       <use xlink:href="#SimHei-30" x="100"/>
       <use xlink:href="#SimHei-30" x="150"/>
      </g>
     </g>
    </g>
    <g id="ytick_6">
     <g id="line2d_12">
      <path d="M 73.062 119.033317 
L 560.448 119.033317 
" clip-path="url(#p89d5e957db)" style="fill: none; stroke: #ffffff; stroke-linecap: round"/>
     </g>
     <g id="text_13">
      <!-- 5000 -->
      <g style="fill: #262626" transform="translate(37.162 123.570817) scale(0.132 -0.132)">
       <use xlink:href="#SimHei-35"/>
       <use xlink:href="#SimHei-30" x="50"/>
       <use xlink:href="#SimHei-30" x="100"/>
       <use xlink:href="#SimHei-30" x="150"/>
      </g>
     </g>
    </g>
    <g id="ytick_7">
     <g id="line2d_13">
      <path d="M 73.062 71.785292 
L 560.448 71.785292 
" clip-path="url(#p89d5e957db)" style="fill: none; stroke: #ffffff; stroke-linecap: round"/>
     </g>
     <g id="text_14">
      <!-- 7500 -->
      <g style="fill: #262626" transform="translate(37.162 76.322792) scale(0.132 -0.132)">
       <use xlink:href="#SimHei-37"/>
       <use xlink:href="#SimHei-35" x="50"/>
       <use xlink:href="#SimHei-30" x="100"/>
       <use xlink:href="#SimHei-30" x="150"/>
      </g>
     </g>
    </g>
    <g id="ytick_8">
     <g id="line2d_14">
      <path d="M 73.062 24.537268 
L 560.448 24.537268 
" clip-path="url(#p89d5e957db)" style="fill: none; stroke: #ffffff; stroke-linecap: round"/>
     </g>
     <g id="text_15">
      <!-- 10000 -->
      <g style="fill: #262626" transform="translate(30.562 29.074768) scale(0.132 -0.132)">
       <use xlink:href="#SimHei-31"/>
       <use xlink:href="#SimHei-30" x="50"/>
       <use xlink:href="#SimHei-30" x="100"/>
       <use xlink:href="#SimHei-30" x="150"/>
       <use xlink:href="#SimHei-30" x="200"/>
      </g>
     </g>
    </g>
    <g id="text_16">
     <!-- Current/A -->
     <g style="fill: #262626" transform="translate(24.762 230.85) rotate(-90) scale(0.144 -0.144)">
      <defs>
       <path id="SimHei-43" d="M 2975 1825 
Q 2950 875 2575 475 
Q 2200 75 1675 75 
Q 1075 75 650 562 
Q 225 1050 225 2125 
Q 225 3300 637 3875 
Q 1050 4450 1700 4450 
Q 2250 4450 2612 4037 
Q 2975 3625 2950 2875 
L 2400 2875 
Q 2400 3425 2225 3700 
Q 2050 3975 1700 3975 
Q 1300 3975 1062 3562 
Q 825 3150 825 2175 
Q 825 1275 1062 912 
Q 1300 550 1675 550 
Q 1950 550 2175 812 
Q 2400 1075 2400 1825 
L 2975 1825 
z
" transform="scale(0.015625)"/>
       <path id="SimHei-75" d="M 2800 125 
L 2300 125 
L 2300 650 
Q 2100 375 1862 225 
Q 1625 75 1250 75 
Q 800 75 575 325 
Q 350 575 350 950 
L 350 2925 
L 850 2925 
L 850 1125 
Q 850 825 1000 650 
Q 1150 475 1400 475 
Q 1725 475 2012 812 
Q 2300 1150 2300 1650 
L 2300 2925 
L 2800 2925 
L 2800 125 
z
" transform="scale(0.015625)"/>
       <path id="SimHei-72" d="M 2500 2425 
Q 2025 2500 1700 2287 
Q 1375 2075 1150 1550 
L 1150 125 
L 650 125 
L 650 2925 
L 1150 2925 
L 1150 2200 
Q 1375 2600 1712 2787 
Q 2050 2975 2500 2975 
L 2500 2425 
z
" transform="scale(0.015625)"/>
       <path id="SimHei-6e" d="M 2800 125 
L 2300 125 
L 2300 1925 
Q 2300 2225 2150 2400 
Q 2000 2575 1750 2575 
Q 1425 2575 1137 2237 
Q 850 1900 850 1400 
L 850 125 
L 350 125 
L 350 2925 
L 850 2925 
L 850 2400 
Q 1050 2675 1287 2825 
Q 1525 2975 1900 2975 
Q 2350 2975 2575 2725 
Q 2800 2475 2800 2100 
L 2800 125 
z
" transform="scale(0.015625)"/>
       <path id="SimHei-74" d="M 2750 200 
Q 2625 150 2462 112 
Q 2300 75 2025 75 
Q 1575 75 1300 325 
Q 1025 575 1025 1025 
L 1025 2525 
L 175 2525 
L 175 2925 
L 1025 2925 
L 1025 3900 
L 1525 3900 
L 1525 2925 
L 2550 2925 
L 2550 2525 
L 1525 2525 
L 1525 1000 
Q 1525 800 1625 662 
Q 1725 525 2000 525 
Q 2275 525 2450 575 
Q 2625 625 2750 700 
L 2750 200 
z
" transform="scale(0.015625)"/>
       <path id="SimHei-41" d="M 3075 125 
L 2475 125 
L 2125 1450 
L 1025 1450 
L 675 125 
L 75 125 
L 1325 4450 
L 1825 4450 
L 3075 125 
z
M 2000 1925 
L 1600 3450 
L 1550 3450 
L 1150 1925 
L 2000 1925 
z
" transform="scale(0.015625)"/>
      </defs>
      <use xlink:href="#SimHei-43"/>
      <use xlink:href="#SimHei-75" x="50"/>
      <use xlink:href="#SimHei-72" x="100"/>
      <use xlink:href="#SimHei-72" x="150"/>
      <use xlink:href="#SimHei-65" x="200"/>
      <use xlink:href="#SimHei-6e" x="250"/>
      <use xlink:href="#SimHei-74" x="300"/>
      <use xlink:href="#SimHei-2f" x="350"/>
      <use xlink:href="#SimHei-41" x="400"/>
     </g>
    </g>
   </g>
   <g id="PolyCollection_1"/>
   <g id="PolyCollection_2"/>
   <g id="line2d_15">
    <path d="M 95.215909 213.529366 
L 97.420278 206.280755 
L 98.7429 202.683395 
L 99.624647 200.806856 
L 100.506395 199.437524 
L 101.388142 198.629989 
L 101.829016 198.447872 
L 102.26989 198.416445 
L 102.710764 198.536021 
L 103.151638 198.805405 
L 104.033385 199.781363 
L 104.915133 201.305411 
L 105.796881 203.316789 
L 107.119502 207.067652 
L 109.323871 214.411946 
L 111.52824 221.540153 
L 112.850862 224.971741 
L 113.732609 226.70704 
L 114.614357 227.916987 
L 115.496104 228.553345 
L 115.936978 228.647573 
L 116.377852 228.590745 
L 116.818726 228.383428 
L 117.2596 228.027694 
L 118.141347 226.886642 
L 119.023095 225.213076 
L 119.904843 223.073718 
L 121.227464 219.182144 
L 126.077076 203.596144 
L 126.958824 201.529609 
L 127.840571 199.941467 
L 128.722319 198.895032 
L 129.163193 198.588887 
L 129.604066 198.432022 
L 130.04494 198.426004 
L 130.485814 198.570894 
L 130.926688 198.865245 
L 131.808436 199.889098 
L 132.690183 201.456745 
L 133.571931 203.50569 
L 134.894552 207.298395 
L 137.098921 214.665603 
L 138.862417 220.447019 
L 140.185038 224.111028 
L 141.066786 226.045579 
L 141.948533 227.481147 
L 142.830281 228.360501 
L 143.271155 228.579732 
L 143.712028 228.648585 
L 144.152902 228.566372 
L 144.593776 228.333914 
L 145.475524 227.429032 
L 146.357271 225.970014 
L 147.239019 224.015026 
L 148.56164 220.327751 
L 150.325136 214.532111 
L 152.970379 205.838726 
L 154.293 202.33535 
L 155.174748 200.539382 
L 156.056495 199.261284 
L 156.938243 198.552009 
L 157.379117 198.420439 
L 157.819991 198.439834 
L 158.260864 198.609997 
L 158.701738 198.929231 
L 159.583486 200.000689 
L 160.465233 201.611493 
L 161.346981 203.697425 
L 162.669602 207.530899 
L 164.873972 214.918939 
L 166.637467 220.672087 
L 167.960088 224.29111 
L 168.841836 226.18642 
L 169.723583 227.577133 
L 170.605331 228.407806 
L 171.046205 228.601864 
L 171.487079 228.645323 
L 171.927953 228.537748 
L 172.368826 228.280214 
L 173.250574 227.327035 
L 174.132322 225.823787 
L 175.014069 223.830399 
L 176.336691 220.099723 
L 178.100186 214.278313 
L 180.304555 206.946917 
L 181.627176 203.218507 
L 182.508924 201.227133 
L 183.390672 199.726211 
L 184.272419 198.775576 
L 184.713293 198.519365 
L 185.154167 198.413129 
L 185.595041 198.457929 
L 186.035915 198.653318 
L 186.476788 198.997344 
L 187.358536 200.116105 
L 188.240284 201.76961 
L 189.122031 203.891939 
L 190.444653 207.765099 
L 193.089896 216.664161 
L 194.853391 222.17652 
L 196.176012 225.455497 
L 197.05776 227.064033 
L 197.939507 228.132984 
L 198.380381 228.450905 
L 198.821255 228.619735 
L 199.262129 228.637787 
L 199.703003 228.504881 
L 200.143877 228.222344 
L 201.025624 227.221138 
L 201.907372 225.674084 
L 202.789119 223.642859 
L 204.111741 219.869838 
L 206.31611 212.513222 
L 208.079605 206.718989 
L 209.402227 203.034035 
L 210.283974 201.081091 
L 211.165722 199.624421 
L 212.047469 198.722097 
L 212.488343 198.490965 
L 212.929217 198.410092 
L 213.370091 198.480286 
L 213.810965 198.700845 
L 214.692712 199.582765 
L 215.57446 201.020691 
L 216.456208 202.957298 
L 217.778829 206.623655 
L 219.542324 212.406519 
L 222.187567 221.116103 
L 223.510189 224.642095 
L 224.391936 226.457329 
L 225.273684 227.757166 
L 226.155431 228.489785 
L 226.596305 228.633339 
L 227.037179 228.625979 
L 227.478053 228.467779 
L 227.918927 228.160319 
L 228.800674 227.11137 
L 229.682422 225.520948 
L 230.56417 223.45246 
L 231.886791 219.638159 
L 234.09116 212.259725 
L 235.854655 206.492986 
L 237.177277 202.85253 
L 238.059024 200.938569 
L 238.940772 199.526563 
L 239.82252 198.672805 
L 240.263393 198.466817 
L 240.704267 198.41133 
L 241.145141 198.506898 
L 241.586015 198.752565 
L 242.467763 199.682903 
L 243.34951 201.165257 
L 244.231258 203.140528 
L 245.553879 206.850781 
L 247.317374 212.660191 
L 249.962617 221.334924 
L 251.285239 224.8129 
L 252.166986 226.58732 
L 253.048734 227.84116 
L 253.930482 228.524435 
L 254.371355 228.642673 
L 254.812229 228.609903 
L 255.253103 228.426454 
L 255.693977 228.094158 
L 256.575725 226.997761 
L 257.457472 225.364421 
L 258.33922 223.259255 
L 259.661841 219.404754 
L 261.425336 213.515937 
L 263.629706 126.404653 
L 264.952327 83.265502 
L 265.834075 60.772249 
L 266.715822 44.368941 
L 267.156696 38.665642 
L 267.59757 34.709524 
L 268.038444 32.540115 
L 268.479318 32.179091 
L 268.920191 33.630059 
L 269.361065 36.878521 
L 269.801939 41.892019 
L 270.683687 56.99662 
L 271.565434 78.341686 
L 272.447182 105.076259 
L 273.769803 152.903511 
L 274.651551 188.08516 
L 275.092425 212.914109 
L 275.533299 222.489218 
L 277.296794 280.556053 
L 278.619415 317.612701 
L 279.501163 337.324832 
L 280.38291 352.10163 
L 280.823784 357.446796 
L 281.264658 361.353988 
L 281.705532 363.784164 
L 282.146406 364.713045 
L 282.58728 364.131348 
L 283.028153 362.044886 
L 283.469027 358.474505 
L 283.909901 353.455881 
L 284.791649 339.288448 
L 285.673396 320.107398 
L 286.996018 283.655339 
L 288.759513 225.958134 
L 291.404756 138.705834 
L 292.727377 103.221975 
L 293.609125 84.878132 
L 294.490872 71.663208 
L 294.931746 67.152348 
L 295.37262 64.104039 
L 295.813494 62.548739 
L 296.254368 62.501987 
L 296.695242 63.964251 
L 297.136115 66.92092 
L 297.576989 71.342452 
L 298.458737 84.389196 
L 299.340484 102.584352 
L 300.222232 125.202535 
L 301.544853 165.410993 
L 305.953592 308.140876 
L 306.835339 329.684614 
L 307.717087 346.597608 
L 308.598834 358.205591 
L 309.039708 361.866759 
L 309.480582 364.045789 
L 309.921456 364.720909 
L 310.36233 363.885373 
L 310.803204 361.547529 
L 311.244077 357.730737 
L 311.684951 352.473133 
L 312.566699 337.859486 
L 313.448446 318.28919 
L 314.771068 281.39325 
L 316.534563 223.422825 
L 319.179806 136.507384 
L 320.502427 101.498991 
L 321.384175 83.560869 
L 322.265923 70.80418 
L 322.706796 66.536484 
L 323.14767 63.737493 
L 323.588544 62.435173 
L 324.029418 62.642537 
L 324.470292 64.357511 
L 324.911166 67.562961 
L 325.352039 72.22686 
L 326.233787 85.729494 
L 327.115535 104.327105 
L 327.997282 127.278266 
L 329.319904 167.82777 
L 333.287768 298.014737 
L 334.610389 331.29554 
L 335.492137 347.785699 
L 336.373885 358.923481 
L 336.814758 362.337591 
L 337.255632 364.264859 
L 337.696506 364.686027 
L 338.13738 363.596889 
L 338.578254 361.008324 
L 339.019128 356.946199 
L 339.900875 344.577934 
L 340.782623 326.985175 
L 341.66437 304.869291 
L 342.986992 265.184087 
L 347.39573 121.868737 
L 348.277478 99.807681 
L 349.159225 82.280351 
L 350.040973 69.985504 
L 350.481847 65.96218 
L 350.92272 63.413298 
L 351.363594 62.364327 
L 351.804468 62.825746 
L 352.245342 64.792946 
L 352.686216 68.246272 
L 353.12709 73.151218 
L 354.008837 87.105923 
L 354.890585 106.100732 
L 356.213206 142.338968 
L 357.976701 199.901083 
L 360.621944 287.304314 
L 361.944566 323.009856 
L 362.826313 341.544041 
L 363.708061 354.974686 
L 364.148935 359.600265 
L 364.589809 362.766352 
L 365.030682 364.441312 
L 365.471556 364.60841 
L 365.91243 363.265976 
L 366.353304 360.427423 
L 366.794178 356.121114 
L 367.675925 343.291569 
L 368.557673 325.288814 
L 369.439421 302.830563 
L 370.762042 262.787594 
L 375.17078 119.859977 
L 376.052528 98.148524 
L 376.934275 81.03694 
L 377.816023 69.207412 
L 378.256897 65.429596 
L 378.697771 63.131545 
L 379.138645 62.336218 
L 379.579518 63.051564 
L 380.020392 65.270434 
L 380.461266 68.970658 
L 380.90214 74.115265 
L 381.783887 88.518096 
L 382.665635 107.904733 
L 383.988256 144.591748 
L 386.192626 213.930802 
L 388.396995 221.127715 
L 389.719616 224.651196 
L 390.601364 226.464287 
L 391.483111 227.761703 
L 392.364859 228.491721 
L 392.805733 228.633939 
L 393.246607 228.625237 
L 393.68748 228.465702 
L 394.128354 228.156928 
L 395.010102 227.105465 
L 395.891849 225.512765 
L 396.773597 223.442325 
L 398.096218 219.625873 
L 400.300588 212.246345 
L 402.064083 206.481103 
L 403.386704 202.843026 
L 404.268452 200.931139 
L 405.150199 199.521504 
L 406.031947 198.670318 
L 406.472821 198.46566 
L 406.913695 198.411515 
L 407.354569 198.508422 
L 407.795442 198.755413 
L 408.67719 199.688302 
L 409.558938 201.17299 
L 410.440685 203.150289 
L 411.763307 206.862831 
L 413.526802 212.673598 
L 416.172045 221.346421 
L 417.494666 224.821833 
L 418.376414 226.594083 
L 419.258161 227.845485 
L 420.139909 228.526147 
L 420.580783 228.643047 
L 421.021657 228.608936 
L 421.462531 228.424154 
L 421.903404 228.090549 
L 422.785152 226.991654 
L 423.6669 225.35606 
L 424.548647 223.248973 
L 425.871269 219.392379 
L 428.516512 210.499294 
L 430.280007 204.970176 
L 431.602628 201.669282 
L 432.484376 200.042713 
L 433.366123 198.953814 
L 433.806997 198.625447 
L 434.247871 198.445996 
L 434.688745 198.417253 
L 435.129619 198.539505 
L 435.570493 198.81153 
L 436.45224 199.792561 
L 437.333988 201.321236 
L 438.215735 203.336609 
L 439.538357 207.091943 
L 441.742726 214.438755 
L 443.947095 221.562918 
L 445.269716 224.989278 
L 446.151464 226.720186 
L 447.033212 227.925219 
L 447.914959 228.556334 
L 448.355833 228.647882 
L 448.796707 228.588371 
L 449.237581 228.378395 
L 449.678455 228.020053 
L 450.560202 226.874038 
L 451.44195 225.196012 
L 452.323697 223.052874 
L 453.646319 219.157226 
L 458.495931 203.575912 
L 459.377678 201.51329 
L 460.259426 199.929711 
L 461.141174 198.888307 
L 461.582047 198.584791 
L 462.022921 198.430596 
L 462.463795 198.427263 
L 462.904669 198.574826 
L 463.345543 198.871809 
L 464.22729 199.900705 
L 465.109038 201.472932 
L 465.990786 203.525812 
L 467.313407 207.322874 
L 469.517776 214.692382 
L 471.281271 220.470889 
L 472.603893 224.130195 
L 473.48564 226.060625 
L 474.367388 227.491474 
L 475.249136 228.365697 
L 475.690009 228.582272 
L 476.130883 228.648443 
L 476.571757 228.563549 
L 477.012631 228.328438 
L 477.894379 227.418442 
L 478.776126 225.954732 
L 479.657874 223.995661 
L 480.980495 220.303752 
L 482.743991 214.505312 
L 485.389233 205.815615 
L 486.711855 202.317315 
L 487.593602 200.52566 
L 488.47535 199.252422 
L 489.357098 198.54836 
L 489.797972 198.419465 
L 490.238845 198.441544 
L 490.679719 198.614375 
L 491.120593 198.936231 
L 492.002341 200.012701 
L 492.884088 201.628038 
L 493.765836 203.717843 
L 495.088457 207.555561 
L 497.292826 214.94568 
L 499.056322 220.695747 
L 500.378943 224.309957 
L 501.260691 226.20109 
L 502.142438 227.587042 
L 503.024186 228.412558 
L 503.46506 228.603954 
L 503.905934 228.644729 
L 504.346807 228.534476 
L 504.787681 228.274297 
L 505.669429 227.316032 
L 506.551176 225.808136 
L 507.432924 223.810724 
L 508.755545 220.075525 
L 510.519041 214.251488 
L 512.72341 206.922749 
L 514.046031 203.19888 
L 514.927779 201.21154 
L 515.809526 199.715273 
L 516.691274 198.769729 
L 517.132148 198.516164 
L 517.573022 198.412606 
L 518.013896 198.46009 
L 518.454769 198.658141 
L 518.895643 199.00478 
L 519.777391 200.128519 
L 520.659138 201.786508 
L 521.540886 203.912648 
L 522.863507 207.789937 
L 525.50875 216.690429 
L 527.272246 222.198537 
L 528.594867 225.471986 
L 529.476615 227.075981 
L 530.358362 228.139916 
L 530.799236 228.455212 
L 531.24011 228.621374 
L 531.680984 228.636741 
L 532.121858 228.501161 
L 532.562731 228.215987 
L 533.444479 227.209724 
L 534.326227 225.658068 
L 535.207974 223.62288 
L 536.530596 219.845447 
L 538.294091 213.997461 
L 538.294091 213.997461 
" clip-path="url(#p89d5e957db)" style="fill: none; stroke: #4c72b0; stroke-width: 1.5; stroke-linecap: round"/>
   </g>
   <g id="line2d_16">
    <path d="M 95.215909 213.529366 
L 97.420278 220.777977 
L 98.7429 224.375336 
L 99.624647 226.251875 
L 100.506395 227.621207 
L 101.388142 228.428743 
L 101.829016 228.610859 
L 102.26989 228.642287 
L 102.710764 228.522711 
L 103.151638 228.253326 
L 104.033385 227.277368 
L 104.915133 225.75332 
L 105.796881 223.741942 
L 107.119502 219.991079 
L 109.323871 212.646785 
L 111.52824 205.518578 
L 112.850862 202.08699 
L 113.732609 200.351691 
L 114.614357 199.141744 
L 115.496104 198.505386 
L 115.936978 198.411158 
L 116.377852 198.467987 
L 116.818726 198.675303 
L 117.2596 199.031037 
L 118.141347 200.17209 
L 119.023095 201.845655 
L 119.904843 203.985013 
L 121.227464 207.876587 
L 126.077076 223.462588 
L 126.958824 225.529122 
L 127.840571 227.117264 
L 128.722319 228.163699 
L 129.163193 228.469845 
L 129.604066 228.62671 
L 130.04494 228.632727 
L 130.485814 228.487837 
L 130.926688 228.193486 
L 131.808436 227.169633 
L 132.690183 225.601986 
L 133.571931 223.553041 
L 134.894552 219.760337 
L 137.098921 212.393128 
L 138.862417 206.611712 
L 140.185038 202.947703 
L 141.066786 201.013153 
L 141.948533 199.577585 
L 142.830281 198.69823 
L 143.271155 198.478999 
L 143.712028 198.410146 
L 144.152902 198.492359 
L 144.593776 198.724817 
L 145.475524 199.6297 
L 146.357271 201.088717 
L 147.239019 203.043705 
L 148.56164 206.73098 
L 150.325136 212.52662 
L 152.970379 221.220005 
L 154.293 224.723381 
L 155.174748 226.519349 
L 156.056495 227.797448 
L 156.938243 228.506723 
L 157.379117 228.638292 
L 157.819991 228.618898 
L 158.260864 228.448734 
L 158.701738 228.129501 
L 159.583486 227.058042 
L 160.465233 225.447239 
L 161.346981 223.361307 
L 162.669602 219.527832 
L 164.873972 212.139792 
L 166.637467 206.386644 
L 167.960088 202.767621 
L 168.841836 200.872311 
L 169.723583 199.481598 
L 170.605331 198.650925 
L 171.046205 198.456867 
L 171.487079 198.413408 
L 171.927953 198.520983 
L 172.368826 198.778517 
L 173.250574 199.731696 
L 174.132322 201.234944 
L 175.014069 203.228332 
L 176.336691 206.959008 
L 178.100186 212.780418 
L 180.304555 220.111815 
L 181.627176 223.840224 
L 182.508924 225.831598 
L 183.390672 227.332521 
L 184.272419 228.283155 
L 184.713293 228.539366 
L 185.154167 228.645602 
L 185.595041 228.600802 
L 186.035915 228.405413 
L 186.476788 228.061387 
L 187.358536 226.942627 
L 188.240284 225.289122 
L 189.122031 223.166792 
L 190.444653 219.293632 
L 193.089896 210.39457 
L 194.853391 204.882211 
L 196.176012 201.603234 
L 197.05776 199.994699 
L 197.939507 198.925747 
L 198.380381 198.607826 
L 198.821255 198.438996 
L 199.262129 198.420944 
L 199.703003 198.553851 
L 200.143877 198.836388 
L 201.025624 199.837593 
L 201.907372 201.384647 
L 202.789119 203.415872 
L 204.111741 207.188894 
L 206.31611 214.545509 
L 208.079605 220.339743 
L 209.402227 224.024697 
L 210.283974 225.97764 
L 211.165722 227.43431 
L 212.047469 228.336634 
L 212.488343 228.567766 
L 212.929217 228.648639 
L 213.370091 228.578445 
L 213.810965 228.357886 
L 214.692712 227.475967 
L 215.57446 226.03804 
L 216.456208 224.101433 
L 217.778829 220.435076 
L 219.542324 214.652212 
L 222.187567 205.942629 
L 223.510189 202.416636 
L 224.391936 200.601402 
L 225.273684 199.301566 
L 226.155431 198.568946 
L 226.596305 198.425392 
L 227.037179 198.432752 
L 227.478053 198.590952 
L 227.918927 198.898412 
L 228.800674 199.947362 
L 229.682422 201.537783 
L 230.56417 203.606271 
L 231.886791 207.420572 
L 234.09116 214.799006 
L 235.854655 220.565745 
L 237.177277 224.206201 
L 238.059024 226.120163 
L 238.940772 227.532168 
L 239.82252 228.385927 
L 240.263393 228.591914 
L 240.704267 228.647401 
L 241.145141 228.551833 
L 241.586015 228.306167 
L 242.467763 227.375828 
L 243.34951 225.893474 
L 244.231258 223.918203 
L 245.553879 220.20795 
L 247.317374 214.39854 
L 249.962617 205.723807 
L 251.285239 202.245832 
L 252.166986 200.471412 
L 253.048734 199.217571 
L 253.930482 198.534296 
L 254.371355 198.416059 
L 254.812229 198.448828 
L 255.253103 198.632277 
L 255.693977 198.964573 
L 256.575725 200.06097 
L 257.457472 201.69431 
L 258.33922 203.799476 
L 259.661841 207.653977 
L 262.307084 216.54628 
L 264.070579 222.077482 
L 265.393201 225.381116 
L 266.274948 227.009943 
L 267.156696 228.101343 
L 267.59757 228.431019 
L 268.038444 228.611803 
L 268.479318 228.641889 
L 268.920191 228.520975 
L 269.361065 228.250269 
L 270.242813 227.271774 
L 271.12456 225.745413 
L 272.006308 223.732036 
L 273.328929 219.978936 
L 275.533299 212.63338 
L 277.737668 205.507193 
L 279.060289 202.078217 
L 279.942037 200.345113 
L 280.823784 199.137623 
L 281.705532 198.503886 
L 282.146406 198.410998 
L 282.58728 198.469167 
L 283.028153 198.677814 
L 283.469027 199.034852 
L 284.350775 200.178386 
L 285.232522 201.854183 
L 286.11427 203.995432 
L 287.436891 207.889044 
L 292.286503 223.472707 
L 293.168251 225.537286 
L 294.049999 227.123148 
L 294.931746 228.167067 
L 295.37262 228.471898 
L 295.813494 228.627428 
L 296.254368 228.632104 
L 296.695242 228.485877 
L 297.136115 228.19021 
L 298.017863 227.163835 
L 298.899611 225.593897 
L 299.781358 223.542984 
L 301.10398 219.748099 
L 303.308349 212.379738 
L 305.071844 206.599775 
L 306.394465 202.938116 
L 307.276213 201.005625 
L 308.157961 199.572416 
L 309.039708 198.695626 
L 309.480582 198.477723 
L 309.921456 198.410211 
L 310.36233 198.493765 
L 310.803204 198.727549 
L 311.684951 199.634989 
L 312.566699 201.096354 
L 313.448446 203.053383 
L 314.771068 206.742977 
L 316.534563 212.54002 
L 319.179806 221.231564 
L 320.502427 224.732403 
L 321.384175 226.526215 
L 322.265923 227.801884 
L 323.14767 228.508553 
L 323.588544 228.638785 
L 324.029418 228.618049 
L 324.470292 228.446551 
L 324.911166 228.126006 
L 325.792913 227.052042 
L 326.674661 225.438971 
L 327.556408 223.351101 
L 328.87903 219.515504 
L 331.083399 212.126421 
L 332.846894 206.374811 
L 334.169516 202.758193 
L 335.051263 200.864971 
L 335.933011 199.476638 
L 336.814758 198.648543 
L 337.255632 198.455816 
L 337.696506 198.413699 
L 338.13738 198.522613 
L 338.578254 198.78147 
L 339.460001 199.737192 
L 340.341749 201.242765 
L 341.223497 203.238166 
L 342.546118 206.971105 
L 344.309613 212.79383 
L 346.513982 220.123901 
L 347.836604 223.850042 
L 348.718351 225.8394 
L 349.600099 227.337995 
L 350.481847 228.286084 
L 350.92272 228.540972 
L 351.363594 228.64587 
L 351.804468 228.599728 
L 352.245342 228.403008 
L 352.686216 228.057675 
L 353.567963 226.936425 
L 354.449711 225.280677 
L 355.331459 223.156442 
L 356.65408 219.281216 
L 359.299323 210.381435 
L 361.062818 204.871199 
L 362.38544 201.594985 
L 363.267187 199.988719 
L 364.148935 198.922276 
L 364.589809 198.605667 
L 365.030682 198.438171 
L 365.471556 198.421461 
L 365.91243 198.555705 
L 366.353304 198.83956 
L 367.235052 199.843295 
L 368.116799 201.39265 
L 368.998547 203.425858 
L 370.321168 207.201087 
L 372.525537 214.558907 
L 374.289033 220.351729 
L 375.611654 224.034358 
L 376.493402 225.985257 
L 377.375149 227.439578 
L 378.256897 228.339343 
L 378.697771 228.569148 
L 379.138645 228.64868 
L 379.579518 228.577146 
L 380.020392 228.355259 
L 380.90214 227.470776 
L 381.783887 226.030493 
L 382.665635 224.091829 
L 383.988256 220.423127 
L 385.751752 214.63882 
L 388.396995 205.931016 
L 389.719616 202.407535 
L 390.601364 200.594444 
L 391.483111 199.297028 
L 392.364859 198.56701 
L 392.805733 198.424792 
L 393.246607 198.433494 
L 393.68748 198.593029 
L 394.128354 198.901803 
L 395.010102 199.953267 
L 395.891849 201.545967 
L 396.773597 203.616407 
L 398.096218 207.432858 
L 400.300588 214.812387 
L 402.064083 220.577628 
L 403.386704 224.215705 
L 404.268452 226.127592 
L 405.150199 227.537228 
L 406.031947 228.388414 
L 406.472821 228.593071 
L 406.913695 228.647217 
L 407.354569 228.55031 
L 407.795442 228.303318 
L 408.67719 227.370429 
L 409.558938 225.885741 
L 410.440685 223.908443 
L 411.763307 220.1959 
L 413.526802 214.385133 
L 416.172045 205.71231 
L 417.494666 202.236898 
L 418.376414 200.464648 
L 419.258161 199.213247 
L 420.139909 198.532584 
L 420.580783 198.415684 
L 421.021657 198.449796 
L 421.462531 198.634577 
L 421.903404 198.968182 
L 422.785152 200.067077 
L 423.6669 201.702671 
L 424.548647 203.809758 
L 425.871269 207.666352 
L 428.516512 216.559437 
L 430.280007 222.088555 
L 431.602628 225.389449 
L 432.484376 227.016018 
L 433.366123 228.104917 
L 433.806997 228.433284 
L 434.247871 228.612735 
L 434.688745 228.641479 
L 435.129619 228.519227 
L 435.570493 228.247201 
L 436.45224 227.26617 
L 437.333988 225.737496 
L 438.215735 223.722122 
L 439.538357 219.966789 
L 441.742726 212.619976 
L 443.947095 205.495814 
L 445.269716 202.069454 
L 446.151464 200.338545 
L 447.033212 199.133513 
L 447.914959 198.502398 
L 448.355833 198.410849 
L 448.796707 198.47036 
L 449.237581 198.680336 
L 449.678455 199.038678 
L 450.560202 200.184694 
L 451.44195 201.862719 
L 452.323697 204.005857 
L 453.646319 207.901505 
L 458.495931 223.482819 
L 459.377678 225.545441 
L 460.259426 227.12902 
L 461.141174 228.170424 
L 461.582047 228.47394 
L 462.022921 228.628135 
L 462.463795 228.631468 
L 462.904669 228.483906 
L 463.345543 228.186922 
L 464.22729 227.158027 
L 465.109038 225.585799 
L 465.990786 223.532919 
L 467.313407 219.735857 
L 469.517776 212.366349 
L 471.281271 206.587842 
L 472.603893 202.928537 
L 473.48564 200.998106 
L 474.367388 199.567258 
L 475.249136 198.693034 
L 475.690009 198.47646 
L 476.130883 198.410289 
L 476.571757 198.495182 
L 477.012631 198.730293 
L 477.894379 199.640289 
L 478.776126 201.103999 
L 479.657874 203.06307 
L 480.980495 206.75498 
L 482.743991 212.55342 
L 485.389233 221.243116 
L 486.711855 224.741416 
L 487.593602 226.533071 
L 488.47535 227.80631 
L 489.357098 228.510371 
L 489.797972 228.639266 
L 490.238845 228.617187 
L 490.679719 228.444357 
L 491.120593 228.1225 
L 492.002341 227.04603 
L 492.884088 225.430693 
L 493.765836 223.340888 
L 495.088457 219.50317 
L 497.292826 212.113051 
L 499.056322 206.362984 
L 500.378943 202.748774 
L 501.260691 200.857641 
L 502.142438 199.471689 
L 503.024186 198.646173 
L 503.46506 198.454778 
L 503.905934 198.414003 
L 504.346807 198.524255 
L 504.787681 198.784434 
L 505.669429 199.742699 
L 506.551176 201.250595 
L 507.432924 203.248007 
L 508.755545 206.983207 
L 510.519041 212.807243 
L 512.72341 220.135982 
L 514.046031 223.859851 
L 514.927779 225.847191 
L 515.809526 227.343459 
L 516.691274 228.289002 
L 517.132148 228.542567 
L 517.573022 228.646125 
L 518.013896 228.598641 
L 518.454769 228.400591 
L 518.895643 228.053951 
L 519.777391 226.930212 
L 520.659138 225.272223 
L 521.540886 223.146084 
L 522.863507 219.268795 
L 525.50875 210.368302 
L 527.272246 204.860194 
L 528.594867 201.586745 
L 529.476615 199.98275 
L 530.358362 198.918816 
L 530.799236 198.60352 
L 531.24011 198.437358 
L 531.680984 198.42199 
L 532.121858 198.55757 
L 532.562731 198.842744 
L 533.444479 199.849007 
L 534.326227 201.400663 
L 535.207974 203.435852 
L 536.530596 207.213285 
L 538.294091 213.061271 
L 538.294091 213.061271 
" clip-path="url(#p89d5e957db)" style="fill: none; stroke: #dd8452; stroke-width: 1.5; stroke-linecap: round"/>
   </g>
   <g id="patch_3">
    <path d="M 73.062 381.348 
L 73.062 15.552 
" style="fill: none; stroke: #ffffff; stroke-width: 1.25; stroke-linejoin: miter; stroke-linecap: square"/>
   </g>
   <g id="patch_4">
    <path d="M 560.448 381.348 
L 560.448 15.552 
" style="fill: none; stroke: #ffffff; stroke-width: 1.25; stroke-linejoin: miter; stroke-linecap: square"/>
   </g>
   <g id="patch_5">
    <path d="M 73.062 381.348 
L 560.448 381.348 
" style="fill: none; stroke: #ffffff; stroke-width: 1.25; stroke-linejoin: miter; stroke-linecap: square"/>
   </g>
   <g id="patch_6">
    <path d="M 73.062 15.552 
L 560.448 15.552 
" style="fill: none; stroke: #ffffff; stroke-width: 1.25; stroke-linejoin: miter; stroke-linecap: square"/>
   </g>
  </g>
 </g>
 <defs>
  <clipPath id="p89d5e957db">
   <rect x="73.062" y="15.552" width="487.386" height="365.796"/>
  </clipPath>
 </defs>
</svg>
