<?xml version="1.0" encoding="utf-8" standalone="no"?>
<!DOCTYPE svg PUBLIC "-//W3C//DTD SVG 1.1//EN"
  "http://www.w3.org/Graphics/SVG/1.1/DTD/svg11.dtd">
<svg xmlns:xlink="http://www.w3.org/1999/xlink" width="576pt" height="432pt" viewBox="0 0 576 432" xmlns="http://www.w3.org/2000/svg" version="1.1">
 <metadata>
  <rdf:RDF xmlns:dc="http://purl.org/dc/elements/1.1/" xmlns:cc="http://creativecommons.org/ns#" xmlns:rdf="http://www.w3.org/1999/02/22-rdf-syntax-ns#">
   <cc:Work>
    <dc:type rdf:resource="http://purl.org/dc/dcmitype/StillImage"/>
    <dc:date>2023-05-14T13:10:38.914694</dc:date>
    <dc:format>image/svg+xml</dc:format>
    <dc:creator>
     <cc:Agent>
      <dc:title>Matplotlib v3.7.1, https://matplotlib.org/</dc:title>
     </cc:Agent>
    </dc:creator>
   </cc:Work>
  </rdf:RDF>
 </metadata>
 <defs>
  <style type="text/css">*{stroke-linejoin: round; stroke-linecap: butt}</style>
 </defs>
 <g id="figure_1">
  <g id="patch_1">
   <path d="M 0 432 
L 576 432 
L 576 0 
L 0 0 
z
" style="fill: #ffffff"/>
  </g>
  <g id="axes_1">
   <g id="patch_2">
    <path d="M 73.062 381.348 
L 560.448 381.348 
L 560.448 15.552 
L 73.062 15.552 
z
" style="fill: #eaeaf2"/>
   </g>
   <g id="matplotlib.axis_1">
    <g id="xtick_1">
     <g id="line2d_1">
      <path d="M 95.215909 381.348 
L 95.215909 15.552 
" clip-path="url(#pa2f55aaa6c)" style="fill: none; stroke: #ffffff; stroke-linecap: round"/>
     </g>
     <g id="text_1">
      <!-- 0 -->
      <g style="fill: #262626" transform="translate(91.915909 399.923) scale(0.132 -0.132)">
       <defs>
        <path id="SimHei-30" d="M 225 2537 
Q 250 3200 412 3587 
Q 575 3975 875 4225 
Q 1175 4475 1612 4475 
Q 2050 4475 2375 4112 
Q 2700 3750 2800 3200 
Q 2900 2650 2862 1937 
Q 2825 1225 2612 775 
Q 2400 325 1975 150 
Q 1550 -25 1125 187 
Q 700 400 525 750 
Q 350 1100 275 1487 
Q 200 1875 225 2537 
z
M 750 2687 
Q 675 2000 800 1462 
Q 925 925 1212 700 
Q 1500 475 1800 612 
Q 2100 750 2237 1162 
Q 2375 1575 2375 2062 
Q 2375 2550 2337 2950 
Q 2300 3350 2112 3675 
Q 1925 4000 1612 4012 
Q 1300 4025 1062 3700 
Q 825 3375 750 2687 
z
" transform="scale(0.015625)"/>
       </defs>
       <use xlink:href="#SimHei-30"/>
      </g>
     </g>
    </g>
    <g id="xtick_2">
     <g id="line2d_2">
      <path d="M 183.390672 381.348 
L 183.390672 15.552 
" clip-path="url(#pa2f55aaa6c)" style="fill: none; stroke: #ffffff; stroke-linecap: round"/>
     </g>
     <g id="text_2">
      <!-- 20 -->
      <g style="fill: #262626" transform="translate(176.790672 399.923) scale(0.132 -0.132)">
       <defs>
        <path id="SimHei-32" d="M 300 250 
Q 325 625 650 925 
Q 975 1225 1475 1862 
Q 1975 2500 2125 2850 
Q 2275 3200 2237 3450 
Q 2200 3700 2000 3862 
Q 1800 4025 1537 4000 
Q 1275 3975 1037 3800 
Q 800 3625 675 3275 
L 200 3350 
Q 400 3925 712 4187 
Q 1025 4450 1450 4475 
Q 1700 4500 1900 4462 
Q 2100 4425 2312 4287 
Q 2525 4150 2662 3875 
Q 2800 3600 2762 3212 
Q 2725 2825 2375 2287 
Q 2025 1750 1025 600 
L 2825 600 
L 2825 150 
L 300 150 
L 300 250 
z
" transform="scale(0.015625)"/>
       </defs>
       <use xlink:href="#SimHei-32"/>
       <use xlink:href="#SimHei-30" x="50"/>
      </g>
     </g>
    </g>
    <g id="xtick_3">
     <g id="line2d_3">
      <path d="M 271.565434 381.348 
L 271.565434 15.552 
" clip-path="url(#pa2f55aaa6c)" style="fill: none; stroke: #ffffff; stroke-linecap: round"/>
     </g>
     <g id="text_3">
      <!-- 40 -->
      <g style="fill: #262626" transform="translate(264.965434 399.923) scale(0.132 -0.132)">
       <defs>
        <path id="SimHei-34" d="M 2000 1100 
L 75 1100 
L 75 1525 
L 2100 4450 
L 2475 4450 
L 2475 1525 
L 3075 1525 
L 3075 1100 
L 2475 1100 
L 2475 150 
L 2000 150 
L 2000 1100 
z
M 2000 1525 
L 2000 3500 
L 600 1525 
L 2000 1525 
z
" transform="scale(0.015625)"/>
       </defs>
       <use xlink:href="#SimHei-34"/>
       <use xlink:href="#SimHei-30" x="50"/>
      </g>
     </g>
    </g>
    <g id="xtick_4">
     <g id="line2d_4">
      <path d="M 359.740197 381.348 
L 359.740197 15.552 
" clip-path="url(#pa2f55aaa6c)" style="fill: none; stroke: #ffffff; stroke-linecap: round"/>
     </g>
     <g id="text_4">
      <!-- 60 -->
      <g style="fill: #262626" transform="translate(353.140197 399.923) scale(0.132 -0.132)">
       <defs>
        <path id="SimHei-36" d="M 250 1612 
Q 275 1975 387 2225 
Q 500 2475 725 2850 
L 1750 4450 
L 2325 4450 
L 1275 2800 
Q 1950 2975 2350 2750 
Q 2750 2525 2887 2237 
Q 3025 1950 3037 1612 
Q 3050 1275 2937 950 
Q 2825 625 2537 362 
Q 2250 100 1737 75 
Q 1225 50 862 262 
Q 500 475 362 862 
Q 225 1250 250 1612 
z
M 1025 787 
Q 1250 550 1625 525 
Q 2000 500 2250 775 
Q 2500 1050 2500 1575 
Q 2500 2100 2187 2300 
Q 1875 2500 1487 2450 
Q 1100 2400 925 2075 
Q 750 1750 775 1387 
Q 800 1025 1025 787 
z
" transform="scale(0.015625)"/>
       </defs>
       <use xlink:href="#SimHei-36"/>
       <use xlink:href="#SimHei-30" x="50"/>
      </g>
     </g>
    </g>
    <g id="xtick_5">
     <g id="line2d_5">
      <path d="M 447.914959 381.348 
L 447.914959 15.552 
" clip-path="url(#pa2f55aaa6c)" style="fill: none; stroke: #ffffff; stroke-linecap: round"/>
     </g>
     <g id="text_5">
      <!-- 80 -->
      <g style="fill: #262626" transform="translate(441.314959 399.923) scale(0.132 -0.132)">
       <defs>
        <path id="SimHei-38" d="M 175 1375 
Q 175 1675 325 1962 
Q 475 2250 825 2425 
Q 525 2600 425 2812 
Q 325 3025 312 3300 
Q 300 3575 387 3775 
Q 475 3975 650 4150 
Q 825 4325 1037 4387 
Q 1250 4450 1500 4450 
Q 1750 4450 1950 4400 
Q 2150 4350 2375 4187 
Q 2600 4025 2700 3725 
Q 2800 3425 2687 3025 
Q 2575 2625 2100 2400 
Q 2525 2275 2700 2012 
Q 2875 1750 2875 1375 
Q 2875 1000 2762 775 
Q 2650 550 2512 400 
Q 2375 250 2137 162 
Q 1900 75 1537 75 
Q 1175 75 912 162 
Q 650 250 475 425 
Q 300 600 237 837 
Q 175 1075 175 1375 
z
M 687 1400 
Q 675 1100 787 875 
Q 900 650 1200 587 
Q 1500 525 1825 600 
Q 2150 675 2275 950 
Q 2400 1225 2362 1500 
Q 2325 1775 2050 1962 
Q 1775 2150 1450 2125 
Q 1125 2100 912 1900 
Q 700 1700 687 1400 
z
M 775 3350 
Q 775 3100 950 2875 
Q 1125 2650 1500 2650 
Q 1875 2650 2062 2875 
Q 2250 3100 2237 3412 
Q 2225 3725 2012 3875 
Q 1800 4025 1437 4000 
Q 1075 3975 925 3787 
Q 775 3600 775 3350 
z
" transform="scale(0.015625)"/>
       </defs>
       <use xlink:href="#SimHei-38"/>
       <use xlink:href="#SimHei-30" x="50"/>
      </g>
     </g>
    </g>
    <g id="xtick_6">
     <g id="line2d_6">
      <path d="M 536.089722 381.348 
L 536.089722 15.552 
" clip-path="url(#pa2f55aaa6c)" style="fill: none; stroke: #ffffff; stroke-linecap: round"/>
     </g>
     <g id="text_6">
      <!-- 100 -->
      <g style="fill: #262626" transform="translate(526.189722 399.923) scale(0.132 -0.132)">
       <defs>
        <path id="SimHei-31" d="M 1400 3600 
Q 1075 3275 575 2975 
L 575 3450 
Q 1200 3875 1600 4450 
L 1900 4450 
L 1900 150 
L 1400 150 
L 1400 3600 
z
" transform="scale(0.015625)"/>
       </defs>
       <use xlink:href="#SimHei-31"/>
       <use xlink:href="#SimHei-30" x="50"/>
       <use xlink:href="#SimHei-30" x="100"/>
      </g>
     </g>
    </g>
    <g id="text_7">
     <!-- Time/ms -->
     <g style="fill: #262626" transform="translate(291.555 415.473) scale(0.144 -0.144)">
      <defs>
       <path id="SimHei-54" d="M 2850 3925 
L 1850 3925 
L 1850 125 
L 1275 125 
L 1275 3925 
L 275 3925 
L 275 4400 
L 2850 4400 
L 2850 3925 
z
" transform="scale(0.015625)"/>
       <path id="SimHei-69" d="M 1800 3725 
L 1300 3725 
L 1300 4375 
L 1800 4375 
L 1800 3725 
z
M 1800 125 
L 1300 125 
L 1300 2925 
L 1800 2925 
L 1800 125 
z
" transform="scale(0.015625)"/>
       <path id="SimHei-6d" d="M 3050 125 
L 2550 125 
L 2550 2150 
Q 2550 2300 2500 2400 
Q 2450 2500 2300 2500 
Q 2125 2500 1975 2312 
Q 1825 2125 1825 1825 
L 1825 125 
L 1325 125 
L 1325 2150 
Q 1325 2300 1275 2400 
Q 1225 2500 1075 2500 
Q 900 2500 750 2312 
Q 600 2125 600 1825 
L 600 125 
L 100 125 
L 100 2925 
L 600 2925 
L 600 2550 
Q 725 2750 900 2862 
Q 1075 2975 1275 2975 
Q 1475 2975 1612 2862 
Q 1750 2750 1800 2550 
Q 1925 2750 2087 2862 
Q 2250 2975 2450 2975 
Q 2750 2975 2900 2812 
Q 3050 2650 3050 2350 
L 3050 125 
z
" transform="scale(0.015625)"/>
       <path id="SimHei-65" d="M 2850 1075 
Q 2800 625 2450 350 
Q 2100 75 1625 75 
Q 1025 75 637 462 
Q 250 850 250 1525 
Q 250 2200 637 2587 
Q 1025 2975 1625 2975 
Q 2150 2975 2487 2637 
Q 2825 2300 2825 1525 
L 800 1525 
Q 800 975 1037 750 
Q 1275 525 1625 525 
Q 1900 525 2075 662 
Q 2250 800 2300 1075 
L 2850 1075 
z
M 2250 1925 
Q 2200 2275 2025 2412 
Q 1850 2550 1575 2550 
Q 1325 2550 1125 2412 
Q 925 2275 825 1925 
L 2250 1925 
z
" transform="scale(0.015625)"/>
       <path id="SimHei-2f" d="M 3000 4550 
L 350 -175 
L 100 -25 
L 2750 4700 
L 3000 4550 
z
" transform="scale(0.015625)"/>
       <path id="SimHei-73" d="M 2750 900 
Q 2750 500 2437 287 
Q 2125 75 1650 75 
Q 1050 75 725 312 
Q 400 550 400 1000 
L 900 1000 
Q 900 700 1112 600 
Q 1325 500 1625 500 
Q 1925 500 2075 612 
Q 2225 725 2225 900 
Q 2225 1025 2100 1150 
Q 1975 1275 1475 1350 
Q 900 1425 687 1637 
Q 475 1850 475 2200 
Q 475 2500 762 2737 
Q 1050 2975 1600 2975 
Q 2100 2975 2387 2750 
Q 2675 2525 2675 2150 
L 2175 2150 
Q 2175 2375 2012 2462 
Q 1850 2550 1600 2550 
Q 1275 2550 1137 2437 
Q 1000 2325 1000 2175 
Q 1000 2000 1125 1900 
Q 1250 1800 1650 1750 
Q 2300 1650 2525 1437 
Q 2750 1225 2750 900 
z
" transform="scale(0.015625)"/>
      </defs>
      <use xlink:href="#SimHei-54"/>
      <use xlink:href="#SimHei-69" x="50"/>
      <use xlink:href="#SimHei-6d" x="100"/>
      <use xlink:href="#SimHei-65" x="150"/>
      <use xlink:href="#SimHei-2f" x="200"/>
      <use xlink:href="#SimHei-6d" x="250"/>
      <use xlink:href="#SimHei-73" x="300"/>
     </g>
    </g>
   </g>
   <g id="matplotlib.axis_2">
    <g id="ytick_1">
     <g id="line2d_7">
      <path d="M 73.062 358.258938 
L 560.448 358.258938 
" clip-path="url(#pa2f55aaa6c)" style="fill: none; stroke: #ffffff; stroke-linecap: round"/>
     </g>
     <g id="text_8">
      <!-- -3000 -->
      <g style="fill: #262626" transform="translate(30.562 362.796438) scale(0.132 -0.132)">
       <defs>
        <path id="SimHei-2d" d="M 2975 2125 
L 125 2125 
L 125 2525 
L 2975 2525 
L 2975 2125 
z
" transform="scale(0.015625)"/>
        <path id="SimHei-33" d="M 250 1225 
L 700 1300 
Q 800 975 1025 762 
Q 1250 550 1587 562 
Q 1925 575 2125 837 
Q 2325 1100 2300 1437 
Q 2275 1775 2037 1962 
Q 1800 2150 1275 2225 
L 1275 2550 
Q 1800 2600 2037 2825 
Q 2275 3050 2250 3412 
Q 2225 3775 1925 3937 
Q 1625 4100 1287 3975 
Q 950 3850 750 3275 
L 300 3350 
Q 450 3800 712 4100 
Q 975 4400 1425 4450 
Q 1875 4500 2212 4337 
Q 2550 4175 2687 3837 
Q 2825 3500 2725 3100 
Q 2625 2700 2150 2400 
Q 2500 2250 2687 1950 
Q 2875 1650 2812 1162 
Q 2750 675 2375 375 
Q 2000 75 1525 87 
Q 1050 100 700 387 
Q 350 675 250 1225 
z
" transform="scale(0.015625)"/>
       </defs>
       <use xlink:href="#SimHei-2d"/>
       <use xlink:href="#SimHei-33" x="50"/>
       <use xlink:href="#SimHei-30" x="100"/>
       <use xlink:href="#SimHei-30" x="150"/>
       <use xlink:href="#SimHei-30" x="200"/>
      </g>
     </g>
    </g>
    <g id="ytick_2">
     <g id="line2d_8">
      <path d="M 73.062 313.116599 
L 560.448 313.116599 
" clip-path="url(#pa2f55aaa6c)" style="fill: none; stroke: #ffffff; stroke-linecap: round"/>
     </g>
     <g id="text_9">
      <!-- -2000 -->
      <g style="fill: #262626" transform="translate(30.562 317.654099) scale(0.132 -0.132)">
       <use xlink:href="#SimHei-2d"/>
       <use xlink:href="#SimHei-32" x="50"/>
       <use xlink:href="#SimHei-30" x="100"/>
       <use xlink:href="#SimHei-30" x="150"/>
       <use xlink:href="#SimHei-30" x="200"/>
      </g>
     </g>
    </g>
    <g id="ytick_3">
     <g id="line2d_9">
      <path d="M 73.062 267.974261 
L 560.448 267.974261 
" clip-path="url(#pa2f55aaa6c)" style="fill: none; stroke: #ffffff; stroke-linecap: round"/>
     </g>
     <g id="text_10">
      <!-- -1000 -->
      <g style="fill: #262626" transform="translate(30.562 272.511761) scale(0.132 -0.132)">
       <use xlink:href="#SimHei-2d"/>
       <use xlink:href="#SimHei-31" x="50"/>
       <use xlink:href="#SimHei-30" x="100"/>
       <use xlink:href="#SimHei-30" x="150"/>
       <use xlink:href="#SimHei-30" x="200"/>
      </g>
     </g>
    </g>
    <g id="ytick_4">
     <g id="line2d_10">
      <path d="M 73.062 222.831923 
L 560.448 222.831923 
" clip-path="url(#pa2f55aaa6c)" style="fill: none; stroke: #ffffff; stroke-linecap: round"/>
     </g>
     <g id="text_11">
      <!-- 0 -->
      <g style="fill: #262626" transform="translate(56.962 227.369423) scale(0.132 -0.132)">
       <use xlink:href="#SimHei-30"/>
      </g>
     </g>
    </g>
    <g id="ytick_5">
     <g id="line2d_11">
      <path d="M 73.062 177.689585 
L 560.448 177.689585 
" clip-path="url(#pa2f55aaa6c)" style="fill: none; stroke: #ffffff; stroke-linecap: round"/>
     </g>
     <g id="text_12">
      <!-- 1000 -->
      <g style="fill: #262626" transform="translate(37.162 182.227085) scale(0.132 -0.132)">
       <use xlink:href="#SimHei-31"/>
       <use xlink:href="#SimHei-30" x="50"/>
       <use xlink:href="#SimHei-30" x="100"/>
       <use xlink:href="#SimHei-30" x="150"/>
      </g>
     </g>
    </g>
    <g id="ytick_6">
     <g id="line2d_12">
      <path d="M 73.062 132.547247 
L 560.448 132.547247 
" clip-path="url(#pa2f55aaa6c)" style="fill: none; stroke: #ffffff; stroke-linecap: round"/>
     </g>
     <g id="text_13">
      <!-- 2000 -->
      <g style="fill: #262626" transform="translate(37.162 137.084747) scale(0.132 -0.132)">
       <use xlink:href="#SimHei-32"/>
       <use xlink:href="#SimHei-30" x="50"/>
       <use xlink:href="#SimHei-30" x="100"/>
       <use xlink:href="#SimHei-30" x="150"/>
      </g>
     </g>
    </g>
    <g id="ytick_7">
     <g id="line2d_13">
      <path d="M 73.062 87.404909 
L 560.448 87.404909 
" clip-path="url(#pa2f55aaa6c)" style="fill: none; stroke: #ffffff; stroke-linecap: round"/>
     </g>
     <g id="text_14">
      <!-- 3000 -->
      <g style="fill: #262626" transform="translate(37.162 91.942409) scale(0.132 -0.132)">
       <use xlink:href="#SimHei-33"/>
       <use xlink:href="#SimHei-30" x="50"/>
       <use xlink:href="#SimHei-30" x="100"/>
       <use xlink:href="#SimHei-30" x="150"/>
      </g>
     </g>
    </g>
    <g id="ytick_8">
     <g id="line2d_14">
      <path d="M 73.062 42.262571 
L 560.448 42.262571 
" clip-path="url(#pa2f55aaa6c)" style="fill: none; stroke: #ffffff; stroke-linecap: round"/>
     </g>
     <g id="text_15">
      <!-- 4000 -->
      <g style="fill: #262626" transform="translate(37.162 46.800071) scale(0.132 -0.132)">
       <use xlink:href="#SimHei-34"/>
       <use xlink:href="#SimHei-30" x="50"/>
       <use xlink:href="#SimHei-30" x="100"/>
       <use xlink:href="#SimHei-30" x="150"/>
      </g>
     </g>
    </g>
    <g id="text_16">
     <!-- Current/A -->
     <g style="fill: #262626" transform="translate(24.762 230.85) rotate(-90) scale(0.144 -0.144)">
      <defs>
       <path id="SimHei-43" d="M 2975 1825 
Q 2950 875 2575 475 
Q 2200 75 1675 75 
Q 1075 75 650 562 
Q 225 1050 225 2125 
Q 225 3300 637 3875 
Q 1050 4450 1700 4450 
Q 2250 4450 2612 4037 
Q 2975 3625 2950 2875 
L 2400 2875 
Q 2400 3425 2225 3700 
Q 2050 3975 1700 3975 
Q 1300 3975 1062 3562 
Q 825 3150 825 2175 
Q 825 1275 1062 912 
Q 1300 550 1675 550 
Q 1950 550 2175 812 
Q 2400 1075 2400 1825 
L 2975 1825 
z
" transform="scale(0.015625)"/>
       <path id="SimHei-75" d="M 2800 125 
L 2300 125 
L 2300 650 
Q 2100 375 1862 225 
Q 1625 75 1250 75 
Q 800 75 575 325 
Q 350 575 350 950 
L 350 2925 
L 850 2925 
L 850 1125 
Q 850 825 1000 650 
Q 1150 475 1400 475 
Q 1725 475 2012 812 
Q 2300 1150 2300 1650 
L 2300 2925 
L 2800 2925 
L 2800 125 
z
" transform="scale(0.015625)"/>
       <path id="SimHei-72" d="M 2500 2425 
Q 2025 2500 1700 2287 
Q 1375 2075 1150 1550 
L 1150 125 
L 650 125 
L 650 2925 
L 1150 2925 
L 1150 2200 
Q 1375 2600 1712 2787 
Q 2050 2975 2500 2975 
L 2500 2425 
z
" transform="scale(0.015625)"/>
       <path id="SimHei-6e" d="M 2800 125 
L 2300 125 
L 2300 1925 
Q 2300 2225 2150 2400 
Q 2000 2575 1750 2575 
Q 1425 2575 1137 2237 
Q 850 1900 850 1400 
L 850 125 
L 350 125 
L 350 2925 
L 850 2925 
L 850 2400 
Q 1050 2675 1287 2825 
Q 1525 2975 1900 2975 
Q 2350 2975 2575 2725 
Q 2800 2475 2800 2100 
L 2800 125 
z
" transform="scale(0.015625)"/>
       <path id="SimHei-74" d="M 2750 200 
Q 2625 150 2462 112 
Q 2300 75 2025 75 
Q 1575 75 1300 325 
Q 1025 575 1025 1025 
L 1025 2525 
L 175 2525 
L 175 2925 
L 1025 2925 
L 1025 3900 
L 1525 3900 
L 1525 2925 
L 2550 2925 
L 2550 2525 
L 1525 2525 
L 1525 1000 
Q 1525 800 1625 662 
Q 1725 525 2000 525 
Q 2275 525 2450 575 
Q 2625 625 2750 700 
L 2750 200 
z
" transform="scale(0.015625)"/>
       <path id="SimHei-41" d="M 3075 125 
L 2475 125 
L 2125 1450 
L 1025 1450 
L 675 125 
L 75 125 
L 1325 4450 
L 1825 4450 
L 3075 125 
z
M 2000 1925 
L 1600 3450 
L 1550 3450 
L 1150 1925 
L 2000 1925 
z
" transform="scale(0.015625)"/>
      </defs>
      <use xlink:href="#SimHei-43"/>
      <use xlink:href="#SimHei-75" x="50"/>
      <use xlink:href="#SimHei-72" x="100"/>
      <use xlink:href="#SimHei-72" x="150"/>
      <use xlink:href="#SimHei-65" x="200"/>
      <use xlink:href="#SimHei-6e" x="250"/>
      <use xlink:href="#SimHei-74" x="300"/>
      <use xlink:href="#SimHei-2f" x="350"/>
      <use xlink:href="#SimHei-41" x="400"/>
     </g>
    </g>
   </g>
   <g id="PolyCollection_1"/>
   <g id="PolyCollection_2"/>
   <g id="line2d_15">
    <path d="M 95.215909 222.831923 
L 97.420278 205.518012 
L 98.7429 196.925418 
L 99.624647 192.443149 
L 100.506395 189.172385 
L 100.947269 188.034108 
L 101.388142 187.243519 
L 101.829016 186.808519 
L 102.26989 186.733452 
L 102.710764 187.019069 
L 103.151638 187.662516 
L 103.592512 188.657365 
L 104.474259 191.658092 
L 105.356007 195.901622 
L 106.237754 201.218778 
L 107.560376 210.734205 
L 111.969114 244.92848 
L 112.850862 250.162991 
L 113.732609 254.307898 
L 114.614357 257.197957 
L 115.055231 258.134319 
L 115.496104 258.717952 
L 115.936978 258.943022 
L 116.377852 258.807283 
L 116.818726 258.31209 
L 117.2596 257.46239 
L 117.700474 256.266675 
L 118.582221 252.888322 
L 119.463969 248.311715 
L 120.78659 239.610506 
L 122.550085 225.832603 
L 125.195328 204.987578 
L 126.51795 196.50603 
L 127.399697 192.119365 
L 128.281445 188.957114 
L 128.722319 187.876598 
L 129.163193 187.145344 
L 129.604066 186.770658 
L 130.04494 186.756285 
L 130.485814 187.102368 
L 130.926688 187.805448 
L 131.367562 188.858502 
L 132.249309 191.969049 
L 133.131057 196.310002 
L 134.012805 201.7083 
L 135.335426 211.308046 
L 139.744164 245.405644 
L 140.625912 250.556029 
L 141.507659 254.601142 
L 142.389407 257.379716 
L 142.830281 258.257327 
L 143.271155 258.780979 
L 143.712028 258.94544 
L 144.152902 258.749067 
L 144.593776 258.193821 
L 145.03465 257.285251 
L 145.916398 254.44789 
L 146.798145 250.3501 
L 147.679893 245.155247 
L 149.002514 235.768969 
L 153.852126 198.651168 
L 154.733874 193.804157 
L 155.615621 190.114391 
L 156.497369 187.72897 
L 156.938243 187.057258 
L 157.379117 186.742994 
L 157.819991 186.789318 
L 158.260864 187.195768 
L 158.701738 187.958284 
L 159.142612 189.069244 
L 160.02436 192.288732 
L 160.906107 196.72588 
L 161.787855 202.203794 
L 163.110476 211.885146 
L 167.078341 242.985351 
L 168.400962 250.941229 
L 169.28271 254.885404 
L 170.164457 257.551708 
L 170.605331 258.370319 
L 171.046205 258.833843 
L 171.487079 258.937648 
L 171.927953 258.680696 
L 172.368826 258.065555 
L 172.8097 257.098371 
L 173.691448 254.149951 
L 174.573195 249.952979 
L 175.454943 244.674778 
L 176.777564 235.200224 
L 181.186303 200.963535 
L 182.06805 195.689698 
L 182.949798 191.497937 
L 183.831545 188.555362 
L 184.272419 187.591268 
L 184.713293 186.979286 
L 185.154167 186.725532 
L 185.595041 186.832541 
L 186.035915 187.299244 
L 186.476788 188.120978 
L 186.917662 189.289533 
L 187.79941 192.61705 
L 188.681157 197.149139 
L 190.003779 205.799213 
L 191.767274 219.544752 
L 194.412517 240.425681 
L 195.735138 248.960119 
L 196.616886 253.392217 
L 197.498634 256.605973 
L 197.939507 257.713883 
L 198.380381 258.473264 
L 198.821255 258.876528 
L 199.262129 258.919647 
L 199.703003 258.602189 
L 200.143877 257.927327 
L 200.58475 256.901802 
L 201.466498 253.843157 
L 202.348246 249.548191 
L 203.229993 244.188133 
L 204.552615 234.627982 
L 208.961353 200.483396 
L 209.8431 195.292986 
L 210.724848 191.200468 
L 211.606596 188.368995 
L 212.047469 187.463528 
L 212.488343 186.911451 
L 212.929217 186.718279 
L 213.370091 186.885942 
L 213.810965 187.412766 
L 214.251839 188.293487 
L 214.692712 189.519304 
L 215.57446 192.953911 
L 216.456208 197.579659 
L 217.778829 206.337058 
L 219.542324 220.149911 
L 222.187567 240.953477 
L 223.510189 249.375604 
L 224.391936 253.711441 
L 225.273684 256.81621 
L 225.714558 257.866196 
L 226.155431 258.566132 
L 226.596305 258.909023 
L 227.037179 258.891444 
L 227.478053 258.513569 
L 227.918927 257.779176 
L 228.359801 256.695601 
L 229.241548 253.527595 
L 230.123296 249.13585 
L 231.005043 243.69545 
L 232.327665 234.052405 
L 236.736403 200.009575 
L 237.618151 194.90406 
L 238.499898 190.911941 
L 239.381646 188.192372 
L 239.82252 187.345789 
L 240.263393 186.853771 
L 240.704267 186.721236 
L 241.145141 186.949507 
L 241.586015 187.536302 
L 242.026889 188.475761 
L 242.908636 191.371686 
L 243.790384 195.521832 
L 244.672132 200.760746 
L 245.994753 210.193825 
L 250.844365 247.249155 
L 251.726113 252.048722 
L 252.60786 255.683508 
L 253.489608 258.008604 
L 253.930482 258.648896 
L 254.371355 258.931317 
L 254.812229 258.853045 
L 255.253103 258.414862 
L 255.693977 257.621145 
L 256.134851 256.479826 
L 257.016598 253.203355 
L 257.898346 248.716071 
L 259.220967 240.11768 
L 260.984463 226.405378 
L 263.629706 205.48987 
L 264.952327 196.903082 
L 265.834075 192.425831 
L 266.715822 189.160775 
L 267.156696 188.025542 
L 267.59757 187.238082 
L 268.038444 186.806264 
L 268.479318 186.734403 
L 268.920191 187.023216 
L 269.361065 187.669817 
L 269.801939 188.667747 
L 270.683687 191.674297 
L 271.565434 195.923003 
L 272.447182 201.244483 
L 273.769803 210.764431 
L 278.178541 244.953841 
L 279.060289 250.183945 
L 279.942037 254.32361 
L 280.823784 257.207801 
L 281.264658 258.141067 
L 281.705532 258.721535 
L 282.146406 258.943405 
L 282.58728 258.804462 
L 283.028153 258.306093 
L 283.469027 257.453278 
L 283.909901 256.254538 
L 284.791649 252.870529 
L 285.673396 248.288975 
L 286.996018 239.582097 
L 288.759513 225.800638 
L 291.404756 204.959699 
L 292.727377 196.484084 
L 293.609125 192.102504 
L 294.490872 188.946009 
L 294.931746 187.868552 
L 295.37262 187.140438 
L 295.813494 186.768942 
L 296.254368 186.757775 
L 296.695242 187.107049 
L 297.136115 187.813274 
L 297.576989 188.869394 
L 298.458737 191.985717 
L 299.340484 196.331782 
L 300.222232 201.734324 
L 301.544853 211.338449 
L 305.953592 245.430671 
L 306.835339 250.576573 
L 307.717087 254.616382 
L 308.598834 257.389046 
L 309.039708 258.263546 
L 309.480582 258.784026 
L 309.921456 258.945284 
L 310.36233 258.745709 
L 310.803204 258.187296 
L 311.244077 257.275623 
L 312.125825 254.432375 
L 313.007573 250.329317 
L 313.88932 245.130025 
L 315.211942 235.739018 
L 316.975437 221.585609 
L 317.416311 178.631352 
L 317.857185 179.443998 
L 318.298058 186.130729 
L 318.738932 198.149011 
L 319.62068 233.046807 
L 320.502427 269.789625 
L 320.943301 283.558232 
L 321.384175 291.720326 
L 321.825049 292.893149 
L 322.265923 286.290216 
L 322.706796 271.807851 
L 323.14767 250.047027 
L 324.029418 190.283999 
L 325.352039 91.89923 
L 325.792913 66.011053 
L 326.233787 46.770227 
L 326.674661 35.330116 
L 327.115535 32.179091 
L 327.556408 37.109768 
L 327.997282 49.253965 
L 328.87903 89.038229 
L 330.201651 157.509092 
L 330.642525 175.055474 
L 331.083399 187.790206 
L 331.524273 195.237762 
L 331.965147 197.544638 
L 332.40602 195.446443 
L 332.846894 190.175859 
L 333.728642 176.649456 
L 334.169516 171.913462 
L 334.610389 170.659657 
L 335.051263 174.058606 
L 335.492137 182.773424 
L 335.933011 196.879841 
L 336.814758 238.572704 
L 338.578254 332.049861 
L 339.019128 346.453189 
L 339.460001 354.139581 
L 339.900875 354.357921 
L 340.341749 346.988744 
L 340.782623 332.564487 
L 341.66437 287.632934 
L 342.986992 209.177145 
L 343.427866 188.54469 
L 343.868739 173.600808 
L 344.309613 165.401024 
L 344.750487 164.388743 
L 345.191361 170.366873 
L 345.632235 182.530106 
L 346.513982 219.733174 
L 347.836604 280.11049 
L 348.277478 294.438721 
L 348.718351 303.875755 
L 349.159225 307.993493 
L 349.600099 306.939809 
L 350.040973 301.40811 
L 350.92272 281.856021 
L 351.804468 261.531342 
L 352.245342 254.990268 
L 352.686216 252.449658 
L 353.12709 254.54531 
L 353.567963 261.371685 
L 354.008837 272.462977 
L 354.890585 303.056731 
L 355.772332 334.091966 
L 356.213206 345.265388 
L 356.65408 351.383347 
L 357.094954 351.27157 
L 357.535828 344.265111 
L 357.976701 330.282089 
L 358.417575 309.842277 
L 359.299323 254.395462 
L 360.621944 162.121861 
L 361.503692 117.083903 
L 361.944566 103.798522 
L 362.38544 97.432125 
L 362.826313 97.823028 
L 363.267187 104.246733 
L 363.708061 115.498291 
L 365.91243 186.386997 
L 366.353304 192.961804 
L 366.794178 195.046791 
L 367.235052 192.783575 
L 367.675925 186.815743 
L 368.557673 168.337113 
L 369.439421 150.862286 
L 369.880294 146.102599 
L 370.321168 145.450876 
L 370.762042 149.485793 
L 371.202916 158.284668 
L 371.64379 171.406016 
L 372.525537 206.515948 
L 373.407285 243.400075 
L 373.848159 258.300675 
L 374.289033 268.821313 
L 374.729906 273.857472 
L 375.17078 272.773903 
L 375.611654 265.472797 
L 376.052528 252.411036 
L 376.934275 213.344732 
L 378.256897 147.235301 
L 378.697771 130.407665 
L 379.138645 118.675198 
L 379.579518 112.932698 
L 380.020392 113.552254 
L 380.461266 120.359079 
L 380.90214 132.659058 
L 381.783887 168.863073 
L 383.106509 228.485839 
L 383.547383 243.75145 
L 383.988256 254.993742 
L 384.42913 261.834608 
L 384.870004 264.386437 
L 385.310878 263.226221 
L 385.751752 259.323129 
L 387.074373 244.213036 
L 387.515247 242.496221 
L 387.956121 244.20464 
L 388.396995 249.864921 
L 388.837868 259.542312 
L 389.719616 288.854534 
L 391.042237 340.068391 
L 391.483111 353.048844 
L 391.923985 361.604243 
L 392.364859 364.720909 
L 392.805733 361.81988 
L 393.246607 352.81981 
L 393.68748 338.152858 
L 394.569228 295.872467 
L 396.332723 203.292487 
L 396.773597 187.809113 
L 397.214471 177.633531 
L 397.655345 173.129379 
L 398.096218 174.156101 
L 398.537092 180.094301 
L 398.977966 189.915958 
L 400.741461 239.859833 
L 401.182335 248.049968 
L 401.623209 252.525765 
L 402.064083 252.961406 
L 402.504957 249.483745 
L 402.94583 242.648314 
L 403.827578 222.831923 
L 404.709326 203.173117 
L 405.150199 196.497381 
L 405.591073 193.179729 
L 406.031947 193.724897 
L 406.472821 198.210727 
L 406.913695 206.273257 
L 407.795442 229.684634 
L 408.67719 254.333753 
L 409.118064 263.570498 
L 409.558938 269.046083 
L 409.999811 269.832878 
L 410.440685 265.403264 
L 410.881559 255.687691 
L 411.322433 241.089324 
L 412.20418 200.996971 
L 413.526802 134.995013 
L 413.967676 117.627788 
L 414.40855 104.719976 
L 414.849423 97.045315 
L 415.290297 94.931433 
L 415.731171 98.239204 
L 416.172045 106.386205 
L 417.053792 133.075695 
L 418.376414 179.009746 
L 418.817288 190.780832 
L 419.258161 199.323996 
L 419.699035 204.32023 
L 420.139909 205.86781 
L 420.580783 204.460225 
L 421.021657 200.924424 
L 421.903404 191.850164 
L 422.344278 188.672996 
L 422.785152 187.831875 
L 423.226026 190.112078 
L 423.6669 195.958461 
L 424.107773 205.421828 
L 424.989521 233.391712 
L 426.753016 296.101372 
L 427.19389 305.763923 
L 427.634764 310.920381 
L 428.075638 311.066855 
L 428.516512 306.123202 
L 428.957385 296.446611 
L 429.839133 266.304034 
L 431.161754 213.671541 
L 431.602628 199.830146 
L 432.043502 189.804962 
L 432.484376 184.304092 
L 432.92525 183.624998 
L 433.366123 187.635459 
L 433.806997 195.79523 
L 434.688745 220.75311 
L 436.011366 261.257562 
L 436.45224 270.869734 
L 436.893114 277.200619 
L 437.333988 279.963026 
L 437.774862 279.256156 
L 438.215735 275.545186 
L 439.097483 262.428561 
L 439.979231 248.793639 
L 440.420104 244.405524 
L 440.860978 242.701142 
L 441.301852 244.107021 
L 441.742726 248.686532 
L 442.1836 256.127186 
L 443.065347 276.651172 
L 443.947095 297.471329 
L 444.387969 304.96708 
L 444.828843 309.071346 
L 445.269716 308.99636 
L 445.71059 304.296038 
L 446.151464 294.915452 
L 446.592338 281.203293 
L 447.474085 244.006495 
L 448.796707 182.104247 
L 449.678455 151.890288 
L 450.119328 142.977718 
L 450.560202 138.706786 
L 451.001076 138.969025 
L 451.44195 143.278403 
L 451.882824 150.826571 
L 454.087193 198.382646 
L 454.528066 202.793391 
L 454.96894 204.192116 
L 455.409814 202.673825 
L 455.850688 198.670273 
L 456.732436 186.273783 
L 457.614183 174.5507 
L 458.055057 171.357638 
L 458.495931 170.920426 
L 458.936805 173.627273 
L 459.377678 179.530046 
L 459.818552 188.332574 
L 460.7003 211.886262 
L 461.582047 236.63018 
L 462.022921 246.626328 
L 462.463795 253.684156 
L 462.904669 257.06269 
L 463.345543 256.335772 
L 463.786417 251.437786 
L 464.22729 242.675232 
L 465.109038 216.467389 
L 466.431659 172.117517 
L 466.872533 160.828606 
L 467.313407 152.957817 
L 467.754281 149.105429 
L 468.195155 149.521062 
L 468.636028 154.087457 
L 469.076902 162.338966 
L 469.95865 186.626626 
L 471.281271 226.624884 
L 471.722145 236.865901 
L 472.163019 244.407855 
L 472.603893 248.997087 
L 473.044767 250.708995 
L 473.48564 249.930658 
L 473.926514 247.312247 
L 475.249136 237.175559 
L 475.690009 236.023825 
L 476.130883 237.169927 
L 476.571757 240.967157 
L 477.012631 247.459287 
L 477.894379 267.123552 
L 479.217 301.480646 
L 479.657874 310.188653 
L 480.098748 315.92809 
L 480.539621 318.018922 
L 480.980495 316.072751 
L 481.421369 310.035005 
L 481.862243 300.1956 
L 482.743991 271.83157 
L 484.507486 209.723786 
L 484.94836 199.33668 
L 485.389233 192.510336 
L 485.830107 189.488701 
L 486.270981 190.177483 
L 486.711855 194.161157 
L 487.152729 200.750069 
L 488.916224 234.255189 
L 489.357098 239.749586 
L 489.797972 242.752199 
L 490.238845 243.044451 
L 490.679719 240.711443 
L 491.120593 236.125857 
L 492.002341 222.831923 
L 492.884088 209.643706 
L 493.324962 205.165252 
L 493.765836 202.939587 
L 494.20671 203.305316 
L 494.647583 206.31466 
L 495.088457 211.723452 
L 495.970205 227.429101 
L 496.851953 243.965097 
L 497.292826 250.161618 
L 497.7337 253.834944 
L 498.174574 254.36277 
L 498.615448 251.391139 
L 499.056322 244.873394 
L 499.497195 235.08 
L 500.378943 208.183827 
L 501.701564 163.906054 
L 502.142438 152.255156 
L 502.583312 143.59588 
L 503.024186 138.447292 
L 503.46506 137.029183 
L 503.905934 139.248219 
L 504.346807 144.713679 
L 505.228555 162.618469 
L 506.551176 193.433577 
L 506.99205 201.330274 
L 507.432924 207.061503 
L 507.873798 210.413253 
L 508.314672 211.451456 
L 508.755545 210.507169 
L 509.196419 208.135158 
L 510.078167 202.047641 
L 510.519041 199.916221 
L 510.959915 199.35195 
L 511.400788 200.881637 
L 511.841662 204.803715 
L 512.282536 211.152266 
L 513.164284 229.916015 
L 514.927779 271.985132 
L 515.368653 278.467307 
L 515.809526 281.926545 
L 516.2504 282.024808 
L 516.691274 278.708331 
L 517.132148 272.216737 
L 518.013896 251.995425 
L 519.336517 216.686631 
L 519.777391 207.401056 
L 520.218265 200.675606 
L 520.659138 196.985318 
L 521.100012 196.529744 
L 521.540886 199.220183 
L 521.98176 204.69421 
L 522.863507 221.43734 
L 524.186129 248.609972 
L 524.627003 255.05835 
L 525.067877 259.305459 
L 525.50875 261.158635 
L 525.949624 260.684427 
L 526.390498 258.194902 
L 527.272246 249.395543 
L 528.153993 240.248482 
L 528.594867 237.304691 
L 529.035741 236.161297 
L 529.476615 237.104439 
L 529.917488 240.176629 
L 530.358362 245.168231 
L 531.24011 258.93686 
L 532.121858 272.904175 
L 532.562731 277.93274 
L 533.003605 280.68611 
L 533.444479 280.635805 
L 533.885353 277.482569 
L 534.326227 271.189551 
L 534.7671 261.990674 
L 535.648848 237.037 
L 536.971469 195.50954 
L 537.853217 175.240341 
L 538.294091 169.261295 
L 538.294091 169.261295 
" clip-path="url(#pa2f55aaa6c)" style="fill: none; stroke: #4c72b0; stroke-width: 1.5; stroke-linecap: round"/>
   </g>
   <g id="line2d_16">
    <path d="M 95.215909 222.831923 
L 97.420278 240.145835 
L 98.7429 248.738428 
L 99.624647 253.220697 
L 100.506395 256.491462 
L 100.947269 257.629739 
L 101.388142 258.420327 
L 101.829016 258.855328 
L 102.26989 258.930395 
L 102.710764 258.644778 
L 103.151638 258.001331 
L 103.592512 257.006482 
L 104.474259 254.005755 
L 105.356007 249.762225 
L 106.237754 244.445069 
L 107.560376 234.929642 
L 111.969114 200.735367 
L 112.850862 195.500856 
L 113.732609 191.355949 
L 114.614357 188.465889 
L 115.055231 187.529527 
L 115.496104 186.945895 
L 115.936978 186.720824 
L 116.377852 186.856564 
L 116.818726 187.351757 
L 117.2596 188.201456 
L 117.700474 189.397172 
L 118.582221 192.775525 
L 119.463969 197.352131 
L 120.78659 206.05334 
L 122.550085 219.831243 
L 125.195328 240.676269 
L 126.51795 249.157817 
L 127.399697 253.544481 
L 128.281445 256.706733 
L 128.722319 257.787249 
L 129.163193 258.518503 
L 129.604066 258.893188 
L 130.04494 258.907562 
L 130.485814 258.561479 
L 130.926688 257.858398 
L 131.367562 256.805345 
L 132.249309 253.694798 
L 133.131057 249.353845 
L 134.012805 243.955547 
L 135.335426 234.3558 
L 139.744164 200.258203 
L 140.625912 195.107817 
L 141.507659 191.062705 
L 142.389407 188.28413 
L 142.830281 187.406519 
L 143.271155 186.882867 
L 143.712028 186.718407 
L 144.152902 186.91478 
L 144.593776 187.470026 
L 145.03465 188.378596 
L 145.916398 191.215957 
L 146.798145 195.313747 
L 147.679893 200.5086 
L 149.002514 209.894877 
L 153.852126 247.012679 
L 154.733874 251.85969 
L 155.615621 255.549456 
L 156.497369 257.934876 
L 156.938243 258.606589 
L 157.379117 258.920853 
L 157.819991 258.874529 
L 158.260864 258.468078 
L 158.701738 257.705563 
L 159.142612 256.594602 
L 160.02436 253.375115 
L 160.906107 248.937967 
L 161.787855 243.460053 
L 163.110476 233.7787 
L 167.078341 202.678496 
L 168.400962 194.722617 
L 169.28271 190.778442 
L 170.164457 188.112139 
L 170.605331 187.293527 
L 171.046205 186.830004 
L 171.487079 186.726199 
L 171.927953 186.983151 
L 172.368826 187.598292 
L 172.8097 188.565476 
L 173.691448 191.513896 
L 174.573195 195.710867 
L 175.454943 200.989069 
L 176.777564 210.463623 
L 181.186303 244.700312 
L 182.06805 249.974148 
L 182.949798 254.16591 
L 183.831545 257.108485 
L 184.272419 258.072579 
L 184.713293 258.684561 
L 185.154167 258.938315 
L 185.595041 258.831305 
L 186.035915 258.364602 
L 186.476788 257.542868 
L 186.917662 256.374314 
L 187.79941 253.046797 
L 188.681157 248.514708 
L 190.003779 239.864633 
L 191.767274 226.119095 
L 194.412517 205.238166 
L 195.735138 196.703727 
L 196.616886 192.271629 
L 197.498634 189.057874 
L 197.939507 187.949964 
L 198.380381 187.190583 
L 198.821255 186.787318 
L 199.262129 186.7442 
L 199.703003 187.061658 
L 200.143877 187.73652 
L 200.58475 188.762044 
L 201.466498 191.82069 
L 202.348246 196.115655 
L 203.229993 201.475714 
L 204.552615 211.035865 
L 208.961353 245.180451 
L 209.8431 250.37086 
L 210.724848 254.463379 
L 211.606596 257.294852 
L 212.047469 258.200318 
L 212.488343 258.752396 
L 212.929217 258.945568 
L 213.370091 258.777904 
L 213.810965 258.25108 
L 214.251839 257.37036 
L 214.692712 256.144543 
L 215.57446 252.709936 
L 216.456208 248.084187 
L 217.778829 239.326788 
L 219.542324 225.513936 
L 222.187567 204.71037 
L 223.510189 196.288242 
L 224.391936 191.952405 
L 225.273684 188.847637 
L 225.714558 187.797651 
L 226.155431 187.097715 
L 226.596305 186.754824 
L 227.037179 186.772403 
L 227.478053 187.150277 
L 227.918927 187.884671 
L 228.359801 188.968245 
L 229.241548 192.136251 
L 230.123296 196.527997 
L 231.005043 201.968397 
L 232.327665 211.611442 
L 236.736403 245.654272 
L 237.618151 250.759787 
L 238.499898 254.751905 
L 239.381646 257.471475 
L 239.82252 258.318058 
L 240.263393 258.810075 
L 240.704267 258.942611 
L 241.145141 258.71434 
L 241.586015 258.127544 
L 242.026889 257.188086 
L 242.908636 254.29216 
L 243.790384 250.142014 
L 244.672132 244.903101 
L 245.994753 235.470022 
L 250.844365 198.414691 
L 251.726113 193.615124 
L 252.60786 189.980339 
L 253.489608 187.655243 
L 253.930482 187.01495 
L 254.371355 186.732529 
L 254.812229 186.810802 
L 255.253103 187.248985 
L 255.693977 188.042702 
L 256.134851 189.18402 
L 257.016598 192.460491 
L 257.898346 196.947775 
L 259.220967 205.546167 
L 260.984463 219.258468 
L 263.629706 240.173977 
L 264.952327 248.760765 
L 265.834075 253.238016 
L 266.715822 256.503071 
L 267.156696 257.638305 
L 267.59757 258.425765 
L 268.038444 258.857583 
L 268.479318 258.929444 
L 268.920191 258.640631 
L 269.361065 257.994029 
L 269.801939 256.996099 
L 270.683687 253.989549 
L 271.565434 249.740843 
L 272.447182 244.419364 
L 273.769803 234.899416 
L 278.178541 200.710005 
L 279.060289 195.479901 
L 279.942037 191.340236 
L 280.823784 188.456045 
L 281.264658 187.52278 
L 281.705532 186.942312 
L 282.146406 186.720441 
L 282.58728 186.859384 
L 283.028153 187.357753 
L 283.469027 188.210568 
L 283.909901 189.409309 
L 284.791649 192.793318 
L 285.673396 197.374872 
L 286.996018 206.08175 
L 288.759513 219.863208 
L 291.404756 240.704148 
L 292.727377 249.179763 
L 293.609125 253.561343 
L 294.490872 256.717838 
L 294.931746 257.795294 
L 295.37262 258.523408 
L 295.813494 258.894905 
L 296.254368 258.906072 
L 296.695242 258.556798 
L 297.136115 257.850573 
L 297.576989 256.794453 
L 298.458737 253.678129 
L 299.340484 249.332065 
L 300.222232 243.929523 
L 301.544853 234.325398 
L 305.953592 200.233175 
L 306.835339 195.087274 
L 307.717087 191.047464 
L 308.598834 188.274801 
L 309.039708 187.4003 
L 309.480582 186.879821 
L 309.921456 186.718563 
L 310.36233 186.918138 
L 310.803204 187.476551 
L 311.244077 188.388224 
L 312.125825 191.231471 
L 313.007573 195.334529 
L 313.88932 200.533822 
L 315.211942 209.924829 
L 320.061554 247.036493 
L 320.943301 251.87876 
L 321.825049 255.563022 
L 322.706796 257.942398 
L 323.14767 258.610961 
L 323.588544 258.922031 
L 324.029418 258.8725 
L 324.470292 258.462864 
L 324.911166 257.697216 
L 325.352039 256.583205 
L 326.233787 253.357988 
L 327.115535 248.915794 
L 327.997282 243.433718 
L 329.319904 233.74813 
L 333.287768 202.651888 
L 334.610389 194.702491 
L 335.492137 190.763679 
L 336.373885 188.103327 
L 336.814758 187.287838 
L 337.255632 186.827494 
L 337.696506 186.726895 
L 338.13738 186.987044 
L 338.578254 187.605345 
L 339.019128 188.575617 
L 339.900875 191.52988 
L 340.782623 195.732057 
L 341.66437 201.014621 
L 342.986992 210.493763 
L 347.39573 244.725829 
L 348.277478 249.995296 
L 349.159225 254.181845 
L 350.040973 257.118571 
L 350.481847 258.079576 
L 350.92272 258.688398 
L 351.363594 258.938953 
L 351.804468 258.828739 
L 352.245342 258.358857 
L 352.686216 257.534001 
L 353.12709 256.362414 
L 354.008837 253.029216 
L 354.890585 248.492148 
L 356.213206 239.836343 
L 357.976701 226.087152 
L 360.621944 205.210162 
L 361.944566 196.681596 
L 362.826313 192.254551 
L 363.708061 189.046529 
L 364.148935 187.941671 
L 364.589809 187.185425 
L 365.030682 186.785347 
L 365.471556 186.745434 
L 365.91243 187.066086 
L 366.353304 187.744098 
L 366.794178 188.772696 
L 367.675925 191.837139 
L 368.557673 196.137247 
L 369.439421 201.501588 
L 370.762042 211.066185 
L 375.17078 245.205638 
L 376.052528 250.391599 
L 376.934275 254.478844 
L 377.816023 257.304425 
L 378.256897 258.206788 
L 378.697771 258.755697 
L 379.138645 258.945667 
L 379.579518 258.774801 
L 380.020392 258.244805 
L 380.461266 257.360976 
L 380.90214 256.132144 
L 381.783887 252.691907 
L 382.665635 248.061247 
L 383.988256 239.298248 
L 385.751752 225.481949 
L 388.396995 204.682632 
L 389.719616 196.266504 
L 390.601364 191.935786 
L 391.483111 188.836799 
L 391.923985 187.78988 
L 392.364859 187.09309 
L 392.805733 186.753391 
L 393.246607 186.774176 
L 393.68748 187.155239 
L 394.128354 187.892771 
L 394.569228 188.979404 
L 395.450976 192.153161 
L 396.332723 196.549985 
L 397.214471 201.994586 
L 398.537092 211.641934 
L 402.94583 245.679121 
L 403.827578 250.780111 
L 404.709326 254.766895 
L 405.591073 257.480533 
L 406.031947 258.323998 
L 406.472821 258.812839 
L 406.913695 258.942171 
L 407.354569 258.7107 
L 407.795442 258.120741 
L 408.236316 257.178188 
L 409.118064 254.276398 
L 409.999811 250.121017 
L 410.881559 244.877705 
L 412.20418 235.43997 
L 417.053792 198.391069 
L 417.93554 193.596283 
L 418.817288 189.96703 
L 419.699035 187.647997 
L 420.139909 187.01086 
L 420.580783 186.731636 
L 421.021657 186.813113 
L 421.462531 187.254479 
L 421.903404 188.051323 
L 422.344278 189.195683 
L 423.226026 192.477857 
L 424.107773 196.970153 
L 425.430395 205.574335 
L 427.19389 219.290387 
L 429.839133 240.202104 
L 431.161754 248.783081 
L 432.043502 253.25531 
L 432.92525 256.514654 
L 433.366123 257.646844 
L 433.806997 258.431174 
L 434.247871 258.859809 
L 434.688745 258.928465 
L 435.129619 258.636456 
L 435.570493 257.9867 
L 436.011366 256.985689 
L 436.893114 253.97332 
L 437.774862 249.719441 
L 438.656609 244.393642 
L 439.979231 234.86918 
L 444.387969 200.684661 
L 445.269716 195.458968 
L 446.151464 191.324548 
L 447.033212 188.446228 
L 447.474085 187.516061 
L 447.914959 186.938757 
L 448.355833 186.720087 
L 448.796707 186.862233 
L 449.237581 187.363778 
L 449.678455 188.219708 
L 450.119328 189.421472 
L 451.001076 192.811135 
L 451.882824 197.397632 
L 453.205445 206.110173 
L 454.96894 219.895176 
L 457.614183 240.732012 
L 458.936805 249.201689 
L 459.818552 253.57818 
L 460.7003 256.728916 
L 461.141174 257.803312 
L 461.582047 258.528285 
L 462.022921 258.896593 
L 462.463795 258.904554 
L 462.904669 258.552089 
L 463.345543 257.84272 
L 463.786417 256.783535 
L 464.668164 253.661437 
L 465.549912 249.310264 
L 466.431659 243.903483 
L 467.754281 234.294986 
L 472.163019 200.208165 
L 473.044767 195.066752 
L 473.926514 191.032249 
L 474.808262 188.265499 
L 475.249136 187.394109 
L 475.690009 186.876802 
L 476.130883 186.718747 
L 476.571757 186.921523 
L 477.012631 187.483104 
L 477.453505 188.397879 
L 478.335252 191.247011 
L 479.217 195.355333 
L 480.098748 200.559061 
L 481.421369 209.95479 
L 486.270981 247.060288 
L 487.152729 251.897808 
L 488.034476 255.576563 
L 488.916224 257.949893 
L 489.357098 258.615304 
L 489.797972 258.92318 
L 490.238845 258.870444 
L 490.679719 258.457622 
L 491.120593 257.688841 
L 491.561467 256.571781 
L 492.443214 253.340837 
L 493.324962 248.8936 
L 494.20671 243.407366 
L 495.529331 233.717552 
L 499.497195 202.625296 
L 500.819817 194.682387 
L 501.701564 190.748941 
L 502.583312 188.094542 
L 503.024186 187.282177 
L 503.46506 186.825013 
L 503.905934 186.727618 
L 504.346807 186.990966 
L 504.787681 187.612425 
L 505.228555 188.585785 
L 506.110303 191.545889 
L 506.99205 195.753269 
L 507.873798 201.040189 
L 509.196419 210.523912 
L 513.605157 244.751328 
L 514.486905 250.016422 
L 515.368653 254.197755 
L 516.2504 257.128631 
L 516.691274 258.086545 
L 517.132148 258.692206 
L 517.573022 258.939563 
L 518.013896 258.826145 
L 518.454769 258.353084 
L 518.895643 257.525107 
L 519.336517 256.350488 
L 520.218265 253.011612 
L 521.100012 248.469568 
L 522.422634 239.80804 
L 524.186129 226.055207 
L 526.831372 205.182172 
L 528.153993 196.659484 
L 529.035741 192.237497 
L 529.917488 189.035212 
L 530.358362 187.933407 
L 530.799236 187.180296 
L 531.24011 186.783404 
L 531.680984 186.746697 
L 532.121858 187.070542 
L 532.562731 187.751703 
L 533.003605 188.783374 
L 533.885353 191.853613 
L 534.7671 196.158861 
L 535.648848 201.527479 
L 536.971469 211.096514 
L 538.294091 221.713839 
L 538.294091 221.713839 
" clip-path="url(#pa2f55aaa6c)" style="fill: none; stroke: #dd8452; stroke-width: 1.5; stroke-linecap: round"/>
   </g>
   <g id="patch_3">
    <path d="M 73.062 381.348 
L 73.062 15.552 
" style="fill: none; stroke: #ffffff; stroke-width: 1.25; stroke-linejoin: miter; stroke-linecap: square"/>
   </g>
   <g id="patch_4">
    <path d="M 560.448 381.348 
L 560.448 15.552 
" style="fill: none; stroke: #ffffff; stroke-width: 1.25; stroke-linejoin: miter; stroke-linecap: square"/>
   </g>
   <g id="patch_5">
    <path d="M 73.062 381.348 
L 560.448 381.348 
" style="fill: none; stroke: #ffffff; stroke-width: 1.25; stroke-linejoin: miter; stroke-linecap: square"/>
   </g>
   <g id="patch_6">
    <path d="M 73.062 15.552 
L 560.448 15.552 
" style="fill: none; stroke: #ffffff; stroke-width: 1.25; stroke-linejoin: miter; stroke-linecap: square"/>
   </g>
  </g>
 </g>
 <defs>
  <clipPath id="pa2f55aaa6c">
   <rect x="73.062" y="15.552" width="487.386" height="365.796"/>
  </clipPath>
 </defs>
</svg>
